SplineFontDB: 3.0
FontName: IBM029d
FullName: IBM029d
FamilyName: IBM029d
Weight: Medium
Version: 1.0
ItalicAngle: 0
UnderlinePosition: -100
UnderlineWidth: 20
Ascent: 896
Descent: 128
sfntRevision: 0x00010000
LayerCount: 2
Layer: 0 1 "Back"  1
Layer: 1 1 "Fore"  0
XUID: [1021 590 1988622496 6654411]
FSType: 2
OS2Version: 1
OS2_WeightWidthSlopeOnly: 0
OS2_UseTypoMetrics: 1
CreationTime: 1020026999
ModificationTime: 1464469995
PfmFamily: 81
TTFWeight: 400
TTFWidth: 5
LineGap: 0
VLineGap: 0
Panose: 0 0 4 0 0 0 0 0 0 0
OS2TypoAscent: 1120
OS2TypoAOffset: 0
OS2TypoDescent: 0
OS2TypoDOffset: 0
OS2TypoLinegap: 0
OS2WinAscent: 1120
OS2WinAOffset: 0
OS2WinDescent: 0
OS2WinDOffset: 0
HheadAscent: 1200
HheadAOffset: 0
HheadDescent: -200
HheadDOffset: 0
OS2SubXSize: 980
OS2SubYSize: 910
OS2SubXOff: 0
OS2SubYOff: 200
OS2SupXSize: 980
OS2SupYSize: 910
OS2SupXOff: 0
OS2SupYOff: 634
OS2StrikeYSize: 70
OS2StrikeYPos: 362
OS2Vendor: 'MACR'
OS2CodePages: 00000001.00000000
OS2UnicodeRanges: 00000003.00000000.00000000.00000000
DEI: 91125
LangName: 1033 "" "" "Regular" "" "" ""
Encoding: UnicodeBmp
UnicodeInterp: none
NameList: Adobe Glyph List
DisplaySize: -24
AntiAlias: 1
FitToEm: 1
WinInfo: 0 16 15
BeginChars: 256 256

StartChar: uni0021
Encoding: 33 33 0
Width: 768
VWidth: 0
Flags: HW
LayerCount: 2
Fore
SplineSet
384 828 m 0
 384 853 384 853 401 871 c 0
 419 888 419 888 444 888 c 0
 469 888 469 888 487 871 c 0
 504 853 504 853 504 828 c 0
 504 803 504 803 487 785 c 0
 469 768 469 768 444 768 c 0
 419 768 419 768 401 785 c 0
 384 803 384 803 384 828 c 0
384 700 m 0
 384 725 384 725 401 743 c 0
 419 760 419 760 444 760 c 0
 469 760 469 760 487 743 c 0
 504 725 504 725 504 700 c 0
 504 675 504 675 487 657 c 0
 469 640 469 640 444 640 c 0
 419 640 419 640 401 657 c 0
 384 675 384 675 384 700 c 0
384 572 m 0
 384 597 384 597 401 615 c 0
 419 632 419 632 444 632 c 0
 469 632 469 632 487 615 c 0
 504 597 504 597 504 572 c 0
 504 547 504 547 487 529 c 0
 469 512 469 512 444 512 c 0
 419 512 419 512 401 529 c 0
 384 547 384 547 384 572 c 0
384 444 m 0
 384 469 384 469 401 487 c 0
 419 504 419 504 444 504 c 0
 469 504 469 504 487 487 c 0
 504 469 504 469 504 444 c 0
 504 419 504 419 487 401 c 0
 469 384 469 384 444 384 c 0
 419 384 419 384 401 401 c 0
 384 419 384 419 384 444 c 0
384 316 m 0
 384 341 384 341 401 359 c 0
 419 376 419 376 444 376 c 0
 469 376 469 376 487 359 c 0
 504 341 504 341 504 316 c 0
 504 291 504 291 487 273 c 0
 469 256 469 256 444 256 c 0
 419 256 419 256 401 273 c 0
 384 291 384 291 384 316 c 0
384 60 m 0
 384 85 384 85 401 103 c 0
 419 120 419 120 444 120 c 0
 469 120 469 120 487 103 c 0
 504 85 504 85 504 60 c 0
 504 35 504 35 487 17 c 0
 469 0 469 0 444 0 c 0
 419 0 419 0 401 17 c 0
 384 35 384 35 384 60 c 0
EndSplineSet
EndChar
StartChar: uni0022
Encoding: 34 34 1
Width: 768
VWidth: 0
Flags: HW
LayerCount: 2
Fore
SplineSet
128 828 m 0
 128 853 128 853 145 871 c 0
 163 888 163 888 188 888 c 0
 213 888 213 888 231 871 c 0
 248 853 248 853 248 828 c 0
 248 803 248 803 231 785 c 0
 213 768 213 768 188 768 c 0
 163 768 163 768 145 785 c 0
 128 803 128 803 128 828 c 0
384 828 m 0
 384 853 384 853 401 871 c 0
 419 888 419 888 444 888 c 0
 469 888 469 888 487 871 c 0
 504 853 504 853 504 828 c 0
 504 803 504 803 487 785 c 0
 469 768 469 768 444 768 c 0
 419 768 419 768 401 785 c 0
 384 803 384 803 384 828 c 0
128 700 m 0
 128 725 128 725 145 743 c 0
 163 760 163 760 188 760 c 0
 213 760 213 760 231 743 c 0
 248 725 248 725 248 700 c 0
 248 675 248 675 231 657 c 0
 213 640 213 640 188 640 c 0
 163 640 163 640 145 657 c 0
 128 675 128 675 128 700 c 0
384 700 m 0
 384 725 384 725 401 743 c 0
 419 760 419 760 444 760 c 0
 469 760 469 760 487 743 c 0
 504 725 504 725 504 700 c 0
 504 675 504 675 487 657 c 0
 469 640 469 640 444 640 c 0
 419 640 419 640 401 657 c 0
 384 675 384 675 384 700 c 0
128 572 m 0
 128 597 128 597 145 615 c 0
 163 632 163 632 188 632 c 0
 213 632 213 632 231 615 c 0
 248 597 248 597 248 572 c 0
 248 547 248 547 231 529 c 0
 213 512 213 512 188 512 c 0
 163 512 163 512 145 529 c 0
 128 547 128 547 128 572 c 0
384 572 m 0
 384 597 384 597 401 615 c 0
 419 632 419 632 444 632 c 0
 469 632 469 632 487 615 c 0
 504 597 504 597 504 572 c 0
 504 547 504 547 487 529 c 0
 469 512 469 512 444 512 c 0
 419 512 419 512 401 529 c 0
 384 547 384 547 384 572 c 0
EndSplineSet
EndChar
StartChar: uni0023
Encoding: 35 35 2
Width: 768
VWidth: 0
Flags: HW
LayerCount: 2
Fore
SplineSet
128 828 m 0
 128 853 128 853 145 871 c 0
 163 888 163 888 188 888 c 0
 213 888 213 888 231 871 c 0
 248 853 248 853 248 828 c 0
 248 803 248 803 231 785 c 0
 213 768 213 768 188 768 c 0
 163 768 163 768 145 785 c 0
 128 803 128 803 128 828 c 0
384 828 m 0
 384 853 384 853 401 871 c 0
 419 888 419 888 444 888 c 0
 469 888 469 888 487 871 c 0
 504 853 504 853 504 828 c 0
 504 803 504 803 487 785 c 0
 469 768 469 768 444 768 c 0
 419 768 419 768 401 785 c 0
 384 803 384 803 384 828 c 0
128 700 m 0
 128 725 128 725 145 743 c 0
 163 760 163 760 188 760 c 0
 213 760 213 760 231 743 c 0
 248 725 248 725 248 700 c 0
 248 675 248 675 231 657 c 0
 213 640 213 640 188 640 c 0
 163 640 163 640 145 657 c 0
 128 675 128 675 128 700 c 0
384 700 m 0
 384 725 384 725 401 743 c 0
 419 760 419 760 444 760 c 0
 469 760 469 760 487 743 c 0
 504 725 504 725 504 700 c 0
 504 675 504 675 487 657 c 0
 469 640 469 640 444 640 c 0
 419 640 419 640 401 657 c 0
 384 675 384 675 384 700 c 0
0 572 m 0
 0 597 0 597 17 615 c 0
 35 632 35 632 60 632 c 0
 85 632 85 632 103 615 c 0
 120 597 120 597 120 572 c 0
 120 547 120 547 103 529 c 0
 85 512 85 512 60 512 c 0
 35 512 35 512 17 529 c 0
 0 547 0 547 0 572 c 0
128 572 m 0
 128 597 128 597 145 615 c 0
 163 632 163 632 188 632 c 0
 213 632 213 632 231 615 c 0
 248 597 248 597 248 572 c 0
 248 547 248 547 231 529 c 0
 213 512 213 512 188 512 c 0
 163 512 163 512 145 529 c 0
 128 547 128 547 128 572 c 0
384 572 m 0
 384 597 384 597 401 615 c 0
 419 632 419 632 444 632 c 0
 469 632 469 632 487 615 c 0
 504 597 504 597 504 572 c 0
 504 547 504 547 487 529 c 0
 469 512 469 512 444 512 c 0
 419 512 419 512 401 529 c 0
 384 547 384 547 384 572 c 0
512 572 m 0
 512 597 512 597 529 615 c 0
 547 632 547 632 572 632 c 0
 597 632 597 632 615 615 c 0
 632 597 632 597 632 572 c 0
 632 547 632 547 615 529 c 0
 597 512 597 512 572 512 c 0
 547 512 547 512 529 529 c 0
 512 547 512 547 512 572 c 0
0 316 m 0
 0 341 0 341 17 359 c 0
 35 376 35 376 60 376 c 0
 85 376 85 376 103 359 c 0
 120 341 120 341 120 316 c 0
 120 291 120 291 103 273 c 0
 85 256 85 256 60 256 c 0
 35 256 35 256 17 273 c 0
 0 291 0 291 0 316 c 0
128 316 m 0
 128 341 128 341 145 359 c 0
 163 376 163 376 188 376 c 0
 213 376 213 376 231 359 c 0
 248 341 248 341 248 316 c 0
 248 291 248 291 231 273 c 0
 213 256 213 256 188 256 c 0
 163 256 163 256 145 273 c 0
 128 291 128 291 128 316 c 0
384 316 m 0
 384 341 384 341 401 359 c 0
 419 376 419 376 444 376 c 0
 469 376 469 376 487 359 c 0
 504 341 504 341 504 316 c 0
 504 291 504 291 487 273 c 0
 469 256 469 256 444 256 c 0
 419 256 419 256 401 273 c 0
 384 291 384 291 384 316 c 0
512 316 m 0
 512 341 512 341 529 359 c 0
 547 376 547 376 572 376 c 0
 597 376 597 376 615 359 c 0
 632 341 632 341 632 316 c 0
 632 291 632 291 615 273 c 0
 597 256 597 256 572 256 c 0
 547 256 547 256 529 273 c 0
 512 291 512 291 512 316 c 0
128 188 m 0
 128 213 128 213 145 231 c 0
 163 248 163 248 188 248 c 0
 213 248 213 248 231 231 c 0
 248 213 248 213 248 188 c 0
 248 163 248 163 231 145 c 0
 213 128 213 128 188 128 c 0
 163 128 163 128 145 145 c 0
 128 163 128 163 128 188 c 0
384 188 m 0
 384 213 384 213 401 231 c 0
 419 248 419 248 444 248 c 0
 469 248 469 248 487 231 c 0
 504 213 504 213 504 188 c 0
 504 163 504 163 487 145 c 0
 469 128 469 128 444 128 c 0
 419 128 419 128 401 145 c 0
 384 163 384 163 384 188 c 0
128 60 m 0
 128 85 128 85 145 103 c 0
 163 120 163 120 188 120 c 0
 213 120 213 120 231 103 c 0
 248 85 248 85 248 60 c 0
 248 35 248 35 231 17 c 0
 213 0 213 0 188 0 c 0
 163 0 163 0 145 17 c 0
 128 35 128 35 128 60 c 0
384 60 m 0
 384 85 384 85 401 103 c 0
 419 120 419 120 444 120 c 0
 469 120 469 120 487 103 c 0
 504 85 504 85 504 60 c 0
 504 35 504 35 487 17 c 0
 469 0 469 0 444 0 c 0
 419 0 419 0 401 17 c 0
 384 35 384 35 384 60 c 0
EndSplineSet
EndChar
StartChar: uni0024
Encoding: 36 36 3
Width: 768
VWidth: 0
Flags: HW
LayerCount: 2
Fore
SplineSet
256 828 m 0
 256 853 256 853 273 871 c 0
 291 888 291 888 316 888 c 0
 341 888 341 888 359 871 c 0
 376 853 376 853 376 828 c 0
 376 803 376 803 359 785 c 0
 341 768 341 768 316 768 c 0
 291 768 291 768 273 785 c 0
 256 803 256 803 256 828 c 0
128 700 m 0
 128 725 128 725 145 743 c 0
 163 760 163 760 188 760 c 0
 213 760 213 760 231 743 c 0
 248 725 248 725 248 700 c 0
 248 675 248 675 231 657 c 0
 213 640 213 640 188 640 c 0
 163 640 163 640 145 657 c 0
 128 675 128 675 128 700 c 0
256 700 m 0
 256 725 256 725 273 743 c 0
 291 760 291 760 316 760 c 0
 341 760 341 760 359 743 c 0
 376 725 376 725 376 700 c 0
 376 675 376 675 359 657 c 0
 341 640 341 640 316 640 c 0
 291 640 291 640 273 657 c 0
 256 675 256 675 256 700 c 0
384 700 m 0
 384 725 384 725 401 743 c 0
 419 760 419 760 444 760 c 0
 469 760 469 760 487 743 c 0
 504 725 504 725 504 700 c 0
 504 675 504 675 487 657 c 0
 469 640 469 640 444 640 c 0
 419 640 419 640 401 657 c 0
 384 675 384 675 384 700 c 0
512 700 m 0
 512 725 512 725 529 743 c 0
 547 760 547 760 572 760 c 0
 597 760 597 760 615 743 c 0
 632 725 632 725 632 700 c 0
 632 675 632 675 615 657 c 0
 597 640 597 640 572 640 c 0
 547 640 547 640 529 657 c 0
 512 675 512 675 512 700 c 0
0 572 m 0
 0 597 0 597 17 615 c 0
 35 632 35 632 60 632 c 0
 85 632 85 632 103 615 c 0
 120 597 120 597 120 572 c 0
 120 547 120 547 103 529 c 0
 85 512 85 512 60 512 c 0
 35 512 35 512 17 529 c 0
 0 547 0 547 0 572 c 0
128 444 m 0
 128 469 128 469 145 487 c 0
 163 504 163 504 188 504 c 0
 213 504 213 504 231 487 c 0
 248 469 248 469 248 444 c 0
 248 419 248 419 231 401 c 0
 213 384 213 384 188 384 c 0
 163 384 163 384 145 401 c 0
 128 419 128 419 128 444 c 0
256 444 m 0
 256 469 256 469 273 487 c 0
 291 504 291 504 316 504 c 0
 341 504 341 504 359 487 c 0
 376 469 376 469 376 444 c 0
 376 419 376 419 359 401 c 0
 341 384 341 384 316 384 c 0
 291 384 291 384 273 401 c 0
 256 419 256 419 256 444 c 0
384 444 m 0
 384 469 384 469 401 487 c 0
 419 504 419 504 444 504 c 0
 469 504 469 504 487 487 c 0
 504 469 504 469 504 444 c 0
 504 419 504 419 487 401 c 0
 469 384 469 384 444 384 c 0
 419 384 419 384 401 401 c 0
 384 419 384 419 384 444 c 0
512 316 m 0
 512 341 512 341 529 359 c 0
 547 376 547 376 572 376 c 0
 597 376 597 376 615 359 c 0
 632 341 632 341 632 316 c 0
 632 291 632 291 615 273 c 0
 597 256 597 256 572 256 c 0
 547 256 547 256 529 273 c 0
 512 291 512 291 512 316 c 0
0 188 m 0
 0 213 0 213 17 231 c 0
 35 248 35 248 60 248 c 0
 85 248 85 248 103 231 c 0
 120 213 120 213 120 188 c 0
 120 163 120 163 103 145 c 0
 85 128 85 128 60 128 c 0
 35 128 35 128 17 145 c 0
 0 163 0 163 0 188 c 0
128 188 m 0
 128 213 128 213 145 231 c 0
 163 248 163 248 188 248 c 0
 213 248 213 248 231 231 c 0
 248 213 248 213 248 188 c 0
 248 163 248 163 231 145 c 0
 213 128 213 128 188 128 c 0
 163 128 163 128 145 145 c 0
 128 163 128 163 128 188 c 0
256 188 m 0
 256 213 256 213 273 231 c 0
 291 248 291 248 316 248 c 0
 341 248 341 248 359 231 c 0
 376 213 376 213 376 188 c 0
 376 163 376 163 359 145 c 0
 341 128 341 128 316 128 c 0
 291 128 291 128 273 145 c 0
 256 163 256 163 256 188 c 0
384 188 m 0
 384 213 384 213 401 231 c 0
 419 248 419 248 444 248 c 0
 469 248 469 248 487 231 c 0
 504 213 504 213 504 188 c 0
 504 163 504 163 487 145 c 0
 469 128 469 128 444 128 c 0
 419 128 419 128 401 145 c 0
 384 163 384 163 384 188 c 0
256 60 m 0
 256 85 256 85 273 103 c 0
 291 120 291 120 316 120 c 0
 341 120 341 120 359 103 c 0
 376 85 376 85 376 60 c 0
 376 35 376 35 359 17 c 0
 341 0 341 0 316 0 c 0
 291 0 291 0 273 17 c 0
 256 35 256 35 256 60 c 0
EndSplineSet
EndChar
StartChar: uni0025
Encoding: 37 37 4
Width: 768
VWidth: 0
Flags: HW
LayerCount: 2
Fore
SplineSet
0 828 m 0
 0 853 0 853 17 871 c 0
 35 888 35 888 60 888 c 0
 85 888 85 888 103 871 c 0
 120 853 120 853 120 828 c 0
 120 803 120 803 103 785 c 0
 85 768 85 768 60 768 c 0
 35 768 35 768 17 785 c 0
 0 803 0 803 0 828 c 0
128 828 m 0
 128 853 128 853 145 871 c 0
 163 888 163 888 188 888 c 0
 213 888 213 888 231 871 c 0
 248 853 248 853 248 828 c 0
 248 803 248 803 231 785 c 0
 213 768 213 768 188 768 c 0
 163 768 163 768 145 785 c 0
 128 803 128 803 128 828 c 0
512 828 m 0
 512 853 512 853 529 871 c 0
 547 888 547 888 572 888 c 0
 597 888 597 888 615 871 c 0
 632 853 632 853 632 828 c 0
 632 803 632 803 615 785 c 0
 597 768 597 768 572 768 c 0
 547 768 547 768 529 785 c 0
 512 803 512 803 512 828 c 0
0 700 m 0
 0 725 0 725 17 743 c 0
 35 760 35 760 60 760 c 0
 85 760 85 760 103 743 c 0
 120 725 120 725 120 700 c 0
 120 675 120 675 103 657 c 0
 85 640 85 640 60 640 c 0
 35 640 35 640 17 657 c 0
 0 675 0 675 0 700 c 0
128 700 m 0
 128 725 128 725 145 743 c 0
 163 760 163 760 188 760 c 0
 213 760 213 760 231 743 c 0
 248 725 248 725 248 700 c 0
 248 675 248 675 231 657 c 0
 213 640 213 640 188 640 c 0
 163 640 163 640 145 657 c 0
 128 675 128 675 128 700 c 0
512 700 m 0
 512 725 512 725 529 743 c 0
 547 760 547 760 572 760 c 0
 597 760 597 760 615 743 c 0
 632 725 632 725 632 700 c 0
 632 675 632 675 615 657 c 0
 597 640 597 640 572 640 c 0
 547 640 547 640 529 657 c 0
 512 675 512 675 512 700 c 0
384 572 m 0
 384 597 384 597 401 615 c 0
 419 632 419 632 444 632 c 0
 469 632 469 632 487 615 c 0
 504 597 504 597 504 572 c 0
 504 547 504 547 487 529 c 0
 469 512 469 512 444 512 c 0
 419 512 419 512 401 529 c 0
 384 547 384 547 384 572 c 0
256 444 m 0
 256 469 256 469 273 487 c 0
 291 504 291 504 316 504 c 0
 341 504 341 504 359 487 c 0
 376 469 376 469 376 444 c 0
 376 419 376 419 359 401 c 0
 341 384 341 384 316 384 c 0
 291 384 291 384 273 401 c 0
 256 419 256 419 256 444 c 0
128 316 m 0
 128 341 128 341 145 359 c 0
 163 376 163 376 188 376 c 0
 213 376 213 376 231 359 c 0
 248 341 248 341 248 316 c 0
 248 291 248 291 231 273 c 0
 213 256 213 256 188 256 c 0
 163 256 163 256 145 273 c 0
 128 291 128 291 128 316 c 0
0 188 m 0
 0 213 0 213 17 231 c 0
 35 248 35 248 60 248 c 0
 85 248 85 248 103 231 c 0
 120 213 120 213 120 188 c 0
 120 163 120 163 103 145 c 0
 85 128 85 128 60 128 c 0
 35 128 35 128 17 145 c 0
 0 163 0 163 0 188 c 0
384 188 m 0
 384 213 384 213 401 231 c 0
 419 248 419 248 444 248 c 0
 469 248 469 248 487 231 c 0
 504 213 504 213 504 188 c 0
 504 163 504 163 487 145 c 0
 469 128 469 128 444 128 c 0
 419 128 419 128 401 145 c 0
 384 163 384 163 384 188 c 0
512 188 m 0
 512 213 512 213 529 231 c 0
 547 248 547 248 572 248 c 0
 597 248 597 248 615 231 c 0
 632 213 632 213 632 188 c 0
 632 163 632 163 615 145 c 0
 597 128 597 128 572 128 c 0
 547 128 547 128 529 145 c 0
 512 163 512 163 512 188 c 0
0 60 m 0
 0 85 0 85 17 103 c 0
 35 120 35 120 60 120 c 0
 85 120 85 120 103 103 c 0
 120 85 120 85 120 60 c 0
 120 35 120 35 103 17 c 0
 85 0 85 0 60 0 c 0
 35 0 35 0 17 17 c 0
 0 35 0 35 0 60 c 0
384 60 m 0
 384 85 384 85 401 103 c 0
 419 120 419 120 444 120 c 0
 469 120 469 120 487 103 c 0
 504 85 504 85 504 60 c 0
 504 35 504 35 487 17 c 0
 469 0 469 0 444 0 c 0
 419 0 419 0 401 17 c 0
 384 35 384 35 384 60 c 0
512 60 m 0
 512 85 512 85 529 103 c 0
 547 120 547 120 572 120 c 0
 597 120 597 120 615 103 c 0
 632 85 632 85 632 60 c 0
 632 35 632 35 615 17 c 0
 597 0 597 0 572 0 c 0
 547 0 547 0 529 17 c 0
 512 35 512 35 512 60 c 0
EndSplineSet
EndChar
StartChar: uni0026
Encoding: 38 38 5
Width: 768
VWidth: 0
Flags: HW
LayerCount: 2
Fore
SplineSet
128 828 m 0
 128 853 128 853 145 871 c 0
 163 888 163 888 188 888 c 0
 213 888 213 888 231 871 c 0
 248 853 248 853 248 828 c 0
 248 803 248 803 231 785 c 0
 213 768 213 768 188 768 c 0
 163 768 163 768 145 785 c 0
 128 803 128 803 128 828 c 0
0 700 m 0
 0 725 0 725 17 743 c 0
 35 760 35 760 60 760 c 0
 85 760 85 760 103 743 c 0
 120 725 120 725 120 700 c 0
 120 675 120 675 103 657 c 0
 85 640 85 640 60 640 c 0
 35 640 35 640 17 657 c 0
 0 675 0 675 0 700 c 0
256 700 m 0
 256 725 256 725 273 743 c 0
 291 760 291 760 316 760 c 0
 341 760 341 760 359 743 c 0
 376 725 376 725 376 700 c 0
 376 675 376 675 359 657 c 0
 341 640 341 640 316 640 c 0
 291 640 291 640 273 657 c 0
 256 675 256 675 256 700 c 0
0 572 m 0
 0 597 0 597 17 615 c 0
 35 632 35 632 60 632 c 0
 85 632 85 632 103 615 c 0
 120 597 120 597 120 572 c 0
 120 547 120 547 103 529 c 0
 85 512 85 512 60 512 c 0
 35 512 35 512 17 529 c 0
 0 547 0 547 0 572 c 0
256 572 m 0
 256 597 256 597 273 615 c 0
 291 632 291 632 316 632 c 0
 341 632 341 632 359 615 c 0
 376 597 376 597 376 572 c 0
 376 547 376 547 359 529 c 0
 341 512 341 512 316 512 c 0
 291 512 291 512 273 529 c 0
 256 547 256 547 256 572 c 0
128 444 m 0
 128 469 128 469 145 487 c 0
 163 504 163 504 188 504 c 0
 213 504 213 504 231 487 c 0
 248 469 248 469 248 444 c 0
 248 419 248 419 231 401 c 0
 213 384 213 384 188 384 c 0
 163 384 163 384 145 401 c 0
 128 419 128 419 128 444 c 0
0 316 m 0
 0 341 0 341 17 359 c 0
 35 376 35 376 60 376 c 0
 85 376 85 376 103 359 c 0
 120 341 120 341 120 316 c 0
 120 291 120 291 103 273 c 0
 85 256 85 256 60 256 c 0
 35 256 35 256 17 273 c 0
 0 291 0 291 0 316 c 0
256 316 m 0
 256 341 256 341 273 359 c 0
 291 376 291 376 316 376 c 0
 341 376 341 376 359 359 c 0
 376 341 376 341 376 316 c 0
 376 291 376 291 359 273 c 0
 341 256 341 256 316 256 c 0
 291 256 291 256 273 273 c 0
 256 291 256 291 256 316 c 0
512 316 m 0
 512 341 512 341 529 359 c 0
 547 376 547 376 572 376 c 0
 597 376 597 376 615 359 c 0
 632 341 632 341 632 316 c 0
 632 291 632 291 615 273 c 0
 597 256 597 256 572 256 c 0
 547 256 547 256 529 273 c 0
 512 291 512 291 512 316 c 0
0 188 m 0
 0 213 0 213 17 231 c 0
 35 248 35 248 60 248 c 0
 85 248 85 248 103 231 c 0
 120 213 120 213 120 188 c 0
 120 163 120 163 103 145 c 0
 85 128 85 128 60 128 c 0
 35 128 35 128 17 145 c 0
 0 163 0 163 0 188 c 0
384 188 m 0
 384 213 384 213 401 231 c 0
 419 248 419 248 444 248 c 0
 469 248 469 248 487 231 c 0
 504 213 504 213 504 188 c 0
 504 163 504 163 487 145 c 0
 469 128 469 128 444 128 c 0
 419 128 419 128 401 145 c 0
 384 163 384 163 384 188 c 0
128 60 m 0
 128 85 128 85 145 103 c 0
 163 120 163 120 188 120 c 0
 213 120 213 120 231 103 c 0
 248 85 248 85 248 60 c 0
 248 35 248 35 231 17 c 0
 213 0 213 0 188 0 c 0
 163 0 163 0 145 17 c 0
 128 35 128 35 128 60 c 0
256 60 m 0
 256 85 256 85 273 103 c 0
 291 120 291 120 316 120 c 0
 341 120 341 120 359 103 c 0
 376 85 376 85 376 60 c 0
 376 35 376 35 359 17 c 0
 341 0 341 0 316 0 c 0
 291 0 291 0 273 17 c 0
 256 35 256 35 256 60 c 0
512 60 m 0
 512 85 512 85 529 103 c 0
 547 120 547 120 572 120 c 0
 597 120 597 120 615 103 c 0
 632 85 632 85 632 60 c 0
 632 35 632 35 615 17 c 0
 597 0 597 0 572 0 c 0
 547 0 547 0 529 17 c 0
 512 35 512 35 512 60 c 0
EndSplineSet
EndChar
StartChar: uni0027
Encoding: 39 39 6
Width: 768
VWidth: 0
Flags: HW
LayerCount: 2
Fore
SplineSet
128 828 m 0
 128 853 128 853 145 871 c 0
 163 888 163 888 188 888 c 0
 213 888 213 888 231 871 c 0
 248 853 248 853 248 828 c 0
 248 803 248 803 231 785 c 0
 213 768 213 768 188 768 c 0
 163 768 163 768 145 785 c 0
 128 803 128 803 128 828 c 0
256 828 m 0
 256 853 256 853 273 871 c 0
 291 888 291 888 316 888 c 0
 341 888 341 888 359 871 c 0
 376 853 376 853 376 828 c 0
 376 803 376 803 359 785 c 0
 341 768 341 768 316 768 c 0
 291 768 291 768 273 785 c 0
 256 803 256 803 256 828 c 0
128 700 m 0
 128 725 128 725 145 743 c 0
 163 760 163 760 188 760 c 0
 213 760 213 760 231 743 c 0
 248 725 248 725 248 700 c 0
 248 675 248 675 231 657 c 0
 213 640 213 640 188 640 c 0
 163 640 163 640 145 657 c 0
 128 675 128 675 128 700 c 0
256 700 m 0
 256 725 256 725 273 743 c 0
 291 760 291 760 316 760 c 0
 341 760 341 760 359 743 c 0
 376 725 376 725 376 700 c 0
 376 675 376 675 359 657 c 0
 341 640 341 640 316 640 c 0
 291 640 291 640 273 657 c 0
 256 675 256 675 256 700 c 0
128 572 m 0
 128 597 128 597 145 615 c 0
 163 632 163 632 188 632 c 0
 213 632 213 632 231 615 c 0
 248 597 248 597 248 572 c 0
 248 547 248 547 231 529 c 0
 213 512 213 512 188 512 c 0
 163 512 163 512 145 529 c 0
 128 547 128 547 128 572 c 0
256 572 m 0
 256 597 256 597 273 615 c 0
 291 632 291 632 316 632 c 0
 341 632 341 632 359 615 c 0
 376 597 376 597 376 572 c 0
 376 547 376 547 359 529 c 0
 341 512 341 512 316 512 c 0
 291 512 291 512 273 529 c 0
 256 547 256 547 256 572 c 0
EndSplineSet
EndChar
StartChar: uni0028
Encoding: 40 40 7
Width: 768
VWidth: 0
Flags: HW
LayerCount: 2
Fore
SplineSet
384 828 m 0
 384 853 384 853 401 871 c 0
 419 888 419 888 444 888 c 0
 469 888 469 888 487 871 c 0
 504 853 504 853 504 828 c 0
 504 803 504 803 487 785 c 0
 469 768 469 768 444 768 c 0
 419 768 419 768 401 785 c 0
 384 803 384 803 384 828 c 0
256 700 m 0
 256 725 256 725 273 743 c 0
 291 760 291 760 316 760 c 0
 341 760 341 760 359 743 c 0
 376 725 376 725 376 700 c 0
 376 675 376 675 359 657 c 0
 341 640 341 640 316 640 c 0
 291 640 291 640 273 657 c 0
 256 675 256 675 256 700 c 0
128 572 m 0
 128 597 128 597 145 615 c 0
 163 632 163 632 188 632 c 0
 213 632 213 632 231 615 c 0
 248 597 248 597 248 572 c 0
 248 547 248 547 231 529 c 0
 213 512 213 512 188 512 c 0
 163 512 163 512 145 529 c 0
 128 547 128 547 128 572 c 0
128 444 m 0
 128 469 128 469 145 487 c 0
 163 504 163 504 188 504 c 0
 213 504 213 504 231 487 c 0
 248 469 248 469 248 444 c 0
 248 419 248 419 231 401 c 0
 213 384 213 384 188 384 c 0
 163 384 163 384 145 401 c 0
 128 419 128 419 128 444 c 0
128 316 m 0
 128 341 128 341 145 359 c 0
 163 376 163 376 188 376 c 0
 213 376 213 376 231 359 c 0
 248 341 248 341 248 316 c 0
 248 291 248 291 231 273 c 0
 213 256 213 256 188 256 c 0
 163 256 163 256 145 273 c 0
 128 291 128 291 128 316 c 0
256 188 m 0
 256 213 256 213 273 231 c 0
 291 248 291 248 316 248 c 0
 341 248 341 248 359 231 c 0
 376 213 376 213 376 188 c 0
 376 163 376 163 359 145 c 0
 341 128 341 128 316 128 c 0
 291 128 291 128 273 145 c 0
 256 163 256 163 256 188 c 0
384 60 m 0
 384 85 384 85 401 103 c 0
 419 120 419 120 444 120 c 0
 469 120 469 120 487 103 c 0
 504 85 504 85 504 60 c 0
 504 35 504 35 487 17 c 0
 469 0 469 0 444 0 c 0
 419 0 419 0 401 17 c 0
 384 35 384 35 384 60 c 0
EndSplineSet
EndChar
StartChar: uni0029
Encoding: 41 41 8
Width: 768
VWidth: 0
Flags: HW
LayerCount: 2
Fore
SplineSet
128 828 m 0
 128 853 128 853 145 871 c 0
 163 888 163 888 188 888 c 0
 213 888 213 888 231 871 c 0
 248 853 248 853 248 828 c 0
 248 803 248 803 231 785 c 0
 213 768 213 768 188 768 c 0
 163 768 163 768 145 785 c 0
 128 803 128 803 128 828 c 0
256 700 m 0
 256 725 256 725 273 743 c 0
 291 760 291 760 316 760 c 0
 341 760 341 760 359 743 c 0
 376 725 376 725 376 700 c 0
 376 675 376 675 359 657 c 0
 341 640 341 640 316 640 c 0
 291 640 291 640 273 657 c 0
 256 675 256 675 256 700 c 0
384 572 m 0
 384 597 384 597 401 615 c 0
 419 632 419 632 444 632 c 0
 469 632 469 632 487 615 c 0
 504 597 504 597 504 572 c 0
 504 547 504 547 487 529 c 0
 469 512 469 512 444 512 c 0
 419 512 419 512 401 529 c 0
 384 547 384 547 384 572 c 0
384 444 m 0
 384 469 384 469 401 487 c 0
 419 504 419 504 444 504 c 0
 469 504 469 504 487 487 c 0
 504 469 504 469 504 444 c 0
 504 419 504 419 487 401 c 0
 469 384 469 384 444 384 c 0
 419 384 419 384 401 401 c 0
 384 419 384 419 384 444 c 0
384 316 m 0
 384 341 384 341 401 359 c 0
 419 376 419 376 444 376 c 0
 469 376 469 376 487 359 c 0
 504 341 504 341 504 316 c 0
 504 291 504 291 487 273 c 0
 469 256 469 256 444 256 c 0
 419 256 419 256 401 273 c 0
 384 291 384 291 384 316 c 0
256 188 m 0
 256 213 256 213 273 231 c 0
 291 248 291 248 316 248 c 0
 341 248 341 248 359 231 c 0
 376 213 376 213 376 188 c 0
 376 163 376 163 359 145 c 0
 341 128 341 128 316 128 c 0
 291 128 291 128 273 145 c 0
 256 163 256 163 256 188 c 0
128 60 m 0
 128 85 128 85 145 103 c 0
 163 120 163 120 188 120 c 0
 213 120 213 120 231 103 c 0
 248 85 248 85 248 60 c 0
 248 35 248 35 231 17 c 0
 213 0 213 0 188 0 c 0
 163 0 163 0 145 17 c 0
 128 35 128 35 128 60 c 0
EndSplineSet
EndChar
StartChar: uni002A
Encoding: 42 42 9
Width: 768
VWidth: 0
Flags: HW
LayerCount: 2
Fore
SplineSet
0 828 m 0
 0 853 0 853 17 871 c 0
 35 888 35 888 60 888 c 0
 85 888 85 888 103 871 c 0
 120 853 120 853 120 828 c 0
 120 803 120 803 103 785 c 0
 85 768 85 768 60 768 c 0
 35 768 35 768 17 785 c 0
 0 803 0 803 0 828 c 0
256 828 m 0
 256 853 256 853 273 871 c 0
 291 888 291 888 316 888 c 0
 341 888 341 888 359 871 c 0
 376 853 376 853 376 828 c 0
 376 803 376 803 359 785 c 0
 341 768 341 768 316 768 c 0
 291 768 291 768 273 785 c 0
 256 803 256 803 256 828 c 0
512 828 m 0
 512 853 512 853 529 871 c 0
 547 888 547 888 572 888 c 0
 597 888 597 888 615 871 c 0
 632 853 632 853 632 828 c 0
 632 803 632 803 615 785 c 0
 597 768 597 768 572 768 c 0
 547 768 547 768 529 785 c 0
 512 803 512 803 512 828 c 0
128 700 m 0
 128 725 128 725 145 743 c 0
 163 760 163 760 188 760 c 0
 213 760 213 760 231 743 c 0
 248 725 248 725 248 700 c 0
 248 675 248 675 231 657 c 0
 213 640 213 640 188 640 c 0
 163 640 163 640 145 657 c 0
 128 675 128 675 128 700 c 0
256 700 m 0
 256 725 256 725 273 743 c 0
 291 760 291 760 316 760 c 0
 341 760 341 760 359 743 c 0
 376 725 376 725 376 700 c 0
 376 675 376 675 359 657 c 0
 341 640 341 640 316 640 c 0
 291 640 291 640 273 657 c 0
 256 675 256 675 256 700 c 0
384 700 m 0
 384 725 384 725 401 743 c 0
 419 760 419 760 444 760 c 0
 469 760 469 760 487 743 c 0
 504 725 504 725 504 700 c 0
 504 675 504 675 487 657 c 0
 469 640 469 640 444 640 c 0
 419 640 419 640 401 657 c 0
 384 675 384 675 384 700 c 0
0 572 m 0
 0 597 0 597 17 615 c 0
 35 632 35 632 60 632 c 0
 85 632 85 632 103 615 c 0
 120 597 120 597 120 572 c 0
 120 547 120 547 103 529 c 0
 85 512 85 512 60 512 c 0
 35 512 35 512 17 529 c 0
 0 547 0 547 0 572 c 0
128 572 m 0
 128 597 128 597 145 615 c 0
 163 632 163 632 188 632 c 0
 213 632 213 632 231 615 c 0
 248 597 248 597 248 572 c 0
 248 547 248 547 231 529 c 0
 213 512 213 512 188 512 c 0
 163 512 163 512 145 529 c 0
 128 547 128 547 128 572 c 0
256 572 m 0
 256 597 256 597 273 615 c 0
 291 632 291 632 316 632 c 0
 341 632 341 632 359 615 c 0
 376 597 376 597 376 572 c 0
 376 547 376 547 359 529 c 0
 341 512 341 512 316 512 c 0
 291 512 291 512 273 529 c 0
 256 547 256 547 256 572 c 0
384 572 m 0
 384 597 384 597 401 615 c 0
 419 632 419 632 444 632 c 0
 469 632 469 632 487 615 c 0
 504 597 504 597 504 572 c 0
 504 547 504 547 487 529 c 0
 469 512 469 512 444 512 c 0
 419 512 419 512 401 529 c 0
 384 547 384 547 384 572 c 0
512 572 m 0
 512 597 512 597 529 615 c 0
 547 632 547 632 572 632 c 0
 597 632 597 632 615 615 c 0
 632 597 632 597 632 572 c 0
 632 547 632 547 615 529 c 0
 597 512 597 512 572 512 c 0
 547 512 547 512 529 529 c 0
 512 547 512 547 512 572 c 0
128 444 m 0
 128 469 128 469 145 487 c 0
 163 504 163 504 188 504 c 0
 213 504 213 504 231 487 c 0
 248 469 248 469 248 444 c 0
 248 419 248 419 231 401 c 0
 213 384 213 384 188 384 c 0
 163 384 163 384 145 401 c 0
 128 419 128 419 128 444 c 0
256 444 m 0
 256 469 256 469 273 487 c 0
 291 504 291 504 316 504 c 0
 341 504 341 504 359 487 c 0
 376 469 376 469 376 444 c 0
 376 419 376 419 359 401 c 0
 341 384 341 384 316 384 c 0
 291 384 291 384 273 401 c 0
 256 419 256 419 256 444 c 0
384 444 m 0
 384 469 384 469 401 487 c 0
 419 504 419 504 444 504 c 0
 469 504 469 504 487 487 c 0
 504 469 504 469 504 444 c 0
 504 419 504 419 487 401 c 0
 469 384 469 384 444 384 c 0
 419 384 419 384 401 401 c 0
 384 419 384 419 384 444 c 0
0 316 m 0
 0 341 0 341 17 359 c 0
 35 376 35 376 60 376 c 0
 85 376 85 376 103 359 c 0
 120 341 120 341 120 316 c 0
 120 291 120 291 103 273 c 0
 85 256 85 256 60 256 c 0
 35 256 35 256 17 273 c 0
 0 291 0 291 0 316 c 0
256 316 m 0
 256 341 256 341 273 359 c 0
 291 376 291 376 316 376 c 0
 341 376 341 376 359 359 c 0
 376 341 376 341 376 316 c 0
 376 291 376 291 359 273 c 0
 341 256 341 256 316 256 c 0
 291 256 291 256 273 273 c 0
 256 291 256 291 256 316 c 0
512 316 m 0
 512 341 512 341 529 359 c 0
 547 376 547 376 572 376 c 0
 597 376 597 376 615 359 c 0
 632 341 632 341 632 316 c 0
 632 291 632 291 615 273 c 0
 597 256 597 256 572 256 c 0
 547 256 547 256 529 273 c 0
 512 291 512 291 512 316 c 0
EndSplineSet
EndChar
StartChar: uni002B
Encoding: 43 43 10
Width: 768
VWidth: 0
Flags: HW
LayerCount: 2
Fore
SplineSet
256 700 m 0
 256 725 256 725 273 743 c 0
 291 760 291 760 316 760 c 0
 341 760 341 760 359 743 c 0
 376 725 376 725 376 700 c 0
 376 675 376 675 359 657 c 0
 341 640 341 640 316 640 c 0
 291 640 291 640 273 657 c 0
 256 675 256 675 256 700 c 0
256 572 m 0
 256 597 256 597 273 615 c 0
 291 632 291 632 316 632 c 0
 341 632 341 632 359 615 c 0
 376 597 376 597 376 572 c 0
 376 547 376 547 359 529 c 0
 341 512 341 512 316 512 c 0
 291 512 291 512 273 529 c 0
 256 547 256 547 256 572 c 0
0 444 m 0
 0 469 0 469 17 487 c 0
 35 504 35 504 60 504 c 0
 85 504 85 504 103 487 c 0
 120 469 120 469 120 444 c 0
 120 419 120 419 103 401 c 0
 85 384 85 384 60 384 c 0
 35 384 35 384 17 401 c 0
 0 419 0 419 0 444 c 0
128 444 m 0
 128 469 128 469 145 487 c 0
 163 504 163 504 188 504 c 0
 213 504 213 504 231 487 c 0
 248 469 248 469 248 444 c 0
 248 419 248 419 231 401 c 0
 213 384 213 384 188 384 c 0
 163 384 163 384 145 401 c 0
 128 419 128 419 128 444 c 0
256 444 m 0
 256 469 256 469 273 487 c 0
 291 504 291 504 316 504 c 0
 341 504 341 504 359 487 c 0
 376 469 376 469 376 444 c 0
 376 419 376 419 359 401 c 0
 341 384 341 384 316 384 c 0
 291 384 291 384 273 401 c 0
 256 419 256 419 256 444 c 0
384 444 m 0
 384 469 384 469 401 487 c 0
 419 504 419 504 444 504 c 0
 469 504 469 504 487 487 c 0
 504 469 504 469 504 444 c 0
 504 419 504 419 487 401 c 0
 469 384 469 384 444 384 c 0
 419 384 419 384 401 401 c 0
 384 419 384 419 384 444 c 0
512 444 m 0
 512 469 512 469 529 487 c 0
 547 504 547 504 572 504 c 0
 597 504 597 504 615 487 c 0
 632 469 632 469 632 444 c 0
 632 419 632 419 615 401 c 0
 597 384 597 384 572 384 c 0
 547 384 547 384 529 401 c 0
 512 419 512 419 512 444 c 0
256 316 m 0
 256 341 256 341 273 359 c 0
 291 376 291 376 316 376 c 0
 341 376 341 376 359 359 c 0
 376 341 376 341 376 316 c 0
 376 291 376 291 359 273 c 0
 341 256 341 256 316 256 c 0
 291 256 291 256 273 273 c 0
 256 291 256 291 256 316 c 0
256 188 m 0
 256 213 256 213 273 231 c 0
 291 248 291 248 316 248 c 0
 341 248 341 248 359 231 c 0
 376 213 376 213 376 188 c 0
 376 163 376 163 359 145 c 0
 341 128 341 128 316 128 c 0
 291 128 291 128 273 145 c 0
 256 163 256 163 256 188 c 0
EndSplineSet
EndChar
StartChar: uni002C
Encoding: 44 44 11
Width: 768
VWidth: 0
Flags: HW
LayerCount: 2
Fore
SplineSet
128 444 m 0
 128 469 128 469 145 487 c 0
 163 504 163 504 188 504 c 0
 213 504 213 504 231 487 c 0
 248 469 248 469 248 444 c 0
 248 419 248 419 231 401 c 0
 213 384 213 384 188 384 c 0
 163 384 163 384 145 401 c 0
 128 419 128 419 128 444 c 0
256 444 m 0
 256 469 256 469 273 487 c 0
 291 504 291 504 316 504 c 0
 341 504 341 504 359 487 c 0
 376 469 376 469 376 444 c 0
 376 419 376 419 359 401 c 0
 341 384 341 384 316 384 c 0
 291 384 291 384 273 401 c 0
 256 419 256 419 256 444 c 0
128 316 m 0
 128 341 128 341 145 359 c 0
 163 376 163 376 188 376 c 0
 213 376 213 376 231 359 c 0
 248 341 248 341 248 316 c 0
 248 291 248 291 231 273 c 0
 213 256 213 256 188 256 c 0
 163 256 163 256 145 273 c 0
 128 291 128 291 128 316 c 0
256 316 m 0
 256 341 256 341 273 359 c 0
 291 376 291 376 316 376 c 0
 341 376 341 376 359 359 c 0
 376 341 376 341 376 316 c 0
 376 291 376 291 359 273 c 0
 341 256 341 256 316 256 c 0
 291 256 291 256 273 273 c 0
 256 291 256 291 256 316 c 0
256 188 m 0
 256 213 256 213 273 231 c 0
 291 248 291 248 316 248 c 0
 341 248 341 248 359 231 c 0
 376 213 376 213 376 188 c 0
 376 163 376 163 359 145 c 0
 341 128 341 128 316 128 c 0
 291 128 291 128 273 145 c 0
 256 163 256 163 256 188 c 0
128 60 m 0
 128 85 128 85 145 103 c 0
 163 120 163 120 188 120 c 0
 213 120 213 120 231 103 c 0
 248 85 248 85 248 60 c 0
 248 35 248 35 231 17 c 0
 213 0 213 0 188 0 c 0
 163 0 163 0 145 17 c 0
 128 35 128 35 128 60 c 0
EndSplineSet
EndChar
StartChar: uni002D
Encoding: 45 45 12
Width: 768
VWidth: 0
Flags: HW
LayerCount: 2
Fore
SplineSet
0 316 m 0
 0 341 0 341 17 359 c 0
 35 376 35 376 60 376 c 0
 85 376 85 376 103 359 c 0
 120 341 120 341 120 316 c 0
 120 291 120 291 103 273 c 0
 85 256 85 256 60 256 c 0
 35 256 35 256 17 273 c 0
 0 291 0 291 0 316 c 0
128 316 m 0
 128 341 128 341 145 359 c 0
 163 376 163 376 188 376 c 0
 213 376 213 376 231 359 c 0
 248 341 248 341 248 316 c 0
 248 291 248 291 231 273 c 0
 213 256 213 256 188 256 c 0
 163 256 163 256 145 273 c 0
 128 291 128 291 128 316 c 0
256 316 m 0
 256 341 256 341 273 359 c 0
 291 376 291 376 316 376 c 0
 341 376 341 376 359 359 c 0
 376 341 376 341 376 316 c 0
 376 291 376 291 359 273 c 0
 341 256 341 256 316 256 c 0
 291 256 291 256 273 273 c 0
 256 291 256 291 256 316 c 0
384 316 m 0
 384 341 384 341 401 359 c 0
 419 376 419 376 444 376 c 0
 469 376 469 376 487 359 c 0
 504 341 504 341 504 316 c 0
 504 291 504 291 487 273 c 0
 469 256 469 256 444 256 c 0
 419 256 419 256 401 273 c 0
 384 291 384 291 384 316 c 0
512 316 m 0
 512 341 512 341 529 359 c 0
 547 376 547 376 572 376 c 0
 597 376 597 376 615 359 c 0
 632 341 632 341 632 316 c 0
 632 291 632 291 615 273 c 0
 597 256 597 256 572 256 c 0
 547 256 547 256 529 273 c 0
 512 291 512 291 512 316 c 0
EndSplineSet
EndChar
StartChar: uni002E
Encoding: 46 46 13
Width: 768
VWidth: 0
Flags: HW
LayerCount: 2
Fore
SplineSet
128 188 m 0
 128 213 128 213 145 231 c 0
 163 248 163 248 188 248 c 0
 213 248 213 248 231 231 c 0
 248 213 248 213 248 188 c 0
 248 163 248 163 231 145 c 0
 213 128 213 128 188 128 c 0
 163 128 163 128 145 145 c 0
 128 163 128 163 128 188 c 0
256 188 m 0
 256 213 256 213 273 231 c 0
 291 248 291 248 316 248 c 0
 341 248 341 248 359 231 c 0
 376 213 376 213 376 188 c 0
 376 163 376 163 359 145 c 0
 341 128 341 128 316 128 c 0
 291 128 291 128 273 145 c 0
 256 163 256 163 256 188 c 0
128 60 m 0
 128 85 128 85 145 103 c 0
 163 120 163 120 188 120 c 0
 213 120 213 120 231 103 c 0
 248 85 248 85 248 60 c 0
 248 35 248 35 231 17 c 0
 213 0 213 0 188 0 c 0
 163 0 163 0 145 17 c 0
 128 35 128 35 128 60 c 0
256 60 m 0
 256 85 256 85 273 103 c 0
 291 120 291 120 316 120 c 0
 341 120 341 120 359 103 c 0
 376 85 376 85 376 60 c 0
 376 35 376 35 359 17 c 0
 341 0 341 0 316 0 c 0
 291 0 291 0 273 17 c 0
 256 35 256 35 256 60 c 0
EndSplineSet
EndChar
StartChar: uni002F
Encoding: 47 47 14
Width: 768
VWidth: 0
Flags: HW
LayerCount: 2
Fore
SplineSet
512 700 m 0
 512 725 512 725 529 743 c 0
 547 760 547 760 572 760 c 0
 597 760 597 760 615 743 c 0
 632 725 632 725 632 700 c 0
 632 675 632 675 615 657 c 0
 597 640 597 640 572 640 c 0
 547 640 547 640 529 657 c 0
 512 675 512 675 512 700 c 0
384 572 m 0
 384 597 384 597 401 615 c 0
 419 632 419 632 444 632 c 0
 469 632 469 632 487 615 c 0
 504 597 504 597 504 572 c 0
 504 547 504 547 487 529 c 0
 469 512 469 512 444 512 c 0
 419 512 419 512 401 529 c 0
 384 547 384 547 384 572 c 0
256 444 m 0
 256 469 256 469 273 487 c 0
 291 504 291 504 316 504 c 0
 341 504 341 504 359 487 c 0
 376 469 376 469 376 444 c 0
 376 419 376 419 359 401 c 0
 341 384 341 384 316 384 c 0
 291 384 291 384 273 401 c 0
 256 419 256 419 256 444 c 0
128 316 m 0
 128 341 128 341 145 359 c 0
 163 376 163 376 188 376 c 0
 213 376 213 376 231 359 c 0
 248 341 248 341 248 316 c 0
 248 291 248 291 231 273 c 0
 213 256 213 256 188 256 c 0
 163 256 163 256 145 273 c 0
 128 291 128 291 128 316 c 0
0 188 m 0
 0 213 0 213 17 231 c 0
 35 248 35 248 60 248 c 0
 85 248 85 248 103 231 c 0
 120 213 120 213 120 188 c 0
 120 163 120 163 103 145 c 0
 85 128 85 128 60 128 c 0
 35 128 35 128 17 145 c 0
 0 163 0 163 0 188 c 0
EndSplineSet
EndChar
StartChar: uni0030
Encoding: 48 48 15
Width: 768
VWidth: 0
Flags: HW
LayerCount: 2
Fore
SplineSet
256 828 m 0
 256 853 256 853 273 871 c 0
 291 888 291 888 316 888 c 0
 341 888 341 888 359 871 c 0
 376 853 376 853 376 828 c 0
 376 803 376 803 359 785 c 0
 341 768 341 768 316 768 c 0
 291 768 291 768 273 785 c 0
 256 803 256 803 256 828 c 0
384 828 m 0
 384 853 384 853 401 871 c 0
 419 888 419 888 444 888 c 0
 469 888 469 888 487 871 c 0
 504 853 504 853 504 828 c 0
 504 803 504 803 487 785 c 0
 469 768 469 768 444 768 c 0
 419 768 419 768 401 785 c 0
 384 803 384 803 384 828 c 0
128 700 m 0
 128 725 128 725 145 743 c 0
 163 760 163 760 188 760 c 0
 213 760 213 760 231 743 c 0
 248 725 248 725 248 700 c 0
 248 675 248 675 231 657 c 0
 213 640 213 640 188 640 c 0
 163 640 163 640 145 657 c 0
 128 675 128 675 128 700 c 0
512 700 m 0
 512 725 512 725 529 743 c 0
 547 760 547 760 572 760 c 0
 597 760 597 760 615 743 c 0
 632 725 632 725 632 700 c 0
 632 675 632 675 615 657 c 0
 597 640 597 640 572 640 c 0
 547 640 547 640 529 657 c 0
 512 675 512 675 512 700 c 0
128 572 m 0
 128 597 128 597 145 615 c 0
 163 632 163 632 188 632 c 0
 213 632 213 632 231 615 c 0
 248 597 248 597 248 572 c 0
 248 547 248 547 231 529 c 0
 213 512 213 512 188 512 c 0
 163 512 163 512 145 529 c 0
 128 547 128 547 128 572 c 0
512 572 m 0
 512 597 512 597 529 615 c 0
 547 632 547 632 572 632 c 0
 597 632 597 632 615 615 c 0
 632 597 632 597 632 572 c 0
 632 547 632 547 615 529 c 0
 597 512 597 512 572 512 c 0
 547 512 547 512 529 529 c 0
 512 547 512 547 512 572 c 0
128 444 m 0
 128 469 128 469 145 487 c 0
 163 504 163 504 188 504 c 0
 213 504 213 504 231 487 c 0
 248 469 248 469 248 444 c 0
 248 419 248 419 231 401 c 0
 213 384 213 384 188 384 c 0
 163 384 163 384 145 401 c 0
 128 419 128 419 128 444 c 0
512 444 m 0
 512 469 512 469 529 487 c 0
 547 504 547 504 572 504 c 0
 597 504 597 504 615 487 c 0
 632 469 632 469 632 444 c 0
 632 419 632 419 615 401 c 0
 597 384 597 384 572 384 c 0
 547 384 547 384 529 401 c 0
 512 419 512 419 512 444 c 0
128 316 m 0
 128 341 128 341 145 359 c 0
 163 376 163 376 188 376 c 0
 213 376 213 376 231 359 c 0
 248 341 248 341 248 316 c 0
 248 291 248 291 231 273 c 0
 213 256 213 256 188 256 c 0
 163 256 163 256 145 273 c 0
 128 291 128 291 128 316 c 0
512 316 m 0
 512 341 512 341 529 359 c 0
 547 376 547 376 572 376 c 0
 597 376 597 376 615 359 c 0
 632 341 632 341 632 316 c 0
 632 291 632 291 615 273 c 0
 597 256 597 256 572 256 c 0
 547 256 547 256 529 273 c 0
 512 291 512 291 512 316 c 0
128 188 m 0
 128 213 128 213 145 231 c 0
 163 248 163 248 188 248 c 0
 213 248 213 248 231 231 c 0
 248 213 248 213 248 188 c 0
 248 163 248 163 231 145 c 0
 213 128 213 128 188 128 c 0
 163 128 163 128 145 145 c 0
 128 163 128 163 128 188 c 0
512 188 m 0
 512 213 512 213 529 231 c 0
 547 248 547 248 572 248 c 0
 597 248 597 248 615 231 c 0
 632 213 632 213 632 188 c 0
 632 163 632 163 615 145 c 0
 597 128 597 128 572 128 c 0
 547 128 547 128 529 145 c 0
 512 163 512 163 512 188 c 0
256 60 m 0
 256 85 256 85 273 103 c 0
 291 120 291 120 316 120 c 0
 341 120 341 120 359 103 c 0
 376 85 376 85 376 60 c 0
 376 35 376 35 359 17 c 0
 341 0 341 0 316 0 c 0
 291 0 291 0 273 17 c 0
 256 35 256 35 256 60 c 0
384 60 m 0
 384 85 384 85 401 103 c 0
 419 120 419 120 444 120 c 0
 469 120 469 120 487 103 c 0
 504 85 504 85 504 60 c 0
 504 35 504 35 487 17 c 0
 469 0 469 0 444 0 c 0
 419 0 419 0 401 17 c 0
 384 35 384 35 384 60 c 0
EndSplineSet
EndChar
StartChar: uni0031
Encoding: 49 49 16
Width: 768
VWidth: 0
Flags: HW
LayerCount: 2
Fore
SplineSet
256 828 m 0
 256 853 256 853 273 871 c 0
 291 888 291 888 316 888 c 0
 341 888 341 888 359 871 c 0
 376 853 376 853 376 828 c 0
 376 803 376 803 359 785 c 0
 341 768 341 768 316 768 c 0
 291 768 291 768 273 785 c 0
 256 803 256 803 256 828 c 0
128 700 m 0
 128 725 128 725 145 743 c 0
 163 760 163 760 188 760 c 0
 213 760 213 760 231 743 c 0
 248 725 248 725 248 700 c 0
 248 675 248 675 231 657 c 0
 213 640 213 640 188 640 c 0
 163 640 163 640 145 657 c 0
 128 675 128 675 128 700 c 0
256 700 m 0
 256 725 256 725 273 743 c 0
 291 760 291 760 316 760 c 0
 341 760 341 760 359 743 c 0
 376 725 376 725 376 700 c 0
 376 675 376 675 359 657 c 0
 341 640 341 640 316 640 c 0
 291 640 291 640 273 657 c 0
 256 675 256 675 256 700 c 0
256 572 m 0
 256 597 256 597 273 615 c 0
 291 632 291 632 316 632 c 0
 341 632 341 632 359 615 c 0
 376 597 376 597 376 572 c 0
 376 547 376 547 359 529 c 0
 341 512 341 512 316 512 c 0
 291 512 291 512 273 529 c 0
 256 547 256 547 256 572 c 0
256 444 m 0
 256 469 256 469 273 487 c 0
 291 504 291 504 316 504 c 0
 341 504 341 504 359 487 c 0
 376 469 376 469 376 444 c 0
 376 419 376 419 359 401 c 0
 341 384 341 384 316 384 c 0
 291 384 291 384 273 401 c 0
 256 419 256 419 256 444 c 0
256 316 m 0
 256 341 256 341 273 359 c 0
 291 376 291 376 316 376 c 0
 341 376 341 376 359 359 c 0
 376 341 376 341 376 316 c 0
 376 291 376 291 359 273 c 0
 341 256 341 256 316 256 c 0
 291 256 291 256 273 273 c 0
 256 291 256 291 256 316 c 0
256 188 m 0
 256 213 256 213 273 231 c 0
 291 248 291 248 316 248 c 0
 341 248 341 248 359 231 c 0
 376 213 376 213 376 188 c 0
 376 163 376 163 359 145 c 0
 341 128 341 128 316 128 c 0
 291 128 291 128 273 145 c 0
 256 163 256 163 256 188 c 0
128 60 m 0
 128 85 128 85 145 103 c 0
 163 120 163 120 188 120 c 0
 213 120 213 120 231 103 c 0
 248 85 248 85 248 60 c 0
 248 35 248 35 231 17 c 0
 213 0 213 0 188 0 c 0
 163 0 163 0 145 17 c 0
 128 35 128 35 128 60 c 0
256 60 m 0
 256 85 256 85 273 103 c 0
 291 120 291 120 316 120 c 0
 341 120 341 120 359 103 c 0
 376 85 376 85 376 60 c 0
 376 35 376 35 359 17 c 0
 341 0 341 0 316 0 c 0
 291 0 291 0 273 17 c 0
 256 35 256 35 256 60 c 0
384 60 m 0
 384 85 384 85 401 103 c 0
 419 120 419 120 444 120 c 0
 469 120 469 120 487 103 c 0
 504 85 504 85 504 60 c 0
 504 35 504 35 487 17 c 0
 469 0 469 0 444 0 c 0
 419 0 419 0 401 17 c 0
 384 35 384 35 384 60 c 0
EndSplineSet
EndChar
StartChar: uni0032
Encoding: 50 50 17
Width: 768
VWidth: 0
Flags: HW
LayerCount: 2
Fore
SplineSet
128 828 m 0
 128 853 128 853 145 871 c 0
 163 888 163 888 188 888 c 0
 213 888 213 888 231 871 c 0
 248 853 248 853 248 828 c 0
 248 803 248 803 231 785 c 0
 213 768 213 768 188 768 c 0
 163 768 163 768 145 785 c 0
 128 803 128 803 128 828 c 0
256 828 m 0
 256 853 256 853 273 871 c 0
 291 888 291 888 316 888 c 0
 341 888 341 888 359 871 c 0
 376 853 376 853 376 828 c 0
 376 803 376 803 359 785 c 0
 341 768 341 768 316 768 c 0
 291 768 291 768 273 785 c 0
 256 803 256 803 256 828 c 0
384 828 m 0
 384 853 384 853 401 871 c 0
 419 888 419 888 444 888 c 0
 469 888 469 888 487 871 c 0
 504 853 504 853 504 828 c 0
 504 803 504 803 487 785 c 0
 469 768 469 768 444 768 c 0
 419 768 419 768 401 785 c 0
 384 803 384 803 384 828 c 0
0 700 m 0
 0 725 0 725 17 743 c 0
 35 760 35 760 60 760 c 0
 85 760 85 760 103 743 c 0
 120 725 120 725 120 700 c 0
 120 675 120 675 103 657 c 0
 85 640 85 640 60 640 c 0
 35 640 35 640 17 657 c 0
 0 675 0 675 0 700 c 0
512 700 m 0
 512 725 512 725 529 743 c 0
 547 760 547 760 572 760 c 0
 597 760 597 760 615 743 c 0
 632 725 632 725 632 700 c 0
 632 675 632 675 615 657 c 0
 597 640 597 640 572 640 c 0
 547 640 547 640 529 657 c 0
 512 675 512 675 512 700 c 0
512 572 m 0
 512 597 512 597 529 615 c 0
 547 632 547 632 572 632 c 0
 597 632 597 632 615 615 c 0
 632 597 632 597 632 572 c 0
 632 547 632 547 615 529 c 0
 597 512 597 512 572 512 c 0
 547 512 547 512 529 529 c 0
 512 547 512 547 512 572 c 0
128 444 m 0
 128 469 128 469 145 487 c 0
 163 504 163 504 188 504 c 0
 213 504 213 504 231 487 c 0
 248 469 248 469 248 444 c 0
 248 419 248 419 231 401 c 0
 213 384 213 384 188 384 c 0
 163 384 163 384 145 401 c 0
 128 419 128 419 128 444 c 0
256 444 m 0
 256 469 256 469 273 487 c 0
 291 504 291 504 316 504 c 0
 341 504 341 504 359 487 c 0
 376 469 376 469 376 444 c 0
 376 419 376 419 359 401 c 0
 341 384 341 384 316 384 c 0
 291 384 291 384 273 401 c 0
 256 419 256 419 256 444 c 0
384 444 m 0
 384 469 384 469 401 487 c 0
 419 504 419 504 444 504 c 0
 469 504 469 504 487 487 c 0
 504 469 504 469 504 444 c 0
 504 419 504 419 487 401 c 0
 469 384 469 384 444 384 c 0
 419 384 419 384 401 401 c 0
 384 419 384 419 384 444 c 0
0 316 m 0
 0 341 0 341 17 359 c 0
 35 376 35 376 60 376 c 0
 85 376 85 376 103 359 c 0
 120 341 120 341 120 316 c 0
 120 291 120 291 103 273 c 0
 85 256 85 256 60 256 c 0
 35 256 35 256 17 273 c 0
 0 291 0 291 0 316 c 0
0 188 m 0
 0 213 0 213 17 231 c 0
 35 248 35 248 60 248 c 0
 85 248 85 248 103 231 c 0
 120 213 120 213 120 188 c 0
 120 163 120 163 103 145 c 0
 85 128 85 128 60 128 c 0
 35 128 35 128 17 145 c 0
 0 163 0 163 0 188 c 0
0 60 m 0
 0 85 0 85 17 103 c 0
 35 120 35 120 60 120 c 0
 85 120 85 120 103 103 c 0
 120 85 120 85 120 60 c 0
 120 35 120 35 103 17 c 0
 85 0 85 0 60 0 c 0
 35 0 35 0 17 17 c 0
 0 35 0 35 0 60 c 0
128 60 m 0
 128 85 128 85 145 103 c 0
 163 120 163 120 188 120 c 0
 213 120 213 120 231 103 c 0
 248 85 248 85 248 60 c 0
 248 35 248 35 231 17 c 0
 213 0 213 0 188 0 c 0
 163 0 163 0 145 17 c 0
 128 35 128 35 128 60 c 0
256 60 m 0
 256 85 256 85 273 103 c 0
 291 120 291 120 316 120 c 0
 341 120 341 120 359 103 c 0
 376 85 376 85 376 60 c 0
 376 35 376 35 359 17 c 0
 341 0 341 0 316 0 c 0
 291 0 291 0 273 17 c 0
 256 35 256 35 256 60 c 0
384 60 m 0
 384 85 384 85 401 103 c 0
 419 120 419 120 444 120 c 0
 469 120 469 120 487 103 c 0
 504 85 504 85 504 60 c 0
 504 35 504 35 487 17 c 0
 469 0 469 0 444 0 c 0
 419 0 419 0 401 17 c 0
 384 35 384 35 384 60 c 0
512 60 m 0
 512 85 512 85 529 103 c 0
 547 120 547 120 572 120 c 0
 597 120 597 120 615 103 c 0
 632 85 632 85 632 60 c 0
 632 35 632 35 615 17 c 0
 597 0 597 0 572 0 c 0
 547 0 547 0 529 17 c 0
 512 35 512 35 512 60 c 0
EndSplineSet
EndChar
StartChar: uni0033
Encoding: 51 51 18
Width: 768
VWidth: 0
Flags: HW
LayerCount: 2
Fore
SplineSet
128 828 m 0
 128 853 128 853 145 871 c 0
 163 888 163 888 188 888 c 0
 213 888 213 888 231 871 c 0
 248 853 248 853 248 828 c 0
 248 803 248 803 231 785 c 0
 213 768 213 768 188 768 c 0
 163 768 163 768 145 785 c 0
 128 803 128 803 128 828 c 0
256 828 m 0
 256 853 256 853 273 871 c 0
 291 888 291 888 316 888 c 0
 341 888 341 888 359 871 c 0
 376 853 376 853 376 828 c 0
 376 803 376 803 359 785 c 0
 341 768 341 768 316 768 c 0
 291 768 291 768 273 785 c 0
 256 803 256 803 256 828 c 0
384 828 m 0
 384 853 384 853 401 871 c 0
 419 888 419 888 444 888 c 0
 469 888 469 888 487 871 c 0
 504 853 504 853 504 828 c 0
 504 803 504 803 487 785 c 0
 469 768 469 768 444 768 c 0
 419 768 419 768 401 785 c 0
 384 803 384 803 384 828 c 0
0 700 m 0
 0 725 0 725 17 743 c 0
 35 760 35 760 60 760 c 0
 85 760 85 760 103 743 c 0
 120 725 120 725 120 700 c 0
 120 675 120 675 103 657 c 0
 85 640 85 640 60 640 c 0
 35 640 35 640 17 657 c 0
 0 675 0 675 0 700 c 0
512 700 m 0
 512 725 512 725 529 743 c 0
 547 760 547 760 572 760 c 0
 597 760 597 760 615 743 c 0
 632 725 632 725 632 700 c 0
 632 675 632 675 615 657 c 0
 597 640 597 640 572 640 c 0
 547 640 547 640 529 657 c 0
 512 675 512 675 512 700 c 0
512 572 m 0
 512 597 512 597 529 615 c 0
 547 632 547 632 572 632 c 0
 597 632 597 632 615 615 c 0
 632 597 632 597 632 572 c 0
 632 547 632 547 615 529 c 0
 597 512 597 512 572 512 c 0
 547 512 547 512 529 529 c 0
 512 547 512 547 512 572 c 0
256 444 m 0
 256 469 256 469 273 487 c 0
 291 504 291 504 316 504 c 0
 341 504 341 504 359 487 c 0
 376 469 376 469 376 444 c 0
 376 419 376 419 359 401 c 0
 341 384 341 384 316 384 c 0
 291 384 291 384 273 401 c 0
 256 419 256 419 256 444 c 0
384 444 m 0
 384 469 384 469 401 487 c 0
 419 504 419 504 444 504 c 0
 469 504 469 504 487 487 c 0
 504 469 504 469 504 444 c 0
 504 419 504 419 487 401 c 0
 469 384 469 384 444 384 c 0
 419 384 419 384 401 401 c 0
 384 419 384 419 384 444 c 0
512 316 m 0
 512 341 512 341 529 359 c 0
 547 376 547 376 572 376 c 0
 597 376 597 376 615 359 c 0
 632 341 632 341 632 316 c 0
 632 291 632 291 615 273 c 0
 597 256 597 256 572 256 c 0
 547 256 547 256 529 273 c 0
 512 291 512 291 512 316 c 0
0 188 m 0
 0 213 0 213 17 231 c 0
 35 248 35 248 60 248 c 0
 85 248 85 248 103 231 c 0
 120 213 120 213 120 188 c 0
 120 163 120 163 103 145 c 0
 85 128 85 128 60 128 c 0
 35 128 35 128 17 145 c 0
 0 163 0 163 0 188 c 0
512 188 m 0
 512 213 512 213 529 231 c 0
 547 248 547 248 572 248 c 0
 597 248 597 248 615 231 c 0
 632 213 632 213 632 188 c 0
 632 163 632 163 615 145 c 0
 597 128 597 128 572 128 c 0
 547 128 547 128 529 145 c 0
 512 163 512 163 512 188 c 0
128 60 m 0
 128 85 128 85 145 103 c 0
 163 120 163 120 188 120 c 0
 213 120 213 120 231 103 c 0
 248 85 248 85 248 60 c 0
 248 35 248 35 231 17 c 0
 213 0 213 0 188 0 c 0
 163 0 163 0 145 17 c 0
 128 35 128 35 128 60 c 0
256 60 m 0
 256 85 256 85 273 103 c 0
 291 120 291 120 316 120 c 0
 341 120 341 120 359 103 c 0
 376 85 376 85 376 60 c 0
 376 35 376 35 359 17 c 0
 341 0 341 0 316 0 c 0
 291 0 291 0 273 17 c 0
 256 35 256 35 256 60 c 0
384 60 m 0
 384 85 384 85 401 103 c 0
 419 120 419 120 444 120 c 0
 469 120 469 120 487 103 c 0
 504 85 504 85 504 60 c 0
 504 35 504 35 487 17 c 0
 469 0 469 0 444 0 c 0
 419 0 419 0 401 17 c 0
 384 35 384 35 384 60 c 0
EndSplineSet
EndChar
StartChar: uni0034
Encoding: 52 52 19
Width: 768
VWidth: 0
Flags: HW
LayerCount: 2
Fore
SplineSet
384 828 m 0
 384 853 384 853 401 871 c 0
 419 888 419 888 444 888 c 0
 469 888 469 888 487 871 c 0
 504 853 504 853 504 828 c 0
 504 803 504 803 487 785 c 0
 469 768 469 768 444 768 c 0
 419 768 419 768 401 785 c 0
 384 803 384 803 384 828 c 0
256 700 m 0
 256 725 256 725 273 743 c 0
 291 760 291 760 316 760 c 0
 341 760 341 760 359 743 c 0
 376 725 376 725 376 700 c 0
 376 675 376 675 359 657 c 0
 341 640 341 640 316 640 c 0
 291 640 291 640 273 657 c 0
 256 675 256 675 256 700 c 0
384 700 m 0
 384 725 384 725 401 743 c 0
 419 760 419 760 444 760 c 0
 469 760 469 760 487 743 c 0
 504 725 504 725 504 700 c 0
 504 675 504 675 487 657 c 0
 469 640 469 640 444 640 c 0
 419 640 419 640 401 657 c 0
 384 675 384 675 384 700 c 0
128 572 m 0
 128 597 128 597 145 615 c 0
 163 632 163 632 188 632 c 0
 213 632 213 632 231 615 c 0
 248 597 248 597 248 572 c 0
 248 547 248 547 231 529 c 0
 213 512 213 512 188 512 c 0
 163 512 163 512 145 529 c 0
 128 547 128 547 128 572 c 0
384 572 m 0
 384 597 384 597 401 615 c 0
 419 632 419 632 444 632 c 0
 469 632 469 632 487 615 c 0
 504 597 504 597 504 572 c 0
 504 547 504 547 487 529 c 0
 469 512 469 512 444 512 c 0
 419 512 419 512 401 529 c 0
 384 547 384 547 384 572 c 0
0 444 m 0
 0 469 0 469 17 487 c 0
 35 504 35 504 60 504 c 0
 85 504 85 504 103 487 c 0
 120 469 120 469 120 444 c 0
 120 419 120 419 103 401 c 0
 85 384 85 384 60 384 c 0
 35 384 35 384 17 401 c 0
 0 419 0 419 0 444 c 0
384 444 m 0
 384 469 384 469 401 487 c 0
 419 504 419 504 444 504 c 0
 469 504 469 504 487 487 c 0
 504 469 504 469 504 444 c 0
 504 419 504 419 487 401 c 0
 469 384 469 384 444 384 c 0
 419 384 419 384 401 401 c 0
 384 419 384 419 384 444 c 0
0 316 m 0
 0 341 0 341 17 359 c 0
 35 376 35 376 60 376 c 0
 85 376 85 376 103 359 c 0
 120 341 120 341 120 316 c 0
 120 291 120 291 103 273 c 0
 85 256 85 256 60 256 c 0
 35 256 35 256 17 273 c 0
 0 291 0 291 0 316 c 0
128 316 m 0
 128 341 128 341 145 359 c 0
 163 376 163 376 188 376 c 0
 213 376 213 376 231 359 c 0
 248 341 248 341 248 316 c 0
 248 291 248 291 231 273 c 0
 213 256 213 256 188 256 c 0
 163 256 163 256 145 273 c 0
 128 291 128 291 128 316 c 0
256 316 m 0
 256 341 256 341 273 359 c 0
 291 376 291 376 316 376 c 0
 341 376 341 376 359 359 c 0
 376 341 376 341 376 316 c 0
 376 291 376 291 359 273 c 0
 341 256 341 256 316 256 c 0
 291 256 291 256 273 273 c 0
 256 291 256 291 256 316 c 0
384 316 m 0
 384 341 384 341 401 359 c 0
 419 376 419 376 444 376 c 0
 469 376 469 376 487 359 c 0
 504 341 504 341 504 316 c 0
 504 291 504 291 487 273 c 0
 469 256 469 256 444 256 c 0
 419 256 419 256 401 273 c 0
 384 291 384 291 384 316 c 0
512 316 m 0
 512 341 512 341 529 359 c 0
 547 376 547 376 572 376 c 0
 597 376 597 376 615 359 c 0
 632 341 632 341 632 316 c 0
 632 291 632 291 615 273 c 0
 597 256 597 256 572 256 c 0
 547 256 547 256 529 273 c 0
 512 291 512 291 512 316 c 0
384 188 m 0
 384 213 384 213 401 231 c 0
 419 248 419 248 444 248 c 0
 469 248 469 248 487 231 c 0
 504 213 504 213 504 188 c 0
 504 163 504 163 487 145 c 0
 469 128 469 128 444 128 c 0
 419 128 419 128 401 145 c 0
 384 163 384 163 384 188 c 0
384 60 m 0
 384 85 384 85 401 103 c 0
 419 120 419 120 444 120 c 0
 469 120 469 120 487 103 c 0
 504 85 504 85 504 60 c 0
 504 35 504 35 487 17 c 0
 469 0 469 0 444 0 c 0
 419 0 419 0 401 17 c 0
 384 35 384 35 384 60 c 0
EndSplineSet
EndChar
StartChar: uni0035
Encoding: 53 53 20
Width: 768
VWidth: 0
Flags: HW
LayerCount: 2
Fore
SplineSet
0 828 m 0
 0 853 0 853 17 871 c 0
 35 888 35 888 60 888 c 0
 85 888 85 888 103 871 c 0
 120 853 120 853 120 828 c 0
 120 803 120 803 103 785 c 0
 85 768 85 768 60 768 c 0
 35 768 35 768 17 785 c 0
 0 803 0 803 0 828 c 0
128 828 m 0
 128 853 128 853 145 871 c 0
 163 888 163 888 188 888 c 0
 213 888 213 888 231 871 c 0
 248 853 248 853 248 828 c 0
 248 803 248 803 231 785 c 0
 213 768 213 768 188 768 c 0
 163 768 163 768 145 785 c 0
 128 803 128 803 128 828 c 0
256 828 m 0
 256 853 256 853 273 871 c 0
 291 888 291 888 316 888 c 0
 341 888 341 888 359 871 c 0
 376 853 376 853 376 828 c 0
 376 803 376 803 359 785 c 0
 341 768 341 768 316 768 c 0
 291 768 291 768 273 785 c 0
 256 803 256 803 256 828 c 0
384 828 m 0
 384 853 384 853 401 871 c 0
 419 888 419 888 444 888 c 0
 469 888 469 888 487 871 c 0
 504 853 504 853 504 828 c 0
 504 803 504 803 487 785 c 0
 469 768 469 768 444 768 c 0
 419 768 419 768 401 785 c 0
 384 803 384 803 384 828 c 0
512 828 m 0
 512 853 512 853 529 871 c 0
 547 888 547 888 572 888 c 0
 597 888 597 888 615 871 c 0
 632 853 632 853 632 828 c 0
 632 803 632 803 615 785 c 0
 597 768 597 768 572 768 c 0
 547 768 547 768 529 785 c 0
 512 803 512 803 512 828 c 0
0 700 m 0
 0 725 0 725 17 743 c 0
 35 760 35 760 60 760 c 0
 85 760 85 760 103 743 c 0
 120 725 120 725 120 700 c 0
 120 675 120 675 103 657 c 0
 85 640 85 640 60 640 c 0
 35 640 35 640 17 657 c 0
 0 675 0 675 0 700 c 0
0 572 m 0
 0 597 0 597 17 615 c 0
 35 632 35 632 60 632 c 0
 85 632 85 632 103 615 c 0
 120 597 120 597 120 572 c 0
 120 547 120 547 103 529 c 0
 85 512 85 512 60 512 c 0
 35 512 35 512 17 529 c 0
 0 547 0 547 0 572 c 0
128 572 m 0
 128 597 128 597 145 615 c 0
 163 632 163 632 188 632 c 0
 213 632 213 632 231 615 c 0
 248 597 248 597 248 572 c 0
 248 547 248 547 231 529 c 0
 213 512 213 512 188 512 c 0
 163 512 163 512 145 529 c 0
 128 547 128 547 128 572 c 0
256 572 m 0
 256 597 256 597 273 615 c 0
 291 632 291 632 316 632 c 0
 341 632 341 632 359 615 c 0
 376 597 376 597 376 572 c 0
 376 547 376 547 359 529 c 0
 341 512 341 512 316 512 c 0
 291 512 291 512 273 529 c 0
 256 547 256 547 256 572 c 0
384 572 m 0
 384 597 384 597 401 615 c 0
 419 632 419 632 444 632 c 0
 469 632 469 632 487 615 c 0
 504 597 504 597 504 572 c 0
 504 547 504 547 487 529 c 0
 469 512 469 512 444 512 c 0
 419 512 419 512 401 529 c 0
 384 547 384 547 384 572 c 0
512 444 m 0
 512 469 512 469 529 487 c 0
 547 504 547 504 572 504 c 0
 597 504 597 504 615 487 c 0
 632 469 632 469 632 444 c 0
 632 419 632 419 615 401 c 0
 597 384 597 384 572 384 c 0
 547 384 547 384 529 401 c 0
 512 419 512 419 512 444 c 0
512 316 m 0
 512 341 512 341 529 359 c 0
 547 376 547 376 572 376 c 0
 597 376 597 376 615 359 c 0
 632 341 632 341 632 316 c 0
 632 291 632 291 615 273 c 0
 597 256 597 256 572 256 c 0
 547 256 547 256 529 273 c 0
 512 291 512 291 512 316 c 0
0 188 m 0
 0 213 0 213 17 231 c 0
 35 248 35 248 60 248 c 0
 85 248 85 248 103 231 c 0
 120 213 120 213 120 188 c 0
 120 163 120 163 103 145 c 0
 85 128 85 128 60 128 c 0
 35 128 35 128 17 145 c 0
 0 163 0 163 0 188 c 0
512 188 m 0
 512 213 512 213 529 231 c 0
 547 248 547 248 572 248 c 0
 597 248 597 248 615 231 c 0
 632 213 632 213 632 188 c 0
 632 163 632 163 615 145 c 0
 597 128 597 128 572 128 c 0
 547 128 547 128 529 145 c 0
 512 163 512 163 512 188 c 0
128 60 m 0
 128 85 128 85 145 103 c 0
 163 120 163 120 188 120 c 0
 213 120 213 120 231 103 c 0
 248 85 248 85 248 60 c 0
 248 35 248 35 231 17 c 0
 213 0 213 0 188 0 c 0
 163 0 163 0 145 17 c 0
 128 35 128 35 128 60 c 0
256 60 m 0
 256 85 256 85 273 103 c 0
 291 120 291 120 316 120 c 0
 341 120 341 120 359 103 c 0
 376 85 376 85 376 60 c 0
 376 35 376 35 359 17 c 0
 341 0 341 0 316 0 c 0
 291 0 291 0 273 17 c 0
 256 35 256 35 256 60 c 0
384 60 m 0
 384 85 384 85 401 103 c 0
 419 120 419 120 444 120 c 0
 469 120 469 120 487 103 c 0
 504 85 504 85 504 60 c 0
 504 35 504 35 487 17 c 0
 469 0 469 0 444 0 c 0
 419 0 419 0 401 17 c 0
 384 35 384 35 384 60 c 0
EndSplineSet
EndChar
StartChar: uni0036
Encoding: 54 54 21
Width: 768
VWidth: 0
Flags: HW
LayerCount: 2
Fore
SplineSet
256 828 m 0
 256 853 256 853 273 871 c 0
 291 888 291 888 316 888 c 0
 341 888 341 888 359 871 c 0
 376 853 376 853 376 828 c 0
 376 803 376 803 359 785 c 0
 341 768 341 768 316 768 c 0
 291 768 291 768 273 785 c 0
 256 803 256 803 256 828 c 0
384 828 m 0
 384 853 384 853 401 871 c 0
 419 888 419 888 444 888 c 0
 469 888 469 888 487 871 c 0
 504 853 504 853 504 828 c 0
 504 803 504 803 487 785 c 0
 469 768 469 768 444 768 c 0
 419 768 419 768 401 785 c 0
 384 803 384 803 384 828 c 0
128 700 m 0
 128 725 128 725 145 743 c 0
 163 760 163 760 188 760 c 0
 213 760 213 760 231 743 c 0
 248 725 248 725 248 700 c 0
 248 675 248 675 231 657 c 0
 213 640 213 640 188 640 c 0
 163 640 163 640 145 657 c 0
 128 675 128 675 128 700 c 0
0 572 m 0
 0 597 0 597 17 615 c 0
 35 632 35 632 60 632 c 0
 85 632 85 632 103 615 c 0
 120 597 120 597 120 572 c 0
 120 547 120 547 103 529 c 0
 85 512 85 512 60 512 c 0
 35 512 35 512 17 529 c 0
 0 547 0 547 0 572 c 0
0 444 m 0
 0 469 0 469 17 487 c 0
 35 504 35 504 60 504 c 0
 85 504 85 504 103 487 c 0
 120 469 120 469 120 444 c 0
 120 419 120 419 103 401 c 0
 85 384 85 384 60 384 c 0
 35 384 35 384 17 401 c 0
 0 419 0 419 0 444 c 0
128 444 m 0
 128 469 128 469 145 487 c 0
 163 504 163 504 188 504 c 0
 213 504 213 504 231 487 c 0
 248 469 248 469 248 444 c 0
 248 419 248 419 231 401 c 0
 213 384 213 384 188 384 c 0
 163 384 163 384 145 401 c 0
 128 419 128 419 128 444 c 0
256 444 m 0
 256 469 256 469 273 487 c 0
 291 504 291 504 316 504 c 0
 341 504 341 504 359 487 c 0
 376 469 376 469 376 444 c 0
 376 419 376 419 359 401 c 0
 341 384 341 384 316 384 c 0
 291 384 291 384 273 401 c 0
 256 419 256 419 256 444 c 0
384 444 m 0
 384 469 384 469 401 487 c 0
 419 504 419 504 444 504 c 0
 469 504 469 504 487 487 c 0
 504 469 504 469 504 444 c 0
 504 419 504 419 487 401 c 0
 469 384 469 384 444 384 c 0
 419 384 419 384 401 401 c 0
 384 419 384 419 384 444 c 0
0 316 m 0
 0 341 0 341 17 359 c 0
 35 376 35 376 60 376 c 0
 85 376 85 376 103 359 c 0
 120 341 120 341 120 316 c 0
 120 291 120 291 103 273 c 0
 85 256 85 256 60 256 c 0
 35 256 35 256 17 273 c 0
 0 291 0 291 0 316 c 0
512 316 m 0
 512 341 512 341 529 359 c 0
 547 376 547 376 572 376 c 0
 597 376 597 376 615 359 c 0
 632 341 632 341 632 316 c 0
 632 291 632 291 615 273 c 0
 597 256 597 256 572 256 c 0
 547 256 547 256 529 273 c 0
 512 291 512 291 512 316 c 0
0 188 m 0
 0 213 0 213 17 231 c 0
 35 248 35 248 60 248 c 0
 85 248 85 248 103 231 c 0
 120 213 120 213 120 188 c 0
 120 163 120 163 103 145 c 0
 85 128 85 128 60 128 c 0
 35 128 35 128 17 145 c 0
 0 163 0 163 0 188 c 0
512 188 m 0
 512 213 512 213 529 231 c 0
 547 248 547 248 572 248 c 0
 597 248 597 248 615 231 c 0
 632 213 632 213 632 188 c 0
 632 163 632 163 615 145 c 0
 597 128 597 128 572 128 c 0
 547 128 547 128 529 145 c 0
 512 163 512 163 512 188 c 0
128 60 m 0
 128 85 128 85 145 103 c 0
 163 120 163 120 188 120 c 0
 213 120 213 120 231 103 c 0
 248 85 248 85 248 60 c 0
 248 35 248 35 231 17 c 0
 213 0 213 0 188 0 c 0
 163 0 163 0 145 17 c 0
 128 35 128 35 128 60 c 0
256 60 m 0
 256 85 256 85 273 103 c 0
 291 120 291 120 316 120 c 0
 341 120 341 120 359 103 c 0
 376 85 376 85 376 60 c 0
 376 35 376 35 359 17 c 0
 341 0 341 0 316 0 c 0
 291 0 291 0 273 17 c 0
 256 35 256 35 256 60 c 0
384 60 m 0
 384 85 384 85 401 103 c 0
 419 120 419 120 444 120 c 0
 469 120 469 120 487 103 c 0
 504 85 504 85 504 60 c 0
 504 35 504 35 487 17 c 0
 469 0 469 0 444 0 c 0
 419 0 419 0 401 17 c 0
 384 35 384 35 384 60 c 0
EndSplineSet
EndChar
StartChar: uni0037
Encoding: 55 55 22
Width: 768
VWidth: 0
Flags: HW
LayerCount: 2
Fore
SplineSet
0 828 m 0
 0 853 0 853 17 871 c 0
 35 888 35 888 60 888 c 0
 85 888 85 888 103 871 c 0
 120 853 120 853 120 828 c 0
 120 803 120 803 103 785 c 0
 85 768 85 768 60 768 c 0
 35 768 35 768 17 785 c 0
 0 803 0 803 0 828 c 0
128 828 m 0
 128 853 128 853 145 871 c 0
 163 888 163 888 188 888 c 0
 213 888 213 888 231 871 c 0
 248 853 248 853 248 828 c 0
 248 803 248 803 231 785 c 0
 213 768 213 768 188 768 c 0
 163 768 163 768 145 785 c 0
 128 803 128 803 128 828 c 0
256 828 m 0
 256 853 256 853 273 871 c 0
 291 888 291 888 316 888 c 0
 341 888 341 888 359 871 c 0
 376 853 376 853 376 828 c 0
 376 803 376 803 359 785 c 0
 341 768 341 768 316 768 c 0
 291 768 291 768 273 785 c 0
 256 803 256 803 256 828 c 0
384 828 m 0
 384 853 384 853 401 871 c 0
 419 888 419 888 444 888 c 0
 469 888 469 888 487 871 c 0
 504 853 504 853 504 828 c 0
 504 803 504 803 487 785 c 0
 469 768 469 768 444 768 c 0
 419 768 419 768 401 785 c 0
 384 803 384 803 384 828 c 0
512 828 m 0
 512 853 512 853 529 871 c 0
 547 888 547 888 572 888 c 0
 597 888 597 888 615 871 c 0
 632 853 632 853 632 828 c 0
 632 803 632 803 615 785 c 0
 597 768 597 768 572 768 c 0
 547 768 547 768 529 785 c 0
 512 803 512 803 512 828 c 0
512 700 m 0
 512 725 512 725 529 743 c 0
 547 760 547 760 572 760 c 0
 597 760 597 760 615 743 c 0
 632 725 632 725 632 700 c 0
 632 675 632 675 615 657 c 0
 597 640 597 640 572 640 c 0
 547 640 547 640 529 657 c 0
 512 675 512 675 512 700 c 0
384 572 m 0
 384 597 384 597 401 615 c 0
 419 632 419 632 444 632 c 0
 469 632 469 632 487 615 c 0
 504 597 504 597 504 572 c 0
 504 547 504 547 487 529 c 0
 469 512 469 512 444 512 c 0
 419 512 419 512 401 529 c 0
 384 547 384 547 384 572 c 0
256 444 m 0
 256 469 256 469 273 487 c 0
 291 504 291 504 316 504 c 0
 341 504 341 504 359 487 c 0
 376 469 376 469 376 444 c 0
 376 419 376 419 359 401 c 0
 341 384 341 384 316 384 c 0
 291 384 291 384 273 401 c 0
 256 419 256 419 256 444 c 0
128 316 m 0
 128 341 128 341 145 359 c 0
 163 376 163 376 188 376 c 0
 213 376 213 376 231 359 c 0
 248 341 248 341 248 316 c 0
 248 291 248 291 231 273 c 0
 213 256 213 256 188 256 c 0
 163 256 163 256 145 273 c 0
 128 291 128 291 128 316 c 0
128 188 m 0
 128 213 128 213 145 231 c 0
 163 248 163 248 188 248 c 0
 213 248 213 248 231 231 c 0
 248 213 248 213 248 188 c 0
 248 163 248 163 231 145 c 0
 213 128 213 128 188 128 c 0
 163 128 163 128 145 145 c 0
 128 163 128 163 128 188 c 0
128 60 m 0
 128 85 128 85 145 103 c 0
 163 120 163 120 188 120 c 0
 213 120 213 120 231 103 c 0
 248 85 248 85 248 60 c 0
 248 35 248 35 231 17 c 0
 213 0 213 0 188 0 c 0
 163 0 163 0 145 17 c 0
 128 35 128 35 128 60 c 0
EndSplineSet
EndChar
StartChar: uni0038
Encoding: 56 56 23
Width: 768
VWidth: 0
Flags: HW
LayerCount: 2
Fore
SplineSet
128 828 m 0
 128 853 128 853 145 871 c 0
 163 888 163 888 188 888 c 0
 213 888 213 888 231 871 c 0
 248 853 248 853 248 828 c 0
 248 803 248 803 231 785 c 0
 213 768 213 768 188 768 c 0
 163 768 163 768 145 785 c 0
 128 803 128 803 128 828 c 0
256 828 m 0
 256 853 256 853 273 871 c 0
 291 888 291 888 316 888 c 0
 341 888 341 888 359 871 c 0
 376 853 376 853 376 828 c 0
 376 803 376 803 359 785 c 0
 341 768 341 768 316 768 c 0
 291 768 291 768 273 785 c 0
 256 803 256 803 256 828 c 0
384 828 m 0
 384 853 384 853 401 871 c 0
 419 888 419 888 444 888 c 0
 469 888 469 888 487 871 c 0
 504 853 504 853 504 828 c 0
 504 803 504 803 487 785 c 0
 469 768 469 768 444 768 c 0
 419 768 419 768 401 785 c 0
 384 803 384 803 384 828 c 0
0 700 m 0
 0 725 0 725 17 743 c 0
 35 760 35 760 60 760 c 0
 85 760 85 760 103 743 c 0
 120 725 120 725 120 700 c 0
 120 675 120 675 103 657 c 0
 85 640 85 640 60 640 c 0
 35 640 35 640 17 657 c 0
 0 675 0 675 0 700 c 0
512 700 m 0
 512 725 512 725 529 743 c 0
 547 760 547 760 572 760 c 0
 597 760 597 760 615 743 c 0
 632 725 632 725 632 700 c 0
 632 675 632 675 615 657 c 0
 597 640 597 640 572 640 c 0
 547 640 547 640 529 657 c 0
 512 675 512 675 512 700 c 0
0 572 m 0
 0 597 0 597 17 615 c 0
 35 632 35 632 60 632 c 0
 85 632 85 632 103 615 c 0
 120 597 120 597 120 572 c 0
 120 547 120 547 103 529 c 0
 85 512 85 512 60 512 c 0
 35 512 35 512 17 529 c 0
 0 547 0 547 0 572 c 0
512 572 m 0
 512 597 512 597 529 615 c 0
 547 632 547 632 572 632 c 0
 597 632 597 632 615 615 c 0
 632 597 632 597 632 572 c 0
 632 547 632 547 615 529 c 0
 597 512 597 512 572 512 c 0
 547 512 547 512 529 529 c 0
 512 547 512 547 512 572 c 0
128 444 m 0
 128 469 128 469 145 487 c 0
 163 504 163 504 188 504 c 0
 213 504 213 504 231 487 c 0
 248 469 248 469 248 444 c 0
 248 419 248 419 231 401 c 0
 213 384 213 384 188 384 c 0
 163 384 163 384 145 401 c 0
 128 419 128 419 128 444 c 0
256 444 m 0
 256 469 256 469 273 487 c 0
 291 504 291 504 316 504 c 0
 341 504 341 504 359 487 c 0
 376 469 376 469 376 444 c 0
 376 419 376 419 359 401 c 0
 341 384 341 384 316 384 c 0
 291 384 291 384 273 401 c 0
 256 419 256 419 256 444 c 0
384 444 m 0
 384 469 384 469 401 487 c 0
 419 504 419 504 444 504 c 0
 469 504 469 504 487 487 c 0
 504 469 504 469 504 444 c 0
 504 419 504 419 487 401 c 0
 469 384 469 384 444 384 c 0
 419 384 419 384 401 401 c 0
 384 419 384 419 384 444 c 0
0 316 m 0
 0 341 0 341 17 359 c 0
 35 376 35 376 60 376 c 0
 85 376 85 376 103 359 c 0
 120 341 120 341 120 316 c 0
 120 291 120 291 103 273 c 0
 85 256 85 256 60 256 c 0
 35 256 35 256 17 273 c 0
 0 291 0 291 0 316 c 0
512 316 m 0
 512 341 512 341 529 359 c 0
 547 376 547 376 572 376 c 0
 597 376 597 376 615 359 c 0
 632 341 632 341 632 316 c 0
 632 291 632 291 615 273 c 0
 597 256 597 256 572 256 c 0
 547 256 547 256 529 273 c 0
 512 291 512 291 512 316 c 0
0 188 m 0
 0 213 0 213 17 231 c 0
 35 248 35 248 60 248 c 0
 85 248 85 248 103 231 c 0
 120 213 120 213 120 188 c 0
 120 163 120 163 103 145 c 0
 85 128 85 128 60 128 c 0
 35 128 35 128 17 145 c 0
 0 163 0 163 0 188 c 0
512 188 m 0
 512 213 512 213 529 231 c 0
 547 248 547 248 572 248 c 0
 597 248 597 248 615 231 c 0
 632 213 632 213 632 188 c 0
 632 163 632 163 615 145 c 0
 597 128 597 128 572 128 c 0
 547 128 547 128 529 145 c 0
 512 163 512 163 512 188 c 0
128 60 m 0
 128 85 128 85 145 103 c 0
 163 120 163 120 188 120 c 0
 213 120 213 120 231 103 c 0
 248 85 248 85 248 60 c 0
 248 35 248 35 231 17 c 0
 213 0 213 0 188 0 c 0
 163 0 163 0 145 17 c 0
 128 35 128 35 128 60 c 0
256 60 m 0
 256 85 256 85 273 103 c 0
 291 120 291 120 316 120 c 0
 341 120 341 120 359 103 c 0
 376 85 376 85 376 60 c 0
 376 35 376 35 359 17 c 0
 341 0 341 0 316 0 c 0
 291 0 291 0 273 17 c 0
 256 35 256 35 256 60 c 0
384 60 m 0
 384 85 384 85 401 103 c 0
 419 120 419 120 444 120 c 0
 469 120 469 120 487 103 c 0
 504 85 504 85 504 60 c 0
 504 35 504 35 487 17 c 0
 469 0 469 0 444 0 c 0
 419 0 419 0 401 17 c 0
 384 35 384 35 384 60 c 0
EndSplineSet
EndChar
StartChar: uni0039
Encoding: 57 57 24
Width: 768
VWidth: 0
Flags: HW
LayerCount: 2
Fore
SplineSet
128 828 m 0
 128 853 128 853 145 871 c 0
 163 888 163 888 188 888 c 0
 213 888 213 888 231 871 c 0
 248 853 248 853 248 828 c 0
 248 803 248 803 231 785 c 0
 213 768 213 768 188 768 c 0
 163 768 163 768 145 785 c 0
 128 803 128 803 128 828 c 0
256 828 m 0
 256 853 256 853 273 871 c 0
 291 888 291 888 316 888 c 0
 341 888 341 888 359 871 c 0
 376 853 376 853 376 828 c 0
 376 803 376 803 359 785 c 0
 341 768 341 768 316 768 c 0
 291 768 291 768 273 785 c 0
 256 803 256 803 256 828 c 0
384 828 m 0
 384 853 384 853 401 871 c 0
 419 888 419 888 444 888 c 0
 469 888 469 888 487 871 c 0
 504 853 504 853 504 828 c 0
 504 803 504 803 487 785 c 0
 469 768 469 768 444 768 c 0
 419 768 419 768 401 785 c 0
 384 803 384 803 384 828 c 0
0 700 m 0
 0 725 0 725 17 743 c 0
 35 760 35 760 60 760 c 0
 85 760 85 760 103 743 c 0
 120 725 120 725 120 700 c 0
 120 675 120 675 103 657 c 0
 85 640 85 640 60 640 c 0
 35 640 35 640 17 657 c 0
 0 675 0 675 0 700 c 0
512 700 m 0
 512 725 512 725 529 743 c 0
 547 760 547 760 572 760 c 0
 597 760 597 760 615 743 c 0
 632 725 632 725 632 700 c 0
 632 675 632 675 615 657 c 0
 597 640 597 640 572 640 c 0
 547 640 547 640 529 657 c 0
 512 675 512 675 512 700 c 0
0 572 m 0
 0 597 0 597 17 615 c 0
 35 632 35 632 60 632 c 0
 85 632 85 632 103 615 c 0
 120 597 120 597 120 572 c 0
 120 547 120 547 103 529 c 0
 85 512 85 512 60 512 c 0
 35 512 35 512 17 529 c 0
 0 547 0 547 0 572 c 0
512 572 m 0
 512 597 512 597 529 615 c 0
 547 632 547 632 572 632 c 0
 597 632 597 632 615 615 c 0
 632 597 632 597 632 572 c 0
 632 547 632 547 615 529 c 0
 597 512 597 512 572 512 c 0
 547 512 547 512 529 529 c 0
 512 547 512 547 512 572 c 0
128 444 m 0
 128 469 128 469 145 487 c 0
 163 504 163 504 188 504 c 0
 213 504 213 504 231 487 c 0
 248 469 248 469 248 444 c 0
 248 419 248 419 231 401 c 0
 213 384 213 384 188 384 c 0
 163 384 163 384 145 401 c 0
 128 419 128 419 128 444 c 0
256 444 m 0
 256 469 256 469 273 487 c 0
 291 504 291 504 316 504 c 0
 341 504 341 504 359 487 c 0
 376 469 376 469 376 444 c 0
 376 419 376 419 359 401 c 0
 341 384 341 384 316 384 c 0
 291 384 291 384 273 401 c 0
 256 419 256 419 256 444 c 0
384 444 m 0
 384 469 384 469 401 487 c 0
 419 504 419 504 444 504 c 0
 469 504 469 504 487 487 c 0
 504 469 504 469 504 444 c 0
 504 419 504 419 487 401 c 0
 469 384 469 384 444 384 c 0
 419 384 419 384 401 401 c 0
 384 419 384 419 384 444 c 0
512 444 m 0
 512 469 512 469 529 487 c 0
 547 504 547 504 572 504 c 0
 597 504 597 504 615 487 c 0
 632 469 632 469 632 444 c 0
 632 419 632 419 615 401 c 0
 597 384 597 384 572 384 c 0
 547 384 547 384 529 401 c 0
 512 419 512 419 512 444 c 0
512 316 m 0
 512 341 512 341 529 359 c 0
 547 376 547 376 572 376 c 0
 597 376 597 376 615 359 c 0
 632 341 632 341 632 316 c 0
 632 291 632 291 615 273 c 0
 597 256 597 256 572 256 c 0
 547 256 547 256 529 273 c 0
 512 291 512 291 512 316 c 0
384 188 m 0
 384 213 384 213 401 231 c 0
 419 248 419 248 444 248 c 0
 469 248 469 248 487 231 c 0
 504 213 504 213 504 188 c 0
 504 163 504 163 487 145 c 0
 469 128 469 128 444 128 c 0
 419 128 419 128 401 145 c 0
 384 163 384 163 384 188 c 0
128 60 m 0
 128 85 128 85 145 103 c 0
 163 120 163 120 188 120 c 0
 213 120 213 120 231 103 c 0
 248 85 248 85 248 60 c 0
 248 35 248 35 231 17 c 0
 213 0 213 0 188 0 c 0
 163 0 163 0 145 17 c 0
 128 35 128 35 128 60 c 0
256 60 m 0
 256 85 256 85 273 103 c 0
 291 120 291 120 316 120 c 0
 341 120 341 120 359 103 c 0
 376 85 376 85 376 60 c 0
 376 35 376 35 359 17 c 0
 341 0 341 0 316 0 c 0
 291 0 291 0 273 17 c 0
 256 35 256 35 256 60 c 0
EndSplineSet
EndChar
StartChar: uni003A
Encoding: 58 58 25
Width: 768
VWidth: 0
Flags: HW
LayerCount: 2
Fore
SplineSet
128 700 m 0
 128 725 128 725 145 743 c 0
 163 760 163 760 188 760 c 0
 213 760 213 760 231 743 c 0
 248 725 248 725 248 700 c 0
 248 675 248 675 231 657 c 0
 213 640 213 640 188 640 c 0
 163 640 163 640 145 657 c 0
 128 675 128 675 128 700 c 0
256 700 m 0
 256 725 256 725 273 743 c 0
 291 760 291 760 316 760 c 0
 341 760 341 760 359 743 c 0
 376 725 376 725 376 700 c 0
 376 675 376 675 359 657 c 0
 341 640 341 640 316 640 c 0
 291 640 291 640 273 657 c 0
 256 675 256 675 256 700 c 0
128 572 m 0
 128 597 128 597 145 615 c 0
 163 632 163 632 188 632 c 0
 213 632 213 632 231 615 c 0
 248 597 248 597 248 572 c 0
 248 547 248 547 231 529 c 0
 213 512 213 512 188 512 c 0
 163 512 163 512 145 529 c 0
 128 547 128 547 128 572 c 0
256 572 m 0
 256 597 256 597 273 615 c 0
 291 632 291 632 316 632 c 0
 341 632 341 632 359 615 c 0
 376 597 376 597 376 572 c 0
 376 547 376 547 359 529 c 0
 341 512 341 512 316 512 c 0
 291 512 291 512 273 529 c 0
 256 547 256 547 256 572 c 0
128 316 m 0
 128 341 128 341 145 359 c 0
 163 376 163 376 188 376 c 0
 213 376 213 376 231 359 c 0
 248 341 248 341 248 316 c 0
 248 291 248 291 231 273 c 0
 213 256 213 256 188 256 c 0
 163 256 163 256 145 273 c 0
 128 291 128 291 128 316 c 0
256 316 m 0
 256 341 256 341 273 359 c 0
 291 376 291 376 316 376 c 0
 341 376 341 376 359 359 c 0
 376 341 376 341 376 316 c 0
 376 291 376 291 359 273 c 0
 341 256 341 256 316 256 c 0
 291 256 291 256 273 273 c 0
 256 291 256 291 256 316 c 0
128 188 m 0
 128 213 128 213 145 231 c 0
 163 248 163 248 188 248 c 0
 213 248 213 248 231 231 c 0
 248 213 248 213 248 188 c 0
 248 163 248 163 231 145 c 0
 213 128 213 128 188 128 c 0
 163 128 163 128 145 145 c 0
 128 163 128 163 128 188 c 0
256 188 m 0
 256 213 256 213 273 231 c 0
 291 248 291 248 316 248 c 0
 341 248 341 248 359 231 c 0
 376 213 376 213 376 188 c 0
 376 163 376 163 359 145 c 0
 341 128 341 128 316 128 c 0
 291 128 291 128 273 145 c 0
 256 163 256 163 256 188 c 0
EndSplineSet
EndChar
StartChar: uni003B
Encoding: 59 59 26
Width: 768
VWidth: 0
Flags: HW
LayerCount: 2
Fore
SplineSet
128 828 m 0
 128 853 128 853 145 871 c 0
 163 888 163 888 188 888 c 0
 213 888 213 888 231 871 c 0
 248 853 248 853 248 828 c 0
 248 803 248 803 231 785 c 0
 213 768 213 768 188 768 c 0
 163 768 163 768 145 785 c 0
 128 803 128 803 128 828 c 0
256 828 m 0
 256 853 256 853 273 871 c 0
 291 888 291 888 316 888 c 0
 341 888 341 888 359 871 c 0
 376 853 376 853 376 828 c 0
 376 803 376 803 359 785 c 0
 341 768 341 768 316 768 c 0
 291 768 291 768 273 785 c 0
 256 803 256 803 256 828 c 0
128 700 m 0
 128 725 128 725 145 743 c 0
 163 760 163 760 188 760 c 0
 213 760 213 760 231 743 c 0
 248 725 248 725 248 700 c 0
 248 675 248 675 231 657 c 0
 213 640 213 640 188 640 c 0
 163 640 163 640 145 657 c 0
 128 675 128 675 128 700 c 0
256 700 m 0
 256 725 256 725 273 743 c 0
 291 760 291 760 316 760 c 0
 341 760 341 760 359 743 c 0
 376 725 376 725 376 700 c 0
 376 675 376 675 359 657 c 0
 341 640 341 640 316 640 c 0
 291 640 291 640 273 657 c 0
 256 675 256 675 256 700 c 0
128 444 m 0
 128 469 128 469 145 487 c 0
 163 504 163 504 188 504 c 0
 213 504 213 504 231 487 c 0
 248 469 248 469 248 444 c 0
 248 419 248 419 231 401 c 0
 213 384 213 384 188 384 c 0
 163 384 163 384 145 401 c 0
 128 419 128 419 128 444 c 0
256 444 m 0
 256 469 256 469 273 487 c 0
 291 504 291 504 316 504 c 0
 341 504 341 504 359 487 c 0
 376 469 376 469 376 444 c 0
 376 419 376 419 359 401 c 0
 341 384 341 384 316 384 c 0
 291 384 291 384 273 401 c 0
 256 419 256 419 256 444 c 0
128 316 m 0
 128 341 128 341 145 359 c 0
 163 376 163 376 188 376 c 0
 213 376 213 376 231 359 c 0
 248 341 248 341 248 316 c 0
 248 291 248 291 231 273 c 0
 213 256 213 256 188 256 c 0
 163 256 163 256 145 273 c 0
 128 291 128 291 128 316 c 0
256 316 m 0
 256 341 256 341 273 359 c 0
 291 376 291 376 316 376 c 0
 341 376 341 376 359 359 c 0
 376 341 376 341 376 316 c 0
 376 291 376 291 359 273 c 0
 341 256 341 256 316 256 c 0
 291 256 291 256 273 273 c 0
 256 291 256 291 256 316 c 0
256 188 m 0
 256 213 256 213 273 231 c 0
 291 248 291 248 316 248 c 0
 341 248 341 248 359 231 c 0
 376 213 376 213 376 188 c 0
 376 163 376 163 359 145 c 0
 341 128 341 128 316 128 c 0
 291 128 291 128 273 145 c 0
 256 163 256 163 256 188 c 0
128 60 m 0
 128 85 128 85 145 103 c 0
 163 120 163 120 188 120 c 0
 213 120 213 120 231 103 c 0
 248 85 248 85 248 60 c 0
 248 35 248 35 231 17 c 0
 213 0 213 0 188 0 c 0
 163 0 163 0 145 17 c 0
 128 35 128 35 128 60 c 0
EndSplineSet
EndChar
StartChar: uni003C
Encoding: 60 60 27
Width: 768
VWidth: 0
Flags: HW
LayerCount: 2
Fore
SplineSet
512 828 m 0
 512 853 512 853 529 871 c 0
 547 888 547 888 572 888 c 0
 597 888 597 888 615 871 c 0
 632 853 632 853 632 828 c 0
 632 803 632 803 615 785 c 0
 597 768 597 768 572 768 c 0
 547 768 547 768 529 785 c 0
 512 803 512 803 512 828 c 0
384 700 m 0
 384 725 384 725 401 743 c 0
 419 760 419 760 444 760 c 0
 469 760 469 760 487 743 c 0
 504 725 504 725 504 700 c 0
 504 675 504 675 487 657 c 0
 469 640 469 640 444 640 c 0
 419 640 419 640 401 657 c 0
 384 675 384 675 384 700 c 0
256 572 m 0
 256 597 256 597 273 615 c 0
 291 632 291 632 316 632 c 0
 341 632 341 632 359 615 c 0
 376 597 376 597 376 572 c 0
 376 547 376 547 359 529 c 0
 341 512 341 512 316 512 c 0
 291 512 291 512 273 529 c 0
 256 547 256 547 256 572 c 0
128 444 m 0
 128 469 128 469 145 487 c 0
 163 504 163 504 188 504 c 0
 213 504 213 504 231 487 c 0
 248 469 248 469 248 444 c 0
 248 419 248 419 231 401 c 0
 213 384 213 384 188 384 c 0
 163 384 163 384 145 401 c 0
 128 419 128 419 128 444 c 0
256 316 m 0
 256 341 256 341 273 359 c 0
 291 376 291 376 316 376 c 0
 341 376 341 376 359 359 c 0
 376 341 376 341 376 316 c 0
 376 291 376 291 359 273 c 0
 341 256 341 256 316 256 c 0
 291 256 291 256 273 273 c 0
 256 291 256 291 256 316 c 0
384 188 m 0
 384 213 384 213 401 231 c 0
 419 248 419 248 444 248 c 0
 469 248 469 248 487 231 c 0
 504 213 504 213 504 188 c 0
 504 163 504 163 487 145 c 0
 469 128 469 128 444 128 c 0
 419 128 419 128 401 145 c 0
 384 163 384 163 384 188 c 0
512 60 m 0
 512 85 512 85 529 103 c 0
 547 120 547 120 572 120 c 0
 597 120 597 120 615 103 c 0
 632 85 632 85 632 60 c 0
 632 35 632 35 615 17 c 0
 597 0 597 0 572 0 c 0
 547 0 547 0 529 17 c 0
 512 35 512 35 512 60 c 0
EndSplineSet
EndChar
StartChar: uni003D
Encoding: 61 61 28
Width: 768
VWidth: 0
Flags: HW
LayerCount: 2
Fore
SplineSet
0 572 m 0
 0 597 0 597 17 615 c 0
 35 632 35 632 60 632 c 0
 85 632 85 632 103 615 c 0
 120 597 120 597 120 572 c 0
 120 547 120 547 103 529 c 0
 85 512 85 512 60 512 c 0
 35 512 35 512 17 529 c 0
 0 547 0 547 0 572 c 0
128 572 m 0
 128 597 128 597 145 615 c 0
 163 632 163 632 188 632 c 0
 213 632 213 632 231 615 c 0
 248 597 248 597 248 572 c 0
 248 547 248 547 231 529 c 0
 213 512 213 512 188 512 c 0
 163 512 163 512 145 529 c 0
 128 547 128 547 128 572 c 0
256 572 m 0
 256 597 256 597 273 615 c 0
 291 632 291 632 316 632 c 0
 341 632 341 632 359 615 c 0
 376 597 376 597 376 572 c 0
 376 547 376 547 359 529 c 0
 341 512 341 512 316 512 c 0
 291 512 291 512 273 529 c 0
 256 547 256 547 256 572 c 0
384 572 m 0
 384 597 384 597 401 615 c 0
 419 632 419 632 444 632 c 0
 469 632 469 632 487 615 c 0
 504 597 504 597 504 572 c 0
 504 547 504 547 487 529 c 0
 469 512 469 512 444 512 c 0
 419 512 419 512 401 529 c 0
 384 547 384 547 384 572 c 0
512 572 m 0
 512 597 512 597 529 615 c 0
 547 632 547 632 572 632 c 0
 597 632 597 632 615 615 c 0
 632 597 632 597 632 572 c 0
 632 547 632 547 615 529 c 0
 597 512 597 512 572 512 c 0
 547 512 547 512 529 529 c 0
 512 547 512 547 512 572 c 0
0 316 m 0
 0 341 0 341 17 359 c 0
 35 376 35 376 60 376 c 0
 85 376 85 376 103 359 c 0
 120 341 120 341 120 316 c 0
 120 291 120 291 103 273 c 0
 85 256 85 256 60 256 c 0
 35 256 35 256 17 273 c 0
 0 291 0 291 0 316 c 0
128 316 m 0
 128 341 128 341 145 359 c 0
 163 376 163 376 188 376 c 0
 213 376 213 376 231 359 c 0
 248 341 248 341 248 316 c 0
 248 291 248 291 231 273 c 0
 213 256 213 256 188 256 c 0
 163 256 163 256 145 273 c 0
 128 291 128 291 128 316 c 0
256 316 m 0
 256 341 256 341 273 359 c 0
 291 376 291 376 316 376 c 0
 341 376 341 376 359 359 c 0
 376 341 376 341 376 316 c 0
 376 291 376 291 359 273 c 0
 341 256 341 256 316 256 c 0
 291 256 291 256 273 273 c 0
 256 291 256 291 256 316 c 0
384 316 m 0
 384 341 384 341 401 359 c 0
 419 376 419 376 444 376 c 0
 469 376 469 376 487 359 c 0
 504 341 504 341 504 316 c 0
 504 291 504 291 487 273 c 0
 469 256 469 256 444 256 c 0
 419 256 419 256 401 273 c 0
 384 291 384 291 384 316 c 0
512 316 m 0
 512 341 512 341 529 359 c 0
 547 376 547 376 572 376 c 0
 597 376 597 376 615 359 c 0
 632 341 632 341 632 316 c 0
 632 291 632 291 615 273 c 0
 597 256 597 256 572 256 c 0
 547 256 547 256 529 273 c 0
 512 291 512 291 512 316 c 0
EndSplineSet
EndChar
StartChar: uni003E
Encoding: 62 62 29
Width: 768
VWidth: 0
Flags: HW
LayerCount: 2
Fore
SplineSet
0 828 m 0
 0 853 0 853 17 871 c 0
 35 888 35 888 60 888 c 0
 85 888 85 888 103 871 c 0
 120 853 120 853 120 828 c 0
 120 803 120 803 103 785 c 0
 85 768 85 768 60 768 c 0
 35 768 35 768 17 785 c 0
 0 803 0 803 0 828 c 0
128 700 m 0
 128 725 128 725 145 743 c 0
 163 760 163 760 188 760 c 0
 213 760 213 760 231 743 c 0
 248 725 248 725 248 700 c 0
 248 675 248 675 231 657 c 0
 213 640 213 640 188 640 c 0
 163 640 163 640 145 657 c 0
 128 675 128 675 128 700 c 0
256 572 m 0
 256 597 256 597 273 615 c 0
 291 632 291 632 316 632 c 0
 341 632 341 632 359 615 c 0
 376 597 376 597 376 572 c 0
 376 547 376 547 359 529 c 0
 341 512 341 512 316 512 c 0
 291 512 291 512 273 529 c 0
 256 547 256 547 256 572 c 0
384 444 m 0
 384 469 384 469 401 487 c 0
 419 504 419 504 444 504 c 0
 469 504 469 504 487 487 c 0
 504 469 504 469 504 444 c 0
 504 419 504 419 487 401 c 0
 469 384 469 384 444 384 c 0
 419 384 419 384 401 401 c 0
 384 419 384 419 384 444 c 0
256 316 m 0
 256 341 256 341 273 359 c 0
 291 376 291 376 316 376 c 0
 341 376 341 376 359 359 c 0
 376 341 376 341 376 316 c 0
 376 291 376 291 359 273 c 0
 341 256 341 256 316 256 c 0
 291 256 291 256 273 273 c 0
 256 291 256 291 256 316 c 0
128 188 m 0
 128 213 128 213 145 231 c 0
 163 248 163 248 188 248 c 0
 213 248 213 248 231 231 c 0
 248 213 248 213 248 188 c 0
 248 163 248 163 231 145 c 0
 213 128 213 128 188 128 c 0
 163 128 163 128 145 145 c 0
 128 163 128 163 128 188 c 0
0 60 m 0
 0 85 0 85 17 103 c 0
 35 120 35 120 60 120 c 0
 85 120 85 120 103 103 c 0
 120 85 120 85 120 60 c 0
 120 35 120 35 103 17 c 0
 85 0 85 0 60 0 c 0
 35 0 35 0 17 17 c 0
 0 35 0 35 0 60 c 0
EndSplineSet
EndChar
StartChar: uni003F
Encoding: 63 63 30
Width: 768
VWidth: 0
Flags: HW
LayerCount: 2
Fore
SplineSet
128 828 m 0
 128 853 128 853 145 871 c 0
 163 888 163 888 188 888 c 0
 213 888 213 888 231 871 c 0
 248 853 248 853 248 828 c 0
 248 803 248 803 231 785 c 0
 213 768 213 768 188 768 c 0
 163 768 163 768 145 785 c 0
 128 803 128 803 128 828 c 0
256 828 m 0
 256 853 256 853 273 871 c 0
 291 888 291 888 316 888 c 0
 341 888 341 888 359 871 c 0
 376 853 376 853 376 828 c 0
 376 803 376 803 359 785 c 0
 341 768 341 768 316 768 c 0
 291 768 291 768 273 785 c 0
 256 803 256 803 256 828 c 0
0 700 m 0
 0 725 0 725 17 743 c 0
 35 760 35 760 60 760 c 0
 85 760 85 760 103 743 c 0
 120 725 120 725 120 700 c 0
 120 675 120 675 103 657 c 0
 85 640 85 640 60 640 c 0
 35 640 35 640 17 657 c 0
 0 675 0 675 0 700 c 0
384 700 m 0
 384 725 384 725 401 743 c 0
 419 760 419 760 444 760 c 0
 469 760 469 760 487 743 c 0
 504 725 504 725 504 700 c 0
 504 675 504 675 487 657 c 0
 469 640 469 640 444 640 c 0
 419 640 419 640 401 657 c 0
 384 675 384 675 384 700 c 0
384 572 m 0
 384 597 384 597 401 615 c 0
 419 632 419 632 444 632 c 0
 469 632 469 632 487 615 c 0
 504 597 504 597 504 572 c 0
 504 547 504 547 487 529 c 0
 469 512 469 512 444 512 c 0
 419 512 419 512 401 529 c 0
 384 547 384 547 384 572 c 0
256 444 m 0
 256 469 256 469 273 487 c 0
 291 504 291 504 316 504 c 0
 341 504 341 504 359 487 c 0
 376 469 376 469 376 444 c 0
 376 419 376 419 359 401 c 0
 341 384 341 384 316 384 c 0
 291 384 291 384 273 401 c 0
 256 419 256 419 256 444 c 0
256 316 m 0
 256 341 256 341 273 359 c 0
 291 376 291 376 316 376 c 0
 341 376 341 376 359 359 c 0
 376 341 376 341 376 316 c 0
 376 291 376 291 359 273 c 0
 341 256 341 256 316 256 c 0
 291 256 291 256 273 273 c 0
 256 291 256 291 256 316 c 0
256 60 m 0
 256 85 256 85 273 103 c 0
 291 120 291 120 316 120 c 0
 341 120 341 120 359 103 c 0
 376 85 376 85 376 60 c 0
 376 35 376 35 359 17 c 0
 341 0 341 0 316 0 c 0
 291 0 291 0 273 17 c 0
 256 35 256 35 256 60 c 0
EndSplineSet
EndChar
StartChar: uni0040
Encoding: 64 64 31
Width: 768
VWidth: 0
Flags: HW
LayerCount: 2
Fore
SplineSet
128 828 m 0
 128 853 128 853 145 871 c 0
 163 888 163 888 188 888 c 0
 213 888 213 888 231 871 c 0
 248 853 248 853 248 828 c 0
 248 803 248 803 231 785 c 0
 213 768 213 768 188 768 c 0
 163 768 163 768 145 785 c 0
 128 803 128 803 128 828 c 0
256 828 m 0
 256 853 256 853 273 871 c 0
 291 888 291 888 316 888 c 0
 341 888 341 888 359 871 c 0
 376 853 376 853 376 828 c 0
 376 803 376 803 359 785 c 0
 341 768 341 768 316 768 c 0
 291 768 291 768 273 785 c 0
 256 803 256 803 256 828 c 0
384 828 m 0
 384 853 384 853 401 871 c 0
 419 888 419 888 444 888 c 0
 469 888 469 888 487 871 c 0
 504 853 504 853 504 828 c 0
 504 803 504 803 487 785 c 0
 469 768 469 768 444 768 c 0
 419 768 419 768 401 785 c 0
 384 803 384 803 384 828 c 0
0 700 m 0
 0 725 0 725 17 743 c 0
 35 760 35 760 60 760 c 0
 85 760 85 760 103 743 c 0
 120 725 120 725 120 700 c 0
 120 675 120 675 103 657 c 0
 85 640 85 640 60 640 c 0
 35 640 35 640 17 657 c 0
 0 675 0 675 0 700 c 0
512 700 m 0
 512 725 512 725 529 743 c 0
 547 760 547 760 572 760 c 0
 597 760 597 760 615 743 c 0
 632 725 632 725 632 700 c 0
 632 675 632 675 615 657 c 0
 597 640 597 640 572 640 c 0
 547 640 547 640 529 657 c 0
 512 675 512 675 512 700 c 0
512 572 m 0
 512 597 512 597 529 615 c 0
 547 632 547 632 572 632 c 0
 597 632 597 632 615 615 c 0
 632 597 632 597 632 572 c 0
 632 547 632 547 615 529 c 0
 597 512 597 512 572 512 c 0
 547 512 547 512 529 529 c 0
 512 547 512 547 512 572 c 0
128 444 m 0
 128 469 128 469 145 487 c 0
 163 504 163 504 188 504 c 0
 213 504 213 504 231 487 c 0
 248 469 248 469 248 444 c 0
 248 419 248 419 231 401 c 0
 213 384 213 384 188 384 c 0
 163 384 163 384 145 401 c 0
 128 419 128 419 128 444 c 0
256 444 m 0
 256 469 256 469 273 487 c 0
 291 504 291 504 316 504 c 0
 341 504 341 504 359 487 c 0
 376 469 376 469 376 444 c 0
 376 419 376 419 359 401 c 0
 341 384 341 384 316 384 c 0
 291 384 291 384 273 401 c 0
 256 419 256 419 256 444 c 0
512 444 m 0
 512 469 512 469 529 487 c 0
 547 504 547 504 572 504 c 0
 597 504 597 504 615 487 c 0
 632 469 632 469 632 444 c 0
 632 419 632 419 615 401 c 0
 597 384 597 384 572 384 c 0
 547 384 547 384 529 401 c 0
 512 419 512 419 512 444 c 0
0 316 m 0
 0 341 0 341 17 359 c 0
 35 376 35 376 60 376 c 0
 85 376 85 376 103 359 c 0
 120 341 120 341 120 316 c 0
 120 291 120 291 103 273 c 0
 85 256 85 256 60 256 c 0
 35 256 35 256 17 273 c 0
 0 291 0 291 0 316 c 0
256 316 m 0
 256 341 256 341 273 359 c 0
 291 376 291 376 316 376 c 0
 341 376 341 376 359 359 c 0
 376 341 376 341 376 316 c 0
 376 291 376 291 359 273 c 0
 341 256 341 256 316 256 c 0
 291 256 291 256 273 273 c 0
 256 291 256 291 256 316 c 0
512 316 m 0
 512 341 512 341 529 359 c 0
 547 376 547 376 572 376 c 0
 597 376 597 376 615 359 c 0
 632 341 632 341 632 316 c 0
 632 291 632 291 615 273 c 0
 597 256 597 256 572 256 c 0
 547 256 547 256 529 273 c 0
 512 291 512 291 512 316 c 0
0 188 m 0
 0 213 0 213 17 231 c 0
 35 248 35 248 60 248 c 0
 85 248 85 248 103 231 c 0
 120 213 120 213 120 188 c 0
 120 163 120 163 103 145 c 0
 85 128 85 128 60 128 c 0
 35 128 35 128 17 145 c 0
 0 163 0 163 0 188 c 0
256 188 m 0
 256 213 256 213 273 231 c 0
 291 248 291 248 316 248 c 0
 341 248 341 248 359 231 c 0
 376 213 376 213 376 188 c 0
 376 163 376 163 359 145 c 0
 341 128 341 128 316 128 c 0
 291 128 291 128 273 145 c 0
 256 163 256 163 256 188 c 0
512 188 m 0
 512 213 512 213 529 231 c 0
 547 248 547 248 572 248 c 0
 597 248 597 248 615 231 c 0
 632 213 632 213 632 188 c 0
 632 163 632 163 615 145 c 0
 597 128 597 128 572 128 c 0
 547 128 547 128 529 145 c 0
 512 163 512 163 512 188 c 0
128 60 m 0
 128 85 128 85 145 103 c 0
 163 120 163 120 188 120 c 0
 213 120 213 120 231 103 c 0
 248 85 248 85 248 60 c 0
 248 35 248 35 231 17 c 0
 213 0 213 0 188 0 c 0
 163 0 163 0 145 17 c 0
 128 35 128 35 128 60 c 0
256 60 m 0
 256 85 256 85 273 103 c 0
 291 120 291 120 316 120 c 0
 341 120 341 120 359 103 c 0
 376 85 376 85 376 60 c 0
 376 35 376 35 359 17 c 0
 341 0 341 0 316 0 c 0
 291 0 291 0 273 17 c 0
 256 35 256 35 256 60 c 0
384 60 m 0
 384 85 384 85 401 103 c 0
 419 120 419 120 444 120 c 0
 469 120 469 120 487 103 c 0
 504 85 504 85 504 60 c 0
 504 35 504 35 487 17 c 0
 469 0 469 0 444 0 c 0
 419 0 419 0 401 17 c 0
 384 35 384 35 384 60 c 0
EndSplineSet
EndChar
StartChar: uni0041
Encoding: 65 65 32
Width: 768
VWidth: 0
Flags: HW
LayerCount: 2
Fore
SplineSet
256 828 m 0
 256 853 256 853 273 871 c 0
 291 888 291 888 316 888 c 0
 341 888 341 888 359 871 c 0
 376 853 376 853 376 828 c 0
 376 803 376 803 359 785 c 0
 341 768 341 768 316 768 c 0
 291 768 291 768 273 785 c 0
 256 803 256 803 256 828 c 0
128 700 m 0
 128 725 128 725 145 743 c 0
 163 760 163 760 188 760 c 0
 213 760 213 760 231 743 c 0
 248 725 248 725 248 700 c 0
 248 675 248 675 231 657 c 0
 213 640 213 640 188 640 c 0
 163 640 163 640 145 657 c 0
 128 675 128 675 128 700 c 0
384 700 m 0
 384 725 384 725 401 743 c 0
 419 760 419 760 444 760 c 0
 469 760 469 760 487 743 c 0
 504 725 504 725 504 700 c 0
 504 675 504 675 487 657 c 0
 469 640 469 640 444 640 c 0
 419 640 419 640 401 657 c 0
 384 675 384 675 384 700 c 0
0 572 m 0
 0 597 0 597 17 615 c 0
 35 632 35 632 60 632 c 0
 85 632 85 632 103 615 c 0
 120 597 120 597 120 572 c 0
 120 547 120 547 103 529 c 0
 85 512 85 512 60 512 c 0
 35 512 35 512 17 529 c 0
 0 547 0 547 0 572 c 0
512 572 m 0
 512 597 512 597 529 615 c 0
 547 632 547 632 572 632 c 0
 597 632 597 632 615 615 c 0
 632 597 632 597 632 572 c 0
 632 547 632 547 615 529 c 0
 597 512 597 512 572 512 c 0
 547 512 547 512 529 529 c 0
 512 547 512 547 512 572 c 0
0 444 m 0
 0 469 0 469 17 487 c 0
 35 504 35 504 60 504 c 0
 85 504 85 504 103 487 c 0
 120 469 120 469 120 444 c 0
 120 419 120 419 103 401 c 0
 85 384 85 384 60 384 c 0
 35 384 35 384 17 401 c 0
 0 419 0 419 0 444 c 0
512 444 m 0
 512 469 512 469 529 487 c 0
 547 504 547 504 572 504 c 0
 597 504 597 504 615 487 c 0
 632 469 632 469 632 444 c 0
 632 419 632 419 615 401 c 0
 597 384 597 384 572 384 c 0
 547 384 547 384 529 401 c 0
 512 419 512 419 512 444 c 0
0 316 m 0
 0 341 0 341 17 359 c 0
 35 376 35 376 60 376 c 0
 85 376 85 376 103 359 c 0
 120 341 120 341 120 316 c 0
 120 291 120 291 103 273 c 0
 85 256 85 256 60 256 c 0
 35 256 35 256 17 273 c 0
 0 291 0 291 0 316 c 0
128 316 m 0
 128 341 128 341 145 359 c 0
 163 376 163 376 188 376 c 0
 213 376 213 376 231 359 c 0
 248 341 248 341 248 316 c 0
 248 291 248 291 231 273 c 0
 213 256 213 256 188 256 c 0
 163 256 163 256 145 273 c 0
 128 291 128 291 128 316 c 0
256 316 m 0
 256 341 256 341 273 359 c 0
 291 376 291 376 316 376 c 0
 341 376 341 376 359 359 c 0
 376 341 376 341 376 316 c 0
 376 291 376 291 359 273 c 0
 341 256 341 256 316 256 c 0
 291 256 291 256 273 273 c 0
 256 291 256 291 256 316 c 0
384 316 m 0
 384 341 384 341 401 359 c 0
 419 376 419 376 444 376 c 0
 469 376 469 376 487 359 c 0
 504 341 504 341 504 316 c 0
 504 291 504 291 487 273 c 0
 469 256 469 256 444 256 c 0
 419 256 419 256 401 273 c 0
 384 291 384 291 384 316 c 0
512 316 m 0
 512 341 512 341 529 359 c 0
 547 376 547 376 572 376 c 0
 597 376 597 376 615 359 c 0
 632 341 632 341 632 316 c 0
 632 291 632 291 615 273 c 0
 597 256 597 256 572 256 c 0
 547 256 547 256 529 273 c 0
 512 291 512 291 512 316 c 0
0 188 m 0
 0 213 0 213 17 231 c 0
 35 248 35 248 60 248 c 0
 85 248 85 248 103 231 c 0
 120 213 120 213 120 188 c 0
 120 163 120 163 103 145 c 0
 85 128 85 128 60 128 c 0
 35 128 35 128 17 145 c 0
 0 163 0 163 0 188 c 0
512 188 m 0
 512 213 512 213 529 231 c 0
 547 248 547 248 572 248 c 0
 597 248 597 248 615 231 c 0
 632 213 632 213 632 188 c 0
 632 163 632 163 615 145 c 0
 597 128 597 128 572 128 c 0
 547 128 547 128 529 145 c 0
 512 163 512 163 512 188 c 0
0 60 m 0
 0 85 0 85 17 103 c 0
 35 120 35 120 60 120 c 0
 85 120 85 120 103 103 c 0
 120 85 120 85 120 60 c 0
 120 35 120 35 103 17 c 0
 85 0 85 0 60 0 c 0
 35 0 35 0 17 17 c 0
 0 35 0 35 0 60 c 0
512 60 m 0
 512 85 512 85 529 103 c 0
 547 120 547 120 572 120 c 0
 597 120 597 120 615 103 c 0
 632 85 632 85 632 60 c 0
 632 35 632 35 615 17 c 0
 597 0 597 0 572 0 c 0
 547 0 547 0 529 17 c 0
 512 35 512 35 512 60 c 0
EndSplineSet
EndChar
StartChar: uni0042
Encoding: 66 66 33
Width: 768
VWidth: 0
Flags: HW
LayerCount: 2
Fore
SplineSet
0 828 m 0
 0 853 0 853 17 871 c 0
 35 888 35 888 60 888 c 0
 85 888 85 888 103 871 c 0
 120 853 120 853 120 828 c 0
 120 803 120 803 103 785 c 0
 85 768 85 768 60 768 c 0
 35 768 35 768 17 785 c 0
 0 803 0 803 0 828 c 0
128 828 m 0
 128 853 128 853 145 871 c 0
 163 888 163 888 188 888 c 0
 213 888 213 888 231 871 c 0
 248 853 248 853 248 828 c 0
 248 803 248 803 231 785 c 0
 213 768 213 768 188 768 c 0
 163 768 163 768 145 785 c 0
 128 803 128 803 128 828 c 0
256 828 m 0
 256 853 256 853 273 871 c 0
 291 888 291 888 316 888 c 0
 341 888 341 888 359 871 c 0
 376 853 376 853 376 828 c 0
 376 803 376 803 359 785 c 0
 341 768 341 768 316 768 c 0
 291 768 291 768 273 785 c 0
 256 803 256 803 256 828 c 0
384 828 m 0
 384 853 384 853 401 871 c 0
 419 888 419 888 444 888 c 0
 469 888 469 888 487 871 c 0
 504 853 504 853 504 828 c 0
 504 803 504 803 487 785 c 0
 469 768 469 768 444 768 c 0
 419 768 419 768 401 785 c 0
 384 803 384 803 384 828 c 0
128 700 m 0
 128 725 128 725 145 743 c 0
 163 760 163 760 188 760 c 0
 213 760 213 760 231 743 c 0
 248 725 248 725 248 700 c 0
 248 675 248 675 231 657 c 0
 213 640 213 640 188 640 c 0
 163 640 163 640 145 657 c 0
 128 675 128 675 128 700 c 0
512 700 m 0
 512 725 512 725 529 743 c 0
 547 760 547 760 572 760 c 0
 597 760 597 760 615 743 c 0
 632 725 632 725 632 700 c 0
 632 675 632 675 615 657 c 0
 597 640 597 640 572 640 c 0
 547 640 547 640 529 657 c 0
 512 675 512 675 512 700 c 0
128 572 m 0
 128 597 128 597 145 615 c 0
 163 632 163 632 188 632 c 0
 213 632 213 632 231 615 c 0
 248 597 248 597 248 572 c 0
 248 547 248 547 231 529 c 0
 213 512 213 512 188 512 c 0
 163 512 163 512 145 529 c 0
 128 547 128 547 128 572 c 0
512 572 m 0
 512 597 512 597 529 615 c 0
 547 632 547 632 572 632 c 0
 597 632 597 632 615 615 c 0
 632 597 632 597 632 572 c 0
 632 547 632 547 615 529 c 0
 597 512 597 512 572 512 c 0
 547 512 547 512 529 529 c 0
 512 547 512 547 512 572 c 0
128 444 m 0
 128 469 128 469 145 487 c 0
 163 504 163 504 188 504 c 0
 213 504 213 504 231 487 c 0
 248 469 248 469 248 444 c 0
 248 419 248 419 231 401 c 0
 213 384 213 384 188 384 c 0
 163 384 163 384 145 401 c 0
 128 419 128 419 128 444 c 0
256 444 m 0
 256 469 256 469 273 487 c 0
 291 504 291 504 316 504 c 0
 341 504 341 504 359 487 c 0
 376 469 376 469 376 444 c 0
 376 419 376 419 359 401 c 0
 341 384 341 384 316 384 c 0
 291 384 291 384 273 401 c 0
 256 419 256 419 256 444 c 0
384 444 m 0
 384 469 384 469 401 487 c 0
 419 504 419 504 444 504 c 0
 469 504 469 504 487 487 c 0
 504 469 504 469 504 444 c 0
 504 419 504 419 487 401 c 0
 469 384 469 384 444 384 c 0
 419 384 419 384 401 401 c 0
 384 419 384 419 384 444 c 0
128 316 m 0
 128 341 128 341 145 359 c 0
 163 376 163 376 188 376 c 0
 213 376 213 376 231 359 c 0
 248 341 248 341 248 316 c 0
 248 291 248 291 231 273 c 0
 213 256 213 256 188 256 c 0
 163 256 163 256 145 273 c 0
 128 291 128 291 128 316 c 0
512 316 m 0
 512 341 512 341 529 359 c 0
 547 376 547 376 572 376 c 0
 597 376 597 376 615 359 c 0
 632 341 632 341 632 316 c 0
 632 291 632 291 615 273 c 0
 597 256 597 256 572 256 c 0
 547 256 547 256 529 273 c 0
 512 291 512 291 512 316 c 0
128 188 m 0
 128 213 128 213 145 231 c 0
 163 248 163 248 188 248 c 0
 213 248 213 248 231 231 c 0
 248 213 248 213 248 188 c 0
 248 163 248 163 231 145 c 0
 213 128 213 128 188 128 c 0
 163 128 163 128 145 145 c 0
 128 163 128 163 128 188 c 0
512 188 m 0
 512 213 512 213 529 231 c 0
 547 248 547 248 572 248 c 0
 597 248 597 248 615 231 c 0
 632 213 632 213 632 188 c 0
 632 163 632 163 615 145 c 0
 597 128 597 128 572 128 c 0
 547 128 547 128 529 145 c 0
 512 163 512 163 512 188 c 0
0 60 m 0
 0 85 0 85 17 103 c 0
 35 120 35 120 60 120 c 0
 85 120 85 120 103 103 c 0
 120 85 120 85 120 60 c 0
 120 35 120 35 103 17 c 0
 85 0 85 0 60 0 c 0
 35 0 35 0 17 17 c 0
 0 35 0 35 0 60 c 0
128 60 m 0
 128 85 128 85 145 103 c 0
 163 120 163 120 188 120 c 0
 213 120 213 120 231 103 c 0
 248 85 248 85 248 60 c 0
 248 35 248 35 231 17 c 0
 213 0 213 0 188 0 c 0
 163 0 163 0 145 17 c 0
 128 35 128 35 128 60 c 0
256 60 m 0
 256 85 256 85 273 103 c 0
 291 120 291 120 316 120 c 0
 341 120 341 120 359 103 c 0
 376 85 376 85 376 60 c 0
 376 35 376 35 359 17 c 0
 341 0 341 0 316 0 c 0
 291 0 291 0 273 17 c 0
 256 35 256 35 256 60 c 0
384 60 m 0
 384 85 384 85 401 103 c 0
 419 120 419 120 444 120 c 0
 469 120 469 120 487 103 c 0
 504 85 504 85 504 60 c 0
 504 35 504 35 487 17 c 0
 469 0 469 0 444 0 c 0
 419 0 419 0 401 17 c 0
 384 35 384 35 384 60 c 0
EndSplineSet
EndChar
StartChar: uni0043
Encoding: 67 67 34
Width: 768
VWidth: 0
Flags: HW
LayerCount: 2
Fore
SplineSet
128 828 m 0
 128 853 128 853 145 871 c 0
 163 888 163 888 188 888 c 0
 213 888 213 888 231 871 c 0
 248 853 248 853 248 828 c 0
 248 803 248 803 231 785 c 0
 213 768 213 768 188 768 c 0
 163 768 163 768 145 785 c 0
 128 803 128 803 128 828 c 0
256 828 m 0
 256 853 256 853 273 871 c 0
 291 888 291 888 316 888 c 0
 341 888 341 888 359 871 c 0
 376 853 376 853 376 828 c 0
 376 803 376 803 359 785 c 0
 341 768 341 768 316 768 c 0
 291 768 291 768 273 785 c 0
 256 803 256 803 256 828 c 0
384 828 m 0
 384 853 384 853 401 871 c 0
 419 888 419 888 444 888 c 0
 469 888 469 888 487 871 c 0
 504 853 504 853 504 828 c 0
 504 803 504 803 487 785 c 0
 469 768 469 768 444 768 c 0
 419 768 419 768 401 785 c 0
 384 803 384 803 384 828 c 0
0 700 m 0
 0 725 0 725 17 743 c 0
 35 760 35 760 60 760 c 0
 85 760 85 760 103 743 c 0
 120 725 120 725 120 700 c 0
 120 675 120 675 103 657 c 0
 85 640 85 640 60 640 c 0
 35 640 35 640 17 657 c 0
 0 675 0 675 0 700 c 0
512 700 m 0
 512 725 512 725 529 743 c 0
 547 760 547 760 572 760 c 0
 597 760 597 760 615 743 c 0
 632 725 632 725 632 700 c 0
 632 675 632 675 615 657 c 0
 597 640 597 640 572 640 c 0
 547 640 547 640 529 657 c 0
 512 675 512 675 512 700 c 0
0 572 m 0
 0 597 0 597 17 615 c 0
 35 632 35 632 60 632 c 0
 85 632 85 632 103 615 c 0
 120 597 120 597 120 572 c 0
 120 547 120 547 103 529 c 0
 85 512 85 512 60 512 c 0
 35 512 35 512 17 529 c 0
 0 547 0 547 0 572 c 0
0 444 m 0
 0 469 0 469 17 487 c 0
 35 504 35 504 60 504 c 0
 85 504 85 504 103 487 c 0
 120 469 120 469 120 444 c 0
 120 419 120 419 103 401 c 0
 85 384 85 384 60 384 c 0
 35 384 35 384 17 401 c 0
 0 419 0 419 0 444 c 0
0 316 m 0
 0 341 0 341 17 359 c 0
 35 376 35 376 60 376 c 0
 85 376 85 376 103 359 c 0
 120 341 120 341 120 316 c 0
 120 291 120 291 103 273 c 0
 85 256 85 256 60 256 c 0
 35 256 35 256 17 273 c 0
 0 291 0 291 0 316 c 0
0 188 m 0
 0 213 0 213 17 231 c 0
 35 248 35 248 60 248 c 0
 85 248 85 248 103 231 c 0
 120 213 120 213 120 188 c 0
 120 163 120 163 103 145 c 0
 85 128 85 128 60 128 c 0
 35 128 35 128 17 145 c 0
 0 163 0 163 0 188 c 0
512 188 m 0
 512 213 512 213 529 231 c 0
 547 248 547 248 572 248 c 0
 597 248 597 248 615 231 c 0
 632 213 632 213 632 188 c 0
 632 163 632 163 615 145 c 0
 597 128 597 128 572 128 c 0
 547 128 547 128 529 145 c 0
 512 163 512 163 512 188 c 0
128 60 m 0
 128 85 128 85 145 103 c 0
 163 120 163 120 188 120 c 0
 213 120 213 120 231 103 c 0
 248 85 248 85 248 60 c 0
 248 35 248 35 231 17 c 0
 213 0 213 0 188 0 c 0
 163 0 163 0 145 17 c 0
 128 35 128 35 128 60 c 0
256 60 m 0
 256 85 256 85 273 103 c 0
 291 120 291 120 316 120 c 0
 341 120 341 120 359 103 c 0
 376 85 376 85 376 60 c 0
 376 35 376 35 359 17 c 0
 341 0 341 0 316 0 c 0
 291 0 291 0 273 17 c 0
 256 35 256 35 256 60 c 0
384 60 m 0
 384 85 384 85 401 103 c 0
 419 120 419 120 444 120 c 0
 469 120 469 120 487 103 c 0
 504 85 504 85 504 60 c 0
 504 35 504 35 487 17 c 0
 469 0 469 0 444 0 c 0
 419 0 419 0 401 17 c 0
 384 35 384 35 384 60 c 0
EndSplineSet
EndChar
StartChar: uni0044
Encoding: 68 68 35
Width: 768
VWidth: 0
Flags: HW
LayerCount: 2
Fore
SplineSet
0 828 m 0
 0 853 0 853 17 871 c 0
 35 888 35 888 60 888 c 0
 85 888 85 888 103 871 c 0
 120 853 120 853 120 828 c 0
 120 803 120 803 103 785 c 0
 85 768 85 768 60 768 c 0
 35 768 35 768 17 785 c 0
 0 803 0 803 0 828 c 0
128 828 m 0
 128 853 128 853 145 871 c 0
 163 888 163 888 188 888 c 0
 213 888 213 888 231 871 c 0
 248 853 248 853 248 828 c 0
 248 803 248 803 231 785 c 0
 213 768 213 768 188 768 c 0
 163 768 163 768 145 785 c 0
 128 803 128 803 128 828 c 0
256 828 m 0
 256 853 256 853 273 871 c 0
 291 888 291 888 316 888 c 0
 341 888 341 888 359 871 c 0
 376 853 376 853 376 828 c 0
 376 803 376 803 359 785 c 0
 341 768 341 768 316 768 c 0
 291 768 291 768 273 785 c 0
 256 803 256 803 256 828 c 0
384 828 m 0
 384 853 384 853 401 871 c 0
 419 888 419 888 444 888 c 0
 469 888 469 888 487 871 c 0
 504 853 504 853 504 828 c 0
 504 803 504 803 487 785 c 0
 469 768 469 768 444 768 c 0
 419 768 419 768 401 785 c 0
 384 803 384 803 384 828 c 0
128 700 m 0
 128 725 128 725 145 743 c 0
 163 760 163 760 188 760 c 0
 213 760 213 760 231 743 c 0
 248 725 248 725 248 700 c 0
 248 675 248 675 231 657 c 0
 213 640 213 640 188 640 c 0
 163 640 163 640 145 657 c 0
 128 675 128 675 128 700 c 0
512 700 m 0
 512 725 512 725 529 743 c 0
 547 760 547 760 572 760 c 0
 597 760 597 760 615 743 c 0
 632 725 632 725 632 700 c 0
 632 675 632 675 615 657 c 0
 597 640 597 640 572 640 c 0
 547 640 547 640 529 657 c 0
 512 675 512 675 512 700 c 0
128 572 m 0
 128 597 128 597 145 615 c 0
 163 632 163 632 188 632 c 0
 213 632 213 632 231 615 c 0
 248 597 248 597 248 572 c 0
 248 547 248 547 231 529 c 0
 213 512 213 512 188 512 c 0
 163 512 163 512 145 529 c 0
 128 547 128 547 128 572 c 0
512 572 m 0
 512 597 512 597 529 615 c 0
 547 632 547 632 572 632 c 0
 597 632 597 632 615 615 c 0
 632 597 632 597 632 572 c 0
 632 547 632 547 615 529 c 0
 597 512 597 512 572 512 c 0
 547 512 547 512 529 529 c 0
 512 547 512 547 512 572 c 0
128 444 m 0
 128 469 128 469 145 487 c 0
 163 504 163 504 188 504 c 0
 213 504 213 504 231 487 c 0
 248 469 248 469 248 444 c 0
 248 419 248 419 231 401 c 0
 213 384 213 384 188 384 c 0
 163 384 163 384 145 401 c 0
 128 419 128 419 128 444 c 0
512 444 m 0
 512 469 512 469 529 487 c 0
 547 504 547 504 572 504 c 0
 597 504 597 504 615 487 c 0
 632 469 632 469 632 444 c 0
 632 419 632 419 615 401 c 0
 597 384 597 384 572 384 c 0
 547 384 547 384 529 401 c 0
 512 419 512 419 512 444 c 0
128 316 m 0
 128 341 128 341 145 359 c 0
 163 376 163 376 188 376 c 0
 213 376 213 376 231 359 c 0
 248 341 248 341 248 316 c 0
 248 291 248 291 231 273 c 0
 213 256 213 256 188 256 c 0
 163 256 163 256 145 273 c 0
 128 291 128 291 128 316 c 0
512 316 m 0
 512 341 512 341 529 359 c 0
 547 376 547 376 572 376 c 0
 597 376 597 376 615 359 c 0
 632 341 632 341 632 316 c 0
 632 291 632 291 615 273 c 0
 597 256 597 256 572 256 c 0
 547 256 547 256 529 273 c 0
 512 291 512 291 512 316 c 0
128 188 m 0
 128 213 128 213 145 231 c 0
 163 248 163 248 188 248 c 0
 213 248 213 248 231 231 c 0
 248 213 248 213 248 188 c 0
 248 163 248 163 231 145 c 0
 213 128 213 128 188 128 c 0
 163 128 163 128 145 145 c 0
 128 163 128 163 128 188 c 0
512 188 m 0
 512 213 512 213 529 231 c 0
 547 248 547 248 572 248 c 0
 597 248 597 248 615 231 c 0
 632 213 632 213 632 188 c 0
 632 163 632 163 615 145 c 0
 597 128 597 128 572 128 c 0
 547 128 547 128 529 145 c 0
 512 163 512 163 512 188 c 0
0 60 m 0
 0 85 0 85 17 103 c 0
 35 120 35 120 60 120 c 0
 85 120 85 120 103 103 c 0
 120 85 120 85 120 60 c 0
 120 35 120 35 103 17 c 0
 85 0 85 0 60 0 c 0
 35 0 35 0 17 17 c 0
 0 35 0 35 0 60 c 0
128 60 m 0
 128 85 128 85 145 103 c 0
 163 120 163 120 188 120 c 0
 213 120 213 120 231 103 c 0
 248 85 248 85 248 60 c 0
 248 35 248 35 231 17 c 0
 213 0 213 0 188 0 c 0
 163 0 163 0 145 17 c 0
 128 35 128 35 128 60 c 0
256 60 m 0
 256 85 256 85 273 103 c 0
 291 120 291 120 316 120 c 0
 341 120 341 120 359 103 c 0
 376 85 376 85 376 60 c 0
 376 35 376 35 359 17 c 0
 341 0 341 0 316 0 c 0
 291 0 291 0 273 17 c 0
 256 35 256 35 256 60 c 0
384 60 m 0
 384 85 384 85 401 103 c 0
 419 120 419 120 444 120 c 0
 469 120 469 120 487 103 c 0
 504 85 504 85 504 60 c 0
 504 35 504 35 487 17 c 0
 469 0 469 0 444 0 c 0
 419 0 419 0 401 17 c 0
 384 35 384 35 384 60 c 0
EndSplineSet
EndChar
StartChar: uni0045
Encoding: 69 69 36
Width: 768
VWidth: 0
Flags: HW
LayerCount: 2
Fore
SplineSet
0 828 m 0
 0 853 0 853 17 871 c 0
 35 888 35 888 60 888 c 0
 85 888 85 888 103 871 c 0
 120 853 120 853 120 828 c 0
 120 803 120 803 103 785 c 0
 85 768 85 768 60 768 c 0
 35 768 35 768 17 785 c 0
 0 803 0 803 0 828 c 0
128 828 m 0
 128 853 128 853 145 871 c 0
 163 888 163 888 188 888 c 0
 213 888 213 888 231 871 c 0
 248 853 248 853 248 828 c 0
 248 803 248 803 231 785 c 0
 213 768 213 768 188 768 c 0
 163 768 163 768 145 785 c 0
 128 803 128 803 128 828 c 0
256 828 m 0
 256 853 256 853 273 871 c 0
 291 888 291 888 316 888 c 0
 341 888 341 888 359 871 c 0
 376 853 376 853 376 828 c 0
 376 803 376 803 359 785 c 0
 341 768 341 768 316 768 c 0
 291 768 291 768 273 785 c 0
 256 803 256 803 256 828 c 0
384 828 m 0
 384 853 384 853 401 871 c 0
 419 888 419 888 444 888 c 0
 469 888 469 888 487 871 c 0
 504 853 504 853 504 828 c 0
 504 803 504 803 487 785 c 0
 469 768 469 768 444 768 c 0
 419 768 419 768 401 785 c 0
 384 803 384 803 384 828 c 0
512 828 m 0
 512 853 512 853 529 871 c 0
 547 888 547 888 572 888 c 0
 597 888 597 888 615 871 c 0
 632 853 632 853 632 828 c 0
 632 803 632 803 615 785 c 0
 597 768 597 768 572 768 c 0
 547 768 547 768 529 785 c 0
 512 803 512 803 512 828 c 0
0 700 m 0
 0 725 0 725 17 743 c 0
 35 760 35 760 60 760 c 0
 85 760 85 760 103 743 c 0
 120 725 120 725 120 700 c 0
 120 675 120 675 103 657 c 0
 85 640 85 640 60 640 c 0
 35 640 35 640 17 657 c 0
 0 675 0 675 0 700 c 0
0 572 m 0
 0 597 0 597 17 615 c 0
 35 632 35 632 60 632 c 0
 85 632 85 632 103 615 c 0
 120 597 120 597 120 572 c 0
 120 547 120 547 103 529 c 0
 85 512 85 512 60 512 c 0
 35 512 35 512 17 529 c 0
 0 547 0 547 0 572 c 0
0 444 m 0
 0 469 0 469 17 487 c 0
 35 504 35 504 60 504 c 0
 85 504 85 504 103 487 c 0
 120 469 120 469 120 444 c 0
 120 419 120 419 103 401 c 0
 85 384 85 384 60 384 c 0
 35 384 35 384 17 401 c 0
 0 419 0 419 0 444 c 0
128 444 m 0
 128 469 128 469 145 487 c 0
 163 504 163 504 188 504 c 0
 213 504 213 504 231 487 c 0
 248 469 248 469 248 444 c 0
 248 419 248 419 231 401 c 0
 213 384 213 384 188 384 c 0
 163 384 163 384 145 401 c 0
 128 419 128 419 128 444 c 0
256 444 m 0
 256 469 256 469 273 487 c 0
 291 504 291 504 316 504 c 0
 341 504 341 504 359 487 c 0
 376 469 376 469 376 444 c 0
 376 419 376 419 359 401 c 0
 341 384 341 384 316 384 c 0
 291 384 291 384 273 401 c 0
 256 419 256 419 256 444 c 0
0 316 m 0
 0 341 0 341 17 359 c 0
 35 376 35 376 60 376 c 0
 85 376 85 376 103 359 c 0
 120 341 120 341 120 316 c 0
 120 291 120 291 103 273 c 0
 85 256 85 256 60 256 c 0
 35 256 35 256 17 273 c 0
 0 291 0 291 0 316 c 0
0 188 m 0
 0 213 0 213 17 231 c 0
 35 248 35 248 60 248 c 0
 85 248 85 248 103 231 c 0
 120 213 120 213 120 188 c 0
 120 163 120 163 103 145 c 0
 85 128 85 128 60 128 c 0
 35 128 35 128 17 145 c 0
 0 163 0 163 0 188 c 0
0 60 m 0
 0 85 0 85 17 103 c 0
 35 120 35 120 60 120 c 0
 85 120 85 120 103 103 c 0
 120 85 120 85 120 60 c 0
 120 35 120 35 103 17 c 0
 85 0 85 0 60 0 c 0
 35 0 35 0 17 17 c 0
 0 35 0 35 0 60 c 0
128 60 m 0
 128 85 128 85 145 103 c 0
 163 120 163 120 188 120 c 0
 213 120 213 120 231 103 c 0
 248 85 248 85 248 60 c 0
 248 35 248 35 231 17 c 0
 213 0 213 0 188 0 c 0
 163 0 163 0 145 17 c 0
 128 35 128 35 128 60 c 0
256 60 m 0
 256 85 256 85 273 103 c 0
 291 120 291 120 316 120 c 0
 341 120 341 120 359 103 c 0
 376 85 376 85 376 60 c 0
 376 35 376 35 359 17 c 0
 341 0 341 0 316 0 c 0
 291 0 291 0 273 17 c 0
 256 35 256 35 256 60 c 0
384 60 m 0
 384 85 384 85 401 103 c 0
 419 120 419 120 444 120 c 0
 469 120 469 120 487 103 c 0
 504 85 504 85 504 60 c 0
 504 35 504 35 487 17 c 0
 469 0 469 0 444 0 c 0
 419 0 419 0 401 17 c 0
 384 35 384 35 384 60 c 0
512 60 m 0
 512 85 512 85 529 103 c 0
 547 120 547 120 572 120 c 0
 597 120 597 120 615 103 c 0
 632 85 632 85 632 60 c 0
 632 35 632 35 615 17 c 0
 597 0 597 0 572 0 c 0
 547 0 547 0 529 17 c 0
 512 35 512 35 512 60 c 0
EndSplineSet
EndChar
StartChar: uni0046
Encoding: 70 70 37
Width: 768
VWidth: 0
Flags: HW
LayerCount: 2
Fore
SplineSet
0 828 m 0
 0 853 0 853 17 871 c 0
 35 888 35 888 60 888 c 0
 85 888 85 888 103 871 c 0
 120 853 120 853 120 828 c 0
 120 803 120 803 103 785 c 0
 85 768 85 768 60 768 c 0
 35 768 35 768 17 785 c 0
 0 803 0 803 0 828 c 0
128 828 m 0
 128 853 128 853 145 871 c 0
 163 888 163 888 188 888 c 0
 213 888 213 888 231 871 c 0
 248 853 248 853 248 828 c 0
 248 803 248 803 231 785 c 0
 213 768 213 768 188 768 c 0
 163 768 163 768 145 785 c 0
 128 803 128 803 128 828 c 0
256 828 m 0
 256 853 256 853 273 871 c 0
 291 888 291 888 316 888 c 0
 341 888 341 888 359 871 c 0
 376 853 376 853 376 828 c 0
 376 803 376 803 359 785 c 0
 341 768 341 768 316 768 c 0
 291 768 291 768 273 785 c 0
 256 803 256 803 256 828 c 0
384 828 m 0
 384 853 384 853 401 871 c 0
 419 888 419 888 444 888 c 0
 469 888 469 888 487 871 c 0
 504 853 504 853 504 828 c 0
 504 803 504 803 487 785 c 0
 469 768 469 768 444 768 c 0
 419 768 419 768 401 785 c 0
 384 803 384 803 384 828 c 0
512 828 m 0
 512 853 512 853 529 871 c 0
 547 888 547 888 572 888 c 0
 597 888 597 888 615 871 c 0
 632 853 632 853 632 828 c 0
 632 803 632 803 615 785 c 0
 597 768 597 768 572 768 c 0
 547 768 547 768 529 785 c 0
 512 803 512 803 512 828 c 0
0 700 m 0
 0 725 0 725 17 743 c 0
 35 760 35 760 60 760 c 0
 85 760 85 760 103 743 c 0
 120 725 120 725 120 700 c 0
 120 675 120 675 103 657 c 0
 85 640 85 640 60 640 c 0
 35 640 35 640 17 657 c 0
 0 675 0 675 0 700 c 0
0 572 m 0
 0 597 0 597 17 615 c 0
 35 632 35 632 60 632 c 0
 85 632 85 632 103 615 c 0
 120 597 120 597 120 572 c 0
 120 547 120 547 103 529 c 0
 85 512 85 512 60 512 c 0
 35 512 35 512 17 529 c 0
 0 547 0 547 0 572 c 0
0 444 m 0
 0 469 0 469 17 487 c 0
 35 504 35 504 60 504 c 0
 85 504 85 504 103 487 c 0
 120 469 120 469 120 444 c 0
 120 419 120 419 103 401 c 0
 85 384 85 384 60 384 c 0
 35 384 35 384 17 401 c 0
 0 419 0 419 0 444 c 0
128 444 m 0
 128 469 128 469 145 487 c 0
 163 504 163 504 188 504 c 0
 213 504 213 504 231 487 c 0
 248 469 248 469 248 444 c 0
 248 419 248 419 231 401 c 0
 213 384 213 384 188 384 c 0
 163 384 163 384 145 401 c 0
 128 419 128 419 128 444 c 0
256 444 m 0
 256 469 256 469 273 487 c 0
 291 504 291 504 316 504 c 0
 341 504 341 504 359 487 c 0
 376 469 376 469 376 444 c 0
 376 419 376 419 359 401 c 0
 341 384 341 384 316 384 c 0
 291 384 291 384 273 401 c 0
 256 419 256 419 256 444 c 0
0 316 m 0
 0 341 0 341 17 359 c 0
 35 376 35 376 60 376 c 0
 85 376 85 376 103 359 c 0
 120 341 120 341 120 316 c 0
 120 291 120 291 103 273 c 0
 85 256 85 256 60 256 c 0
 35 256 35 256 17 273 c 0
 0 291 0 291 0 316 c 0
0 188 m 0
 0 213 0 213 17 231 c 0
 35 248 35 248 60 248 c 0
 85 248 85 248 103 231 c 0
 120 213 120 213 120 188 c 0
 120 163 120 163 103 145 c 0
 85 128 85 128 60 128 c 0
 35 128 35 128 17 145 c 0
 0 163 0 163 0 188 c 0
0 60 m 0
 0 85 0 85 17 103 c 0
 35 120 35 120 60 120 c 0
 85 120 85 120 103 103 c 0
 120 85 120 85 120 60 c 0
 120 35 120 35 103 17 c 0
 85 0 85 0 60 0 c 0
 35 0 35 0 17 17 c 0
 0 35 0 35 0 60 c 0
EndSplineSet
EndChar
StartChar: uni0047
Encoding: 71 71 38
Width: 768
VWidth: 0
Flags: HW
LayerCount: 2
Fore
SplineSet
128 828 m 0
 128 853 128 853 145 871 c 0
 163 888 163 888 188 888 c 0
 213 888 213 888 231 871 c 0
 248 853 248 853 248 828 c 0
 248 803 248 803 231 785 c 0
 213 768 213 768 188 768 c 0
 163 768 163 768 145 785 c 0
 128 803 128 803 128 828 c 0
256 828 m 0
 256 853 256 853 273 871 c 0
 291 888 291 888 316 888 c 0
 341 888 341 888 359 871 c 0
 376 853 376 853 376 828 c 0
 376 803 376 803 359 785 c 0
 341 768 341 768 316 768 c 0
 291 768 291 768 273 785 c 0
 256 803 256 803 256 828 c 0
384 828 m 0
 384 853 384 853 401 871 c 0
 419 888 419 888 444 888 c 0
 469 888 469 888 487 871 c 0
 504 853 504 853 504 828 c 0
 504 803 504 803 487 785 c 0
 469 768 469 768 444 768 c 0
 419 768 419 768 401 785 c 0
 384 803 384 803 384 828 c 0
512 828 m 0
 512 853 512 853 529 871 c 0
 547 888 547 888 572 888 c 0
 597 888 597 888 615 871 c 0
 632 853 632 853 632 828 c 0
 632 803 632 803 615 785 c 0
 597 768 597 768 572 768 c 0
 547 768 547 768 529 785 c 0
 512 803 512 803 512 828 c 0
0 700 m 0
 0 725 0 725 17 743 c 0
 35 760 35 760 60 760 c 0
 85 760 85 760 103 743 c 0
 120 725 120 725 120 700 c 0
 120 675 120 675 103 657 c 0
 85 640 85 640 60 640 c 0
 35 640 35 640 17 657 c 0
 0 675 0 675 0 700 c 0
0 572 m 0
 0 597 0 597 17 615 c 0
 35 632 35 632 60 632 c 0
 85 632 85 632 103 615 c 0
 120 597 120 597 120 572 c 0
 120 547 120 547 103 529 c 0
 85 512 85 512 60 512 c 0
 35 512 35 512 17 529 c 0
 0 547 0 547 0 572 c 0
0 444 m 0
 0 469 0 469 17 487 c 0
 35 504 35 504 60 504 c 0
 85 504 85 504 103 487 c 0
 120 469 120 469 120 444 c 0
 120 419 120 419 103 401 c 0
 85 384 85 384 60 384 c 0
 35 384 35 384 17 401 c 0
 0 419 0 419 0 444 c 0
384 444 m 0
 384 469 384 469 401 487 c 0
 419 504 419 504 444 504 c 0
 469 504 469 504 487 487 c 0
 504 469 504 469 504 444 c 0
 504 419 504 419 487 401 c 0
 469 384 469 384 444 384 c 0
 419 384 419 384 401 401 c 0
 384 419 384 419 384 444 c 0
512 444 m 0
 512 469 512 469 529 487 c 0
 547 504 547 504 572 504 c 0
 597 504 597 504 615 487 c 0
 632 469 632 469 632 444 c 0
 632 419 632 419 615 401 c 0
 597 384 597 384 572 384 c 0
 547 384 547 384 529 401 c 0
 512 419 512 419 512 444 c 0
0 316 m 0
 0 341 0 341 17 359 c 0
 35 376 35 376 60 376 c 0
 85 376 85 376 103 359 c 0
 120 341 120 341 120 316 c 0
 120 291 120 291 103 273 c 0
 85 256 85 256 60 256 c 0
 35 256 35 256 17 273 c 0
 0 291 0 291 0 316 c 0
512 316 m 0
 512 341 512 341 529 359 c 0
 547 376 547 376 572 376 c 0
 597 376 597 376 615 359 c 0
 632 341 632 341 632 316 c 0
 632 291 632 291 615 273 c 0
 597 256 597 256 572 256 c 0
 547 256 547 256 529 273 c 0
 512 291 512 291 512 316 c 0
0 188 m 0
 0 213 0 213 17 231 c 0
 35 248 35 248 60 248 c 0
 85 248 85 248 103 231 c 0
 120 213 120 213 120 188 c 0
 120 163 120 163 103 145 c 0
 85 128 85 128 60 128 c 0
 35 128 35 128 17 145 c 0
 0 163 0 163 0 188 c 0
512 188 m 0
 512 213 512 213 529 231 c 0
 547 248 547 248 572 248 c 0
 597 248 597 248 615 231 c 0
 632 213 632 213 632 188 c 0
 632 163 632 163 615 145 c 0
 597 128 597 128 572 128 c 0
 547 128 547 128 529 145 c 0
 512 163 512 163 512 188 c 0
128 60 m 0
 128 85 128 85 145 103 c 0
 163 120 163 120 188 120 c 0
 213 120 213 120 231 103 c 0
 248 85 248 85 248 60 c 0
 248 35 248 35 231 17 c 0
 213 0 213 0 188 0 c 0
 163 0 163 0 145 17 c 0
 128 35 128 35 128 60 c 0
256 60 m 0
 256 85 256 85 273 103 c 0
 291 120 291 120 316 120 c 0
 341 120 341 120 359 103 c 0
 376 85 376 85 376 60 c 0
 376 35 376 35 359 17 c 0
 341 0 341 0 316 0 c 0
 291 0 291 0 273 17 c 0
 256 35 256 35 256 60 c 0
384 60 m 0
 384 85 384 85 401 103 c 0
 419 120 419 120 444 120 c 0
 469 120 469 120 487 103 c 0
 504 85 504 85 504 60 c 0
 504 35 504 35 487 17 c 0
 469 0 469 0 444 0 c 0
 419 0 419 0 401 17 c 0
 384 35 384 35 384 60 c 0
512 60 m 0
 512 85 512 85 529 103 c 0
 547 120 547 120 572 120 c 0
 597 120 597 120 615 103 c 0
 632 85 632 85 632 60 c 0
 632 35 632 35 615 17 c 0
 597 0 597 0 572 0 c 0
 547 0 547 0 529 17 c 0
 512 35 512 35 512 60 c 0
EndSplineSet
EndChar
StartChar: uni0048
Encoding: 72 72 39
Width: 768
VWidth: 0
Flags: HW
LayerCount: 2
Fore
SplineSet
0 828 m 0
 0 853 0 853 17 871 c 0
 35 888 35 888 60 888 c 0
 85 888 85 888 103 871 c 0
 120 853 120 853 120 828 c 0
 120 803 120 803 103 785 c 0
 85 768 85 768 60 768 c 0
 35 768 35 768 17 785 c 0
 0 803 0 803 0 828 c 0
512 828 m 0
 512 853 512 853 529 871 c 0
 547 888 547 888 572 888 c 0
 597 888 597 888 615 871 c 0
 632 853 632 853 632 828 c 0
 632 803 632 803 615 785 c 0
 597 768 597 768 572 768 c 0
 547 768 547 768 529 785 c 0
 512 803 512 803 512 828 c 0
0 700 m 0
 0 725 0 725 17 743 c 0
 35 760 35 760 60 760 c 0
 85 760 85 760 103 743 c 0
 120 725 120 725 120 700 c 0
 120 675 120 675 103 657 c 0
 85 640 85 640 60 640 c 0
 35 640 35 640 17 657 c 0
 0 675 0 675 0 700 c 0
512 700 m 0
 512 725 512 725 529 743 c 0
 547 760 547 760 572 760 c 0
 597 760 597 760 615 743 c 0
 632 725 632 725 632 700 c 0
 632 675 632 675 615 657 c 0
 597 640 597 640 572 640 c 0
 547 640 547 640 529 657 c 0
 512 675 512 675 512 700 c 0
0 572 m 0
 0 597 0 597 17 615 c 0
 35 632 35 632 60 632 c 0
 85 632 85 632 103 615 c 0
 120 597 120 597 120 572 c 0
 120 547 120 547 103 529 c 0
 85 512 85 512 60 512 c 0
 35 512 35 512 17 529 c 0
 0 547 0 547 0 572 c 0
512 572 m 0
 512 597 512 597 529 615 c 0
 547 632 547 632 572 632 c 0
 597 632 597 632 615 615 c 0
 632 597 632 597 632 572 c 0
 632 547 632 547 615 529 c 0
 597 512 597 512 572 512 c 0
 547 512 547 512 529 529 c 0
 512 547 512 547 512 572 c 0
0 444 m 0
 0 469 0 469 17 487 c 0
 35 504 35 504 60 504 c 0
 85 504 85 504 103 487 c 0
 120 469 120 469 120 444 c 0
 120 419 120 419 103 401 c 0
 85 384 85 384 60 384 c 0
 35 384 35 384 17 401 c 0
 0 419 0 419 0 444 c 0
128 444 m 0
 128 469 128 469 145 487 c 0
 163 504 163 504 188 504 c 0
 213 504 213 504 231 487 c 0
 248 469 248 469 248 444 c 0
 248 419 248 419 231 401 c 0
 213 384 213 384 188 384 c 0
 163 384 163 384 145 401 c 0
 128 419 128 419 128 444 c 0
256 444 m 0
 256 469 256 469 273 487 c 0
 291 504 291 504 316 504 c 0
 341 504 341 504 359 487 c 0
 376 469 376 469 376 444 c 0
 376 419 376 419 359 401 c 0
 341 384 341 384 316 384 c 0
 291 384 291 384 273 401 c 0
 256 419 256 419 256 444 c 0
384 444 m 0
 384 469 384 469 401 487 c 0
 419 504 419 504 444 504 c 0
 469 504 469 504 487 487 c 0
 504 469 504 469 504 444 c 0
 504 419 504 419 487 401 c 0
 469 384 469 384 444 384 c 0
 419 384 419 384 401 401 c 0
 384 419 384 419 384 444 c 0
512 444 m 0
 512 469 512 469 529 487 c 0
 547 504 547 504 572 504 c 0
 597 504 597 504 615 487 c 0
 632 469 632 469 632 444 c 0
 632 419 632 419 615 401 c 0
 597 384 597 384 572 384 c 0
 547 384 547 384 529 401 c 0
 512 419 512 419 512 444 c 0
0 316 m 0
 0 341 0 341 17 359 c 0
 35 376 35 376 60 376 c 0
 85 376 85 376 103 359 c 0
 120 341 120 341 120 316 c 0
 120 291 120 291 103 273 c 0
 85 256 85 256 60 256 c 0
 35 256 35 256 17 273 c 0
 0 291 0 291 0 316 c 0
512 316 m 0
 512 341 512 341 529 359 c 0
 547 376 547 376 572 376 c 0
 597 376 597 376 615 359 c 0
 632 341 632 341 632 316 c 0
 632 291 632 291 615 273 c 0
 597 256 597 256 572 256 c 0
 547 256 547 256 529 273 c 0
 512 291 512 291 512 316 c 0
0 188 m 0
 0 213 0 213 17 231 c 0
 35 248 35 248 60 248 c 0
 85 248 85 248 103 231 c 0
 120 213 120 213 120 188 c 0
 120 163 120 163 103 145 c 0
 85 128 85 128 60 128 c 0
 35 128 35 128 17 145 c 0
 0 163 0 163 0 188 c 0
512 188 m 0
 512 213 512 213 529 231 c 0
 547 248 547 248 572 248 c 0
 597 248 597 248 615 231 c 0
 632 213 632 213 632 188 c 0
 632 163 632 163 615 145 c 0
 597 128 597 128 572 128 c 0
 547 128 547 128 529 145 c 0
 512 163 512 163 512 188 c 0
0 60 m 0
 0 85 0 85 17 103 c 0
 35 120 35 120 60 120 c 0
 85 120 85 120 103 103 c 0
 120 85 120 85 120 60 c 0
 120 35 120 35 103 17 c 0
 85 0 85 0 60 0 c 0
 35 0 35 0 17 17 c 0
 0 35 0 35 0 60 c 0
512 60 m 0
 512 85 512 85 529 103 c 0
 547 120 547 120 572 120 c 0
 597 120 597 120 615 103 c 0
 632 85 632 85 632 60 c 0
 632 35 632 35 615 17 c 0
 597 0 597 0 572 0 c 0
 547 0 547 0 529 17 c 0
 512 35 512 35 512 60 c 0
EndSplineSet
EndChar
StartChar: uni0049
Encoding: 73 73 40
Width: 768
VWidth: 0
Flags: HW
LayerCount: 2
Fore
SplineSet
128 828 m 0
 128 853 128 853 145 871 c 0
 163 888 163 888 188 888 c 0
 213 888 213 888 231 871 c 0
 248 853 248 853 248 828 c 0
 248 803 248 803 231 785 c 0
 213 768 213 768 188 768 c 0
 163 768 163 768 145 785 c 0
 128 803 128 803 128 828 c 0
256 828 m 0
 256 853 256 853 273 871 c 0
 291 888 291 888 316 888 c 0
 341 888 341 888 359 871 c 0
 376 853 376 853 376 828 c 0
 376 803 376 803 359 785 c 0
 341 768 341 768 316 768 c 0
 291 768 291 768 273 785 c 0
 256 803 256 803 256 828 c 0
384 828 m 0
 384 853 384 853 401 871 c 0
 419 888 419 888 444 888 c 0
 469 888 469 888 487 871 c 0
 504 853 504 853 504 828 c 0
 504 803 504 803 487 785 c 0
 469 768 469 768 444 768 c 0
 419 768 419 768 401 785 c 0
 384 803 384 803 384 828 c 0
256 700 m 0
 256 725 256 725 273 743 c 0
 291 760 291 760 316 760 c 0
 341 760 341 760 359 743 c 0
 376 725 376 725 376 700 c 0
 376 675 376 675 359 657 c 0
 341 640 341 640 316 640 c 0
 291 640 291 640 273 657 c 0
 256 675 256 675 256 700 c 0
256 572 m 0
 256 597 256 597 273 615 c 0
 291 632 291 632 316 632 c 0
 341 632 341 632 359 615 c 0
 376 597 376 597 376 572 c 0
 376 547 376 547 359 529 c 0
 341 512 341 512 316 512 c 0
 291 512 291 512 273 529 c 0
 256 547 256 547 256 572 c 0
256 444 m 0
 256 469 256 469 273 487 c 0
 291 504 291 504 316 504 c 0
 341 504 341 504 359 487 c 0
 376 469 376 469 376 444 c 0
 376 419 376 419 359 401 c 0
 341 384 341 384 316 384 c 0
 291 384 291 384 273 401 c 0
 256 419 256 419 256 444 c 0
256 316 m 0
 256 341 256 341 273 359 c 0
 291 376 291 376 316 376 c 0
 341 376 341 376 359 359 c 0
 376 341 376 341 376 316 c 0
 376 291 376 291 359 273 c 0
 341 256 341 256 316 256 c 0
 291 256 291 256 273 273 c 0
 256 291 256 291 256 316 c 0
256 188 m 0
 256 213 256 213 273 231 c 0
 291 248 291 248 316 248 c 0
 341 248 341 248 359 231 c 0
 376 213 376 213 376 188 c 0
 376 163 376 163 359 145 c 0
 341 128 341 128 316 128 c 0
 291 128 291 128 273 145 c 0
 256 163 256 163 256 188 c 0
128 60 m 0
 128 85 128 85 145 103 c 0
 163 120 163 120 188 120 c 0
 213 120 213 120 231 103 c 0
 248 85 248 85 248 60 c 0
 248 35 248 35 231 17 c 0
 213 0 213 0 188 0 c 0
 163 0 163 0 145 17 c 0
 128 35 128 35 128 60 c 0
256 60 m 0
 256 85 256 85 273 103 c 0
 291 120 291 120 316 120 c 0
 341 120 341 120 359 103 c 0
 376 85 376 85 376 60 c 0
 376 35 376 35 359 17 c 0
 341 0 341 0 316 0 c 0
 291 0 291 0 273 17 c 0
 256 35 256 35 256 60 c 0
384 60 m 0
 384 85 384 85 401 103 c 0
 419 120 419 120 444 120 c 0
 469 120 469 120 487 103 c 0
 504 85 504 85 504 60 c 0
 504 35 504 35 487 17 c 0
 469 0 469 0 444 0 c 0
 419 0 419 0 401 17 c 0
 384 35 384 35 384 60 c 0
EndSplineSet
EndChar
StartChar: uni004A
Encoding: 74 74 41
Width: 768
VWidth: 0
Flags: HW
LayerCount: 2
Fore
SplineSet
512 828 m 0
 512 853 512 853 529 871 c 0
 547 888 547 888 572 888 c 0
 597 888 597 888 615 871 c 0
 632 853 632 853 632 828 c 0
 632 803 632 803 615 785 c 0
 597 768 597 768 572 768 c 0
 547 768 547 768 529 785 c 0
 512 803 512 803 512 828 c 0
512 700 m 0
 512 725 512 725 529 743 c 0
 547 760 547 760 572 760 c 0
 597 760 597 760 615 743 c 0
 632 725 632 725 632 700 c 0
 632 675 632 675 615 657 c 0
 597 640 597 640 572 640 c 0
 547 640 547 640 529 657 c 0
 512 675 512 675 512 700 c 0
512 572 m 0
 512 597 512 597 529 615 c 0
 547 632 547 632 572 632 c 0
 597 632 597 632 615 615 c 0
 632 597 632 597 632 572 c 0
 632 547 632 547 615 529 c 0
 597 512 597 512 572 512 c 0
 547 512 547 512 529 529 c 0
 512 547 512 547 512 572 c 0
512 444 m 0
 512 469 512 469 529 487 c 0
 547 504 547 504 572 504 c 0
 597 504 597 504 615 487 c 0
 632 469 632 469 632 444 c 0
 632 419 632 419 615 401 c 0
 597 384 597 384 572 384 c 0
 547 384 547 384 529 401 c 0
 512 419 512 419 512 444 c 0
512 316 m 0
 512 341 512 341 529 359 c 0
 547 376 547 376 572 376 c 0
 597 376 597 376 615 359 c 0
 632 341 632 341 632 316 c 0
 632 291 632 291 615 273 c 0
 597 256 597 256 572 256 c 0
 547 256 547 256 529 273 c 0
 512 291 512 291 512 316 c 0
0 188 m 0
 0 213 0 213 17 231 c 0
 35 248 35 248 60 248 c 0
 85 248 85 248 103 231 c 0
 120 213 120 213 120 188 c 0
 120 163 120 163 103 145 c 0
 85 128 85 128 60 128 c 0
 35 128 35 128 17 145 c 0
 0 163 0 163 0 188 c 0
512 188 m 0
 512 213 512 213 529 231 c 0
 547 248 547 248 572 248 c 0
 597 248 597 248 615 231 c 0
 632 213 632 213 632 188 c 0
 632 163 632 163 615 145 c 0
 597 128 597 128 572 128 c 0
 547 128 547 128 529 145 c 0
 512 163 512 163 512 188 c 0
128 60 m 0
 128 85 128 85 145 103 c 0
 163 120 163 120 188 120 c 0
 213 120 213 120 231 103 c 0
 248 85 248 85 248 60 c 0
 248 35 248 35 231 17 c 0
 213 0 213 0 188 0 c 0
 163 0 163 0 145 17 c 0
 128 35 128 35 128 60 c 0
256 60 m 0
 256 85 256 85 273 103 c 0
 291 120 291 120 316 120 c 0
 341 120 341 120 359 103 c 0
 376 85 376 85 376 60 c 0
 376 35 376 35 359 17 c 0
 341 0 341 0 316 0 c 0
 291 0 291 0 273 17 c 0
 256 35 256 35 256 60 c 0
384 60 m 0
 384 85 384 85 401 103 c 0
 419 120 419 120 444 120 c 0
 469 120 469 120 487 103 c 0
 504 85 504 85 504 60 c 0
 504 35 504 35 487 17 c 0
 469 0 469 0 444 0 c 0
 419 0 419 0 401 17 c 0
 384 35 384 35 384 60 c 0
EndSplineSet
EndChar
StartChar: uni004B
Encoding: 75 75 42
Width: 768
VWidth: 0
Flags: HW
LayerCount: 2
Fore
SplineSet
0 828 m 0
 0 853 0 853 17 871 c 0
 35 888 35 888 60 888 c 0
 85 888 85 888 103 871 c 0
 120 853 120 853 120 828 c 0
 120 803 120 803 103 785 c 0
 85 768 85 768 60 768 c 0
 35 768 35 768 17 785 c 0
 0 803 0 803 0 828 c 0
512 828 m 0
 512 853 512 853 529 871 c 0
 547 888 547 888 572 888 c 0
 597 888 597 888 615 871 c 0
 632 853 632 853 632 828 c 0
 632 803 632 803 615 785 c 0
 597 768 597 768 572 768 c 0
 547 768 547 768 529 785 c 0
 512 803 512 803 512 828 c 0
0 700 m 0
 0 725 0 725 17 743 c 0
 35 760 35 760 60 760 c 0
 85 760 85 760 103 743 c 0
 120 725 120 725 120 700 c 0
 120 675 120 675 103 657 c 0
 85 640 85 640 60 640 c 0
 35 640 35 640 17 657 c 0
 0 675 0 675 0 700 c 0
384 700 m 0
 384 725 384 725 401 743 c 0
 419 760 419 760 444 760 c 0
 469 760 469 760 487 743 c 0
 504 725 504 725 504 700 c 0
 504 675 504 675 487 657 c 0
 469 640 469 640 444 640 c 0
 419 640 419 640 401 657 c 0
 384 675 384 675 384 700 c 0
0 572 m 0
 0 597 0 597 17 615 c 0
 35 632 35 632 60 632 c 0
 85 632 85 632 103 615 c 0
 120 597 120 597 120 572 c 0
 120 547 120 547 103 529 c 0
 85 512 85 512 60 512 c 0
 35 512 35 512 17 529 c 0
 0 547 0 547 0 572 c 0
256 572 m 0
 256 597 256 597 273 615 c 0
 291 632 291 632 316 632 c 0
 341 632 341 632 359 615 c 0
 376 597 376 597 376 572 c 0
 376 547 376 547 359 529 c 0
 341 512 341 512 316 512 c 0
 291 512 291 512 273 529 c 0
 256 547 256 547 256 572 c 0
0 444 m 0
 0 469 0 469 17 487 c 0
 35 504 35 504 60 504 c 0
 85 504 85 504 103 487 c 0
 120 469 120 469 120 444 c 0
 120 419 120 419 103 401 c 0
 85 384 85 384 60 384 c 0
 35 384 35 384 17 401 c 0
 0 419 0 419 0 444 c 0
128 444 m 0
 128 469 128 469 145 487 c 0
 163 504 163 504 188 504 c 0
 213 504 213 504 231 487 c 0
 248 469 248 469 248 444 c 0
 248 419 248 419 231 401 c 0
 213 384 213 384 188 384 c 0
 163 384 163 384 145 401 c 0
 128 419 128 419 128 444 c 0
0 316 m 0
 0 341 0 341 17 359 c 0
 35 376 35 376 60 376 c 0
 85 376 85 376 103 359 c 0
 120 341 120 341 120 316 c 0
 120 291 120 291 103 273 c 0
 85 256 85 256 60 256 c 0
 35 256 35 256 17 273 c 0
 0 291 0 291 0 316 c 0
256 316 m 0
 256 341 256 341 273 359 c 0
 291 376 291 376 316 376 c 0
 341 376 341 376 359 359 c 0
 376 341 376 341 376 316 c 0
 376 291 376 291 359 273 c 0
 341 256 341 256 316 256 c 0
 291 256 291 256 273 273 c 0
 256 291 256 291 256 316 c 0
0 188 m 0
 0 213 0 213 17 231 c 0
 35 248 35 248 60 248 c 0
 85 248 85 248 103 231 c 0
 120 213 120 213 120 188 c 0
 120 163 120 163 103 145 c 0
 85 128 85 128 60 128 c 0
 35 128 35 128 17 145 c 0
 0 163 0 163 0 188 c 0
384 188 m 0
 384 213 384 213 401 231 c 0
 419 248 419 248 444 248 c 0
 469 248 469 248 487 231 c 0
 504 213 504 213 504 188 c 0
 504 163 504 163 487 145 c 0
 469 128 469 128 444 128 c 0
 419 128 419 128 401 145 c 0
 384 163 384 163 384 188 c 0
0 60 m 0
 0 85 0 85 17 103 c 0
 35 120 35 120 60 120 c 0
 85 120 85 120 103 103 c 0
 120 85 120 85 120 60 c 0
 120 35 120 35 103 17 c 0
 85 0 85 0 60 0 c 0
 35 0 35 0 17 17 c 0
 0 35 0 35 0 60 c 0
512 60 m 0
 512 85 512 85 529 103 c 0
 547 120 547 120 572 120 c 0
 597 120 597 120 615 103 c 0
 632 85 632 85 632 60 c 0
 632 35 632 35 615 17 c 0
 597 0 597 0 572 0 c 0
 547 0 547 0 529 17 c 0
 512 35 512 35 512 60 c 0
EndSplineSet
EndChar
StartChar: uni004C
Encoding: 76 76 43
Width: 768
VWidth: 0
Flags: HW
LayerCount: 2
Fore
SplineSet
0 828 m 0
 0 853 0 853 17 871 c 0
 35 888 35 888 60 888 c 0
 85 888 85 888 103 871 c 0
 120 853 120 853 120 828 c 0
 120 803 120 803 103 785 c 0
 85 768 85 768 60 768 c 0
 35 768 35 768 17 785 c 0
 0 803 0 803 0 828 c 0
0 700 m 0
 0 725 0 725 17 743 c 0
 35 760 35 760 60 760 c 0
 85 760 85 760 103 743 c 0
 120 725 120 725 120 700 c 0
 120 675 120 675 103 657 c 0
 85 640 85 640 60 640 c 0
 35 640 35 640 17 657 c 0
 0 675 0 675 0 700 c 0
0 572 m 0
 0 597 0 597 17 615 c 0
 35 632 35 632 60 632 c 0
 85 632 85 632 103 615 c 0
 120 597 120 597 120 572 c 0
 120 547 120 547 103 529 c 0
 85 512 85 512 60 512 c 0
 35 512 35 512 17 529 c 0
 0 547 0 547 0 572 c 0
0 444 m 0
 0 469 0 469 17 487 c 0
 35 504 35 504 60 504 c 0
 85 504 85 504 103 487 c 0
 120 469 120 469 120 444 c 0
 120 419 120 419 103 401 c 0
 85 384 85 384 60 384 c 0
 35 384 35 384 17 401 c 0
 0 419 0 419 0 444 c 0
0 316 m 0
 0 341 0 341 17 359 c 0
 35 376 35 376 60 376 c 0
 85 376 85 376 103 359 c 0
 120 341 120 341 120 316 c 0
 120 291 120 291 103 273 c 0
 85 256 85 256 60 256 c 0
 35 256 35 256 17 273 c 0
 0 291 0 291 0 316 c 0
0 188 m 0
 0 213 0 213 17 231 c 0
 35 248 35 248 60 248 c 0
 85 248 85 248 103 231 c 0
 120 213 120 213 120 188 c 0
 120 163 120 163 103 145 c 0
 85 128 85 128 60 128 c 0
 35 128 35 128 17 145 c 0
 0 163 0 163 0 188 c 0
0 60 m 0
 0 85 0 85 17 103 c 0
 35 120 35 120 60 120 c 0
 85 120 85 120 103 103 c 0
 120 85 120 85 120 60 c 0
 120 35 120 35 103 17 c 0
 85 0 85 0 60 0 c 0
 35 0 35 0 17 17 c 0
 0 35 0 35 0 60 c 0
128 60 m 0
 128 85 128 85 145 103 c 0
 163 120 163 120 188 120 c 0
 213 120 213 120 231 103 c 0
 248 85 248 85 248 60 c 0
 248 35 248 35 231 17 c 0
 213 0 213 0 188 0 c 0
 163 0 163 0 145 17 c 0
 128 35 128 35 128 60 c 0
256 60 m 0
 256 85 256 85 273 103 c 0
 291 120 291 120 316 120 c 0
 341 120 341 120 359 103 c 0
 376 85 376 85 376 60 c 0
 376 35 376 35 359 17 c 0
 341 0 341 0 316 0 c 0
 291 0 291 0 273 17 c 0
 256 35 256 35 256 60 c 0
384 60 m 0
 384 85 384 85 401 103 c 0
 419 120 419 120 444 120 c 0
 469 120 469 120 487 103 c 0
 504 85 504 85 504 60 c 0
 504 35 504 35 487 17 c 0
 469 0 469 0 444 0 c 0
 419 0 419 0 401 17 c 0
 384 35 384 35 384 60 c 0
512 60 m 0
 512 85 512 85 529 103 c 0
 547 120 547 120 572 120 c 0
 597 120 597 120 615 103 c 0
 632 85 632 85 632 60 c 0
 632 35 632 35 615 17 c 0
 597 0 597 0 572 0 c 0
 547 0 547 0 529 17 c 0
 512 35 512 35 512 60 c 0
EndSplineSet
EndChar
StartChar: uni004D
Encoding: 77 77 44
Width: 768
VWidth: 0
Flags: HW
LayerCount: 2
Fore
SplineSet
0 828 m 0
 0 853 0 853 17 871 c 0
 35 888 35 888 60 888 c 0
 85 888 85 888 103 871 c 0
 120 853 120 853 120 828 c 0
 120 803 120 803 103 785 c 0
 85 768 85 768 60 768 c 0
 35 768 35 768 17 785 c 0
 0 803 0 803 0 828 c 0
512 828 m 0
 512 853 512 853 529 871 c 0
 547 888 547 888 572 888 c 0
 597 888 597 888 615 871 c 0
 632 853 632 853 632 828 c 0
 632 803 632 803 615 785 c 0
 597 768 597 768 572 768 c 0
 547 768 547 768 529 785 c 0
 512 803 512 803 512 828 c 0
0 700 m 0
 0 725 0 725 17 743 c 0
 35 760 35 760 60 760 c 0
 85 760 85 760 103 743 c 0
 120 725 120 725 120 700 c 0
 120 675 120 675 103 657 c 0
 85 640 85 640 60 640 c 0
 35 640 35 640 17 657 c 0
 0 675 0 675 0 700 c 0
128 700 m 0
 128 725 128 725 145 743 c 0
 163 760 163 760 188 760 c 0
 213 760 213 760 231 743 c 0
 248 725 248 725 248 700 c 0
 248 675 248 675 231 657 c 0
 213 640 213 640 188 640 c 0
 163 640 163 640 145 657 c 0
 128 675 128 675 128 700 c 0
384 700 m 0
 384 725 384 725 401 743 c 0
 419 760 419 760 444 760 c 0
 469 760 469 760 487 743 c 0
 504 725 504 725 504 700 c 0
 504 675 504 675 487 657 c 0
 469 640 469 640 444 640 c 0
 419 640 419 640 401 657 c 0
 384 675 384 675 384 700 c 0
512 700 m 0
 512 725 512 725 529 743 c 0
 547 760 547 760 572 760 c 0
 597 760 597 760 615 743 c 0
 632 725 632 725 632 700 c 0
 632 675 632 675 615 657 c 0
 597 640 597 640 572 640 c 0
 547 640 547 640 529 657 c 0
 512 675 512 675 512 700 c 0
0 572 m 0
 0 597 0 597 17 615 c 0
 35 632 35 632 60 632 c 0
 85 632 85 632 103 615 c 0
 120 597 120 597 120 572 c 0
 120 547 120 547 103 529 c 0
 85 512 85 512 60 512 c 0
 35 512 35 512 17 529 c 0
 0 547 0 547 0 572 c 0
256 572 m 0
 256 597 256 597 273 615 c 0
 291 632 291 632 316 632 c 0
 341 632 341 632 359 615 c 0
 376 597 376 597 376 572 c 0
 376 547 376 547 359 529 c 0
 341 512 341 512 316 512 c 0
 291 512 291 512 273 529 c 0
 256 547 256 547 256 572 c 0
512 572 m 0
 512 597 512 597 529 615 c 0
 547 632 547 632 572 632 c 0
 597 632 597 632 615 615 c 0
 632 597 632 597 632 572 c 0
 632 547 632 547 615 529 c 0
 597 512 597 512 572 512 c 0
 547 512 547 512 529 529 c 0
 512 547 512 547 512 572 c 0
0 444 m 0
 0 469 0 469 17 487 c 0
 35 504 35 504 60 504 c 0
 85 504 85 504 103 487 c 0
 120 469 120 469 120 444 c 0
 120 419 120 419 103 401 c 0
 85 384 85 384 60 384 c 0
 35 384 35 384 17 401 c 0
 0 419 0 419 0 444 c 0
256 444 m 0
 256 469 256 469 273 487 c 0
 291 504 291 504 316 504 c 0
 341 504 341 504 359 487 c 0
 376 469 376 469 376 444 c 0
 376 419 376 419 359 401 c 0
 341 384 341 384 316 384 c 0
 291 384 291 384 273 401 c 0
 256 419 256 419 256 444 c 0
512 444 m 0
 512 469 512 469 529 487 c 0
 547 504 547 504 572 504 c 0
 597 504 597 504 615 487 c 0
 632 469 632 469 632 444 c 0
 632 419 632 419 615 401 c 0
 597 384 597 384 572 384 c 0
 547 384 547 384 529 401 c 0
 512 419 512 419 512 444 c 0
0 316 m 0
 0 341 0 341 17 359 c 0
 35 376 35 376 60 376 c 0
 85 376 85 376 103 359 c 0
 120 341 120 341 120 316 c 0
 120 291 120 291 103 273 c 0
 85 256 85 256 60 256 c 0
 35 256 35 256 17 273 c 0
 0 291 0 291 0 316 c 0
512 316 m 0
 512 341 512 341 529 359 c 0
 547 376 547 376 572 376 c 0
 597 376 597 376 615 359 c 0
 632 341 632 341 632 316 c 0
 632 291 632 291 615 273 c 0
 597 256 597 256 572 256 c 0
 547 256 547 256 529 273 c 0
 512 291 512 291 512 316 c 0
0 188 m 0
 0 213 0 213 17 231 c 0
 35 248 35 248 60 248 c 0
 85 248 85 248 103 231 c 0
 120 213 120 213 120 188 c 0
 120 163 120 163 103 145 c 0
 85 128 85 128 60 128 c 0
 35 128 35 128 17 145 c 0
 0 163 0 163 0 188 c 0
512 188 m 0
 512 213 512 213 529 231 c 0
 547 248 547 248 572 248 c 0
 597 248 597 248 615 231 c 0
 632 213 632 213 632 188 c 0
 632 163 632 163 615 145 c 0
 597 128 597 128 572 128 c 0
 547 128 547 128 529 145 c 0
 512 163 512 163 512 188 c 0
0 60 m 0
 0 85 0 85 17 103 c 0
 35 120 35 120 60 120 c 0
 85 120 85 120 103 103 c 0
 120 85 120 85 120 60 c 0
 120 35 120 35 103 17 c 0
 85 0 85 0 60 0 c 0
 35 0 35 0 17 17 c 0
 0 35 0 35 0 60 c 0
512 60 m 0
 512 85 512 85 529 103 c 0
 547 120 547 120 572 120 c 0
 597 120 597 120 615 103 c 0
 632 85 632 85 632 60 c 0
 632 35 632 35 615 17 c 0
 597 0 597 0 572 0 c 0
 547 0 547 0 529 17 c 0
 512 35 512 35 512 60 c 0
EndSplineSet
EndChar
StartChar: uni004E
Encoding: 78 78 45
Width: 768
VWidth: 0
Flags: HW
LayerCount: 2
Fore
SplineSet
0 828 m 0
 0 853 0 853 17 871 c 0
 35 888 35 888 60 888 c 0
 85 888 85 888 103 871 c 0
 120 853 120 853 120 828 c 0
 120 803 120 803 103 785 c 0
 85 768 85 768 60 768 c 0
 35 768 35 768 17 785 c 0
 0 803 0 803 0 828 c 0
512 828 m 0
 512 853 512 853 529 871 c 0
 547 888 547 888 572 888 c 0
 597 888 597 888 615 871 c 0
 632 853 632 853 632 828 c 0
 632 803 632 803 615 785 c 0
 597 768 597 768 572 768 c 0
 547 768 547 768 529 785 c 0
 512 803 512 803 512 828 c 0
0 700 m 0
 0 725 0 725 17 743 c 0
 35 760 35 760 60 760 c 0
 85 760 85 760 103 743 c 0
 120 725 120 725 120 700 c 0
 120 675 120 675 103 657 c 0
 85 640 85 640 60 640 c 0
 35 640 35 640 17 657 c 0
 0 675 0 675 0 700 c 0
128 700 m 0
 128 725 128 725 145 743 c 0
 163 760 163 760 188 760 c 0
 213 760 213 760 231 743 c 0
 248 725 248 725 248 700 c 0
 248 675 248 675 231 657 c 0
 213 640 213 640 188 640 c 0
 163 640 163 640 145 657 c 0
 128 675 128 675 128 700 c 0
512 700 m 0
 512 725 512 725 529 743 c 0
 547 760 547 760 572 760 c 0
 597 760 597 760 615 743 c 0
 632 725 632 725 632 700 c 0
 632 675 632 675 615 657 c 0
 597 640 597 640 572 640 c 0
 547 640 547 640 529 657 c 0
 512 675 512 675 512 700 c 0
0 572 m 0
 0 597 0 597 17 615 c 0
 35 632 35 632 60 632 c 0
 85 632 85 632 103 615 c 0
 120 597 120 597 120 572 c 0
 120 547 120 547 103 529 c 0
 85 512 85 512 60 512 c 0
 35 512 35 512 17 529 c 0
 0 547 0 547 0 572 c 0
256 572 m 0
 256 597 256 597 273 615 c 0
 291 632 291 632 316 632 c 0
 341 632 341 632 359 615 c 0
 376 597 376 597 376 572 c 0
 376 547 376 547 359 529 c 0
 341 512 341 512 316 512 c 0
 291 512 291 512 273 529 c 0
 256 547 256 547 256 572 c 0
512 572 m 0
 512 597 512 597 529 615 c 0
 547 632 547 632 572 632 c 0
 597 632 597 632 615 615 c 0
 632 597 632 597 632 572 c 0
 632 547 632 547 615 529 c 0
 597 512 597 512 572 512 c 0
 547 512 547 512 529 529 c 0
 512 547 512 547 512 572 c 0
0 444 m 0
 0 469 0 469 17 487 c 0
 35 504 35 504 60 504 c 0
 85 504 85 504 103 487 c 0
 120 469 120 469 120 444 c 0
 120 419 120 419 103 401 c 0
 85 384 85 384 60 384 c 0
 35 384 35 384 17 401 c 0
 0 419 0 419 0 444 c 0
384 444 m 0
 384 469 384 469 401 487 c 0
 419 504 419 504 444 504 c 0
 469 504 469 504 487 487 c 0
 504 469 504 469 504 444 c 0
 504 419 504 419 487 401 c 0
 469 384 469 384 444 384 c 0
 419 384 419 384 401 401 c 0
 384 419 384 419 384 444 c 0
512 444 m 0
 512 469 512 469 529 487 c 0
 547 504 547 504 572 504 c 0
 597 504 597 504 615 487 c 0
 632 469 632 469 632 444 c 0
 632 419 632 419 615 401 c 0
 597 384 597 384 572 384 c 0
 547 384 547 384 529 401 c 0
 512 419 512 419 512 444 c 0
0 316 m 0
 0 341 0 341 17 359 c 0
 35 376 35 376 60 376 c 0
 85 376 85 376 103 359 c 0
 120 341 120 341 120 316 c 0
 120 291 120 291 103 273 c 0
 85 256 85 256 60 256 c 0
 35 256 35 256 17 273 c 0
 0 291 0 291 0 316 c 0
512 316 m 0
 512 341 512 341 529 359 c 0
 547 376 547 376 572 376 c 0
 597 376 597 376 615 359 c 0
 632 341 632 341 632 316 c 0
 632 291 632 291 615 273 c 0
 597 256 597 256 572 256 c 0
 547 256 547 256 529 273 c 0
 512 291 512 291 512 316 c 0
0 188 m 0
 0 213 0 213 17 231 c 0
 35 248 35 248 60 248 c 0
 85 248 85 248 103 231 c 0
 120 213 120 213 120 188 c 0
 120 163 120 163 103 145 c 0
 85 128 85 128 60 128 c 0
 35 128 35 128 17 145 c 0
 0 163 0 163 0 188 c 0
512 188 m 0
 512 213 512 213 529 231 c 0
 547 248 547 248 572 248 c 0
 597 248 597 248 615 231 c 0
 632 213 632 213 632 188 c 0
 632 163 632 163 615 145 c 0
 597 128 597 128 572 128 c 0
 547 128 547 128 529 145 c 0
 512 163 512 163 512 188 c 0
0 60 m 0
 0 85 0 85 17 103 c 0
 35 120 35 120 60 120 c 0
 85 120 85 120 103 103 c 0
 120 85 120 85 120 60 c 0
 120 35 120 35 103 17 c 0
 85 0 85 0 60 0 c 0
 35 0 35 0 17 17 c 0
 0 35 0 35 0 60 c 0
512 60 m 0
 512 85 512 85 529 103 c 0
 547 120 547 120 572 120 c 0
 597 120 597 120 615 103 c 0
 632 85 632 85 632 60 c 0
 632 35 632 35 615 17 c 0
 597 0 597 0 572 0 c 0
 547 0 547 0 529 17 c 0
 512 35 512 35 512 60 c 0
EndSplineSet
EndChar
StartChar: uni004F
Encoding: 79 79 46
Width: 768
VWidth: 0
Flags: HW
LayerCount: 2
Fore
SplineSet
0 828 m 0
 0 853 0 853 17 871 c 0
 35 888 35 888 60 888 c 0
 85 888 85 888 103 871 c 0
 120 853 120 853 120 828 c 0
 120 803 120 803 103 785 c 0
 85 768 85 768 60 768 c 0
 35 768 35 768 17 785 c 0
 0 803 0 803 0 828 c 0
128 828 m 0
 128 853 128 853 145 871 c 0
 163 888 163 888 188 888 c 0
 213 888 213 888 231 871 c 0
 248 853 248 853 248 828 c 0
 248 803 248 803 231 785 c 0
 213 768 213 768 188 768 c 0
 163 768 163 768 145 785 c 0
 128 803 128 803 128 828 c 0
256 828 m 0
 256 853 256 853 273 871 c 0
 291 888 291 888 316 888 c 0
 341 888 341 888 359 871 c 0
 376 853 376 853 376 828 c 0
 376 803 376 803 359 785 c 0
 341 768 341 768 316 768 c 0
 291 768 291 768 273 785 c 0
 256 803 256 803 256 828 c 0
384 828 m 0
 384 853 384 853 401 871 c 0
 419 888 419 888 444 888 c 0
 469 888 469 888 487 871 c 0
 504 853 504 853 504 828 c 0
 504 803 504 803 487 785 c 0
 469 768 469 768 444 768 c 0
 419 768 419 768 401 785 c 0
 384 803 384 803 384 828 c 0
512 828 m 0
 512 853 512 853 529 871 c 0
 547 888 547 888 572 888 c 0
 597 888 597 888 615 871 c 0
 632 853 632 853 632 828 c 0
 632 803 632 803 615 785 c 0
 597 768 597 768 572 768 c 0
 547 768 547 768 529 785 c 0
 512 803 512 803 512 828 c 0
0 700 m 0
 0 725 0 725 17 743 c 0
 35 760 35 760 60 760 c 0
 85 760 85 760 103 743 c 0
 120 725 120 725 120 700 c 0
 120 675 120 675 103 657 c 0
 85 640 85 640 60 640 c 0
 35 640 35 640 17 657 c 0
 0 675 0 675 0 700 c 0
512 700 m 0
 512 725 512 725 529 743 c 0
 547 760 547 760 572 760 c 0
 597 760 597 760 615 743 c 0
 632 725 632 725 632 700 c 0
 632 675 632 675 615 657 c 0
 597 640 597 640 572 640 c 0
 547 640 547 640 529 657 c 0
 512 675 512 675 512 700 c 0
0 572 m 0
 0 597 0 597 17 615 c 0
 35 632 35 632 60 632 c 0
 85 632 85 632 103 615 c 0
 120 597 120 597 120 572 c 0
 120 547 120 547 103 529 c 0
 85 512 85 512 60 512 c 0
 35 512 35 512 17 529 c 0
 0 547 0 547 0 572 c 0
512 572 m 0
 512 597 512 597 529 615 c 0
 547 632 547 632 572 632 c 0
 597 632 597 632 615 615 c 0
 632 597 632 597 632 572 c 0
 632 547 632 547 615 529 c 0
 597 512 597 512 572 512 c 0
 547 512 547 512 529 529 c 0
 512 547 512 547 512 572 c 0
0 444 m 0
 0 469 0 469 17 487 c 0
 35 504 35 504 60 504 c 0
 85 504 85 504 103 487 c 0
 120 469 120 469 120 444 c 0
 120 419 120 419 103 401 c 0
 85 384 85 384 60 384 c 0
 35 384 35 384 17 401 c 0
 0 419 0 419 0 444 c 0
512 444 m 0
 512 469 512 469 529 487 c 0
 547 504 547 504 572 504 c 0
 597 504 597 504 615 487 c 0
 632 469 632 469 632 444 c 0
 632 419 632 419 615 401 c 0
 597 384 597 384 572 384 c 0
 547 384 547 384 529 401 c 0
 512 419 512 419 512 444 c 0
0 316 m 0
 0 341 0 341 17 359 c 0
 35 376 35 376 60 376 c 0
 85 376 85 376 103 359 c 0
 120 341 120 341 120 316 c 0
 120 291 120 291 103 273 c 0
 85 256 85 256 60 256 c 0
 35 256 35 256 17 273 c 0
 0 291 0 291 0 316 c 0
512 316 m 0
 512 341 512 341 529 359 c 0
 547 376 547 376 572 376 c 0
 597 376 597 376 615 359 c 0
 632 341 632 341 632 316 c 0
 632 291 632 291 615 273 c 0
 597 256 597 256 572 256 c 0
 547 256 547 256 529 273 c 0
 512 291 512 291 512 316 c 0
0 188 m 0
 0 213 0 213 17 231 c 0
 35 248 35 248 60 248 c 0
 85 248 85 248 103 231 c 0
 120 213 120 213 120 188 c 0
 120 163 120 163 103 145 c 0
 85 128 85 128 60 128 c 0
 35 128 35 128 17 145 c 0
 0 163 0 163 0 188 c 0
512 188 m 0
 512 213 512 213 529 231 c 0
 547 248 547 248 572 248 c 0
 597 248 597 248 615 231 c 0
 632 213 632 213 632 188 c 0
 632 163 632 163 615 145 c 0
 597 128 597 128 572 128 c 0
 547 128 547 128 529 145 c 0
 512 163 512 163 512 188 c 0
0 60 m 0
 0 85 0 85 17 103 c 0
 35 120 35 120 60 120 c 0
 85 120 85 120 103 103 c 0
 120 85 120 85 120 60 c 0
 120 35 120 35 103 17 c 0
 85 0 85 0 60 0 c 0
 35 0 35 0 17 17 c 0
 0 35 0 35 0 60 c 0
128 60 m 0
 128 85 128 85 145 103 c 0
 163 120 163 120 188 120 c 0
 213 120 213 120 231 103 c 0
 248 85 248 85 248 60 c 0
 248 35 248 35 231 17 c 0
 213 0 213 0 188 0 c 0
 163 0 163 0 145 17 c 0
 128 35 128 35 128 60 c 0
256 60 m 0
 256 85 256 85 273 103 c 0
 291 120 291 120 316 120 c 0
 341 120 341 120 359 103 c 0
 376 85 376 85 376 60 c 0
 376 35 376 35 359 17 c 0
 341 0 341 0 316 0 c 0
 291 0 291 0 273 17 c 0
 256 35 256 35 256 60 c 0
384 60 m 0
 384 85 384 85 401 103 c 0
 419 120 419 120 444 120 c 0
 469 120 469 120 487 103 c 0
 504 85 504 85 504 60 c 0
 504 35 504 35 487 17 c 0
 469 0 469 0 444 0 c 0
 419 0 419 0 401 17 c 0
 384 35 384 35 384 60 c 0
512 60 m 0
 512 85 512 85 529 103 c 0
 547 120 547 120 572 120 c 0
 597 120 597 120 615 103 c 0
 632 85 632 85 632 60 c 0
 632 35 632 35 615 17 c 0
 597 0 597 0 572 0 c 0
 547 0 547 0 529 17 c 0
 512 35 512 35 512 60 c 0
EndSplineSet
EndChar
StartChar: uni0050
Encoding: 80 80 47
Width: 768
VWidth: 0
Flags: HW
LayerCount: 2
Fore
SplineSet
0 828 m 0
 0 853 0 853 17 871 c 0
 35 888 35 888 60 888 c 0
 85 888 85 888 103 871 c 0
 120 853 120 853 120 828 c 0
 120 803 120 803 103 785 c 0
 85 768 85 768 60 768 c 0
 35 768 35 768 17 785 c 0
 0 803 0 803 0 828 c 0
128 828 m 0
 128 853 128 853 145 871 c 0
 163 888 163 888 188 888 c 0
 213 888 213 888 231 871 c 0
 248 853 248 853 248 828 c 0
 248 803 248 803 231 785 c 0
 213 768 213 768 188 768 c 0
 163 768 163 768 145 785 c 0
 128 803 128 803 128 828 c 0
256 828 m 0
 256 853 256 853 273 871 c 0
 291 888 291 888 316 888 c 0
 341 888 341 888 359 871 c 0
 376 853 376 853 376 828 c 0
 376 803 376 803 359 785 c 0
 341 768 341 768 316 768 c 0
 291 768 291 768 273 785 c 0
 256 803 256 803 256 828 c 0
384 828 m 0
 384 853 384 853 401 871 c 0
 419 888 419 888 444 888 c 0
 469 888 469 888 487 871 c 0
 504 853 504 853 504 828 c 0
 504 803 504 803 487 785 c 0
 469 768 469 768 444 768 c 0
 419 768 419 768 401 785 c 0
 384 803 384 803 384 828 c 0
0 700 m 0
 0 725 0 725 17 743 c 0
 35 760 35 760 60 760 c 0
 85 760 85 760 103 743 c 0
 120 725 120 725 120 700 c 0
 120 675 120 675 103 657 c 0
 85 640 85 640 60 640 c 0
 35 640 35 640 17 657 c 0
 0 675 0 675 0 700 c 0
512 700 m 0
 512 725 512 725 529 743 c 0
 547 760 547 760 572 760 c 0
 597 760 597 760 615 743 c 0
 632 725 632 725 632 700 c 0
 632 675 632 675 615 657 c 0
 597 640 597 640 572 640 c 0
 547 640 547 640 529 657 c 0
 512 675 512 675 512 700 c 0
0 572 m 0
 0 597 0 597 17 615 c 0
 35 632 35 632 60 632 c 0
 85 632 85 632 103 615 c 0
 120 597 120 597 120 572 c 0
 120 547 120 547 103 529 c 0
 85 512 85 512 60 512 c 0
 35 512 35 512 17 529 c 0
 0 547 0 547 0 572 c 0
512 572 m 0
 512 597 512 597 529 615 c 0
 547 632 547 632 572 632 c 0
 597 632 597 632 615 615 c 0
 632 597 632 597 632 572 c 0
 632 547 632 547 615 529 c 0
 597 512 597 512 572 512 c 0
 547 512 547 512 529 529 c 0
 512 547 512 547 512 572 c 0
0 444 m 0
 0 469 0 469 17 487 c 0
 35 504 35 504 60 504 c 0
 85 504 85 504 103 487 c 0
 120 469 120 469 120 444 c 0
 120 419 120 419 103 401 c 0
 85 384 85 384 60 384 c 0
 35 384 35 384 17 401 c 0
 0 419 0 419 0 444 c 0
128 444 m 0
 128 469 128 469 145 487 c 0
 163 504 163 504 188 504 c 0
 213 504 213 504 231 487 c 0
 248 469 248 469 248 444 c 0
 248 419 248 419 231 401 c 0
 213 384 213 384 188 384 c 0
 163 384 163 384 145 401 c 0
 128 419 128 419 128 444 c 0
256 444 m 0
 256 469 256 469 273 487 c 0
 291 504 291 504 316 504 c 0
 341 504 341 504 359 487 c 0
 376 469 376 469 376 444 c 0
 376 419 376 419 359 401 c 0
 341 384 341 384 316 384 c 0
 291 384 291 384 273 401 c 0
 256 419 256 419 256 444 c 0
384 444 m 0
 384 469 384 469 401 487 c 0
 419 504 419 504 444 504 c 0
 469 504 469 504 487 487 c 0
 504 469 504 469 504 444 c 0
 504 419 504 419 487 401 c 0
 469 384 469 384 444 384 c 0
 419 384 419 384 401 401 c 0
 384 419 384 419 384 444 c 0
0 316 m 0
 0 341 0 341 17 359 c 0
 35 376 35 376 60 376 c 0
 85 376 85 376 103 359 c 0
 120 341 120 341 120 316 c 0
 120 291 120 291 103 273 c 0
 85 256 85 256 60 256 c 0
 35 256 35 256 17 273 c 0
 0 291 0 291 0 316 c 0
0 188 m 0
 0 213 0 213 17 231 c 0
 35 248 35 248 60 248 c 0
 85 248 85 248 103 231 c 0
 120 213 120 213 120 188 c 0
 120 163 120 163 103 145 c 0
 85 128 85 128 60 128 c 0
 35 128 35 128 17 145 c 0
 0 163 0 163 0 188 c 0
0 60 m 0
 0 85 0 85 17 103 c 0
 35 120 35 120 60 120 c 0
 85 120 85 120 103 103 c 0
 120 85 120 85 120 60 c 0
 120 35 120 35 103 17 c 0
 85 0 85 0 60 0 c 0
 35 0 35 0 17 17 c 0
 0 35 0 35 0 60 c 0
EndSplineSet
EndChar
StartChar: uni0051
Encoding: 81 81 48
Width: 768
VWidth: 0
Flags: HW
LayerCount: 2
Fore
SplineSet
128 828 m 0
 128 853 128 853 145 871 c 0
 163 888 163 888 188 888 c 0
 213 888 213 888 231 871 c 0
 248 853 248 853 248 828 c 0
 248 803 248 803 231 785 c 0
 213 768 213 768 188 768 c 0
 163 768 163 768 145 785 c 0
 128 803 128 803 128 828 c 0
256 828 m 0
 256 853 256 853 273 871 c 0
 291 888 291 888 316 888 c 0
 341 888 341 888 359 871 c 0
 376 853 376 853 376 828 c 0
 376 803 376 803 359 785 c 0
 341 768 341 768 316 768 c 0
 291 768 291 768 273 785 c 0
 256 803 256 803 256 828 c 0
384 828 m 0
 384 853 384 853 401 871 c 0
 419 888 419 888 444 888 c 0
 469 888 469 888 487 871 c 0
 504 853 504 853 504 828 c 0
 504 803 504 803 487 785 c 0
 469 768 469 768 444 768 c 0
 419 768 419 768 401 785 c 0
 384 803 384 803 384 828 c 0
0 700 m 0
 0 725 0 725 17 743 c 0
 35 760 35 760 60 760 c 0
 85 760 85 760 103 743 c 0
 120 725 120 725 120 700 c 0
 120 675 120 675 103 657 c 0
 85 640 85 640 60 640 c 0
 35 640 35 640 17 657 c 0
 0 675 0 675 0 700 c 0
512 700 m 0
 512 725 512 725 529 743 c 0
 547 760 547 760 572 760 c 0
 597 760 597 760 615 743 c 0
 632 725 632 725 632 700 c 0
 632 675 632 675 615 657 c 0
 597 640 597 640 572 640 c 0
 547 640 547 640 529 657 c 0
 512 675 512 675 512 700 c 0
0 572 m 0
 0 597 0 597 17 615 c 0
 35 632 35 632 60 632 c 0
 85 632 85 632 103 615 c 0
 120 597 120 597 120 572 c 0
 120 547 120 547 103 529 c 0
 85 512 85 512 60 512 c 0
 35 512 35 512 17 529 c 0
 0 547 0 547 0 572 c 0
512 572 m 0
 512 597 512 597 529 615 c 0
 547 632 547 632 572 632 c 0
 597 632 597 632 615 615 c 0
 632 597 632 597 632 572 c 0
 632 547 632 547 615 529 c 0
 597 512 597 512 572 512 c 0
 547 512 547 512 529 529 c 0
 512 547 512 547 512 572 c 0
0 444 m 0
 0 469 0 469 17 487 c 0
 35 504 35 504 60 504 c 0
 85 504 85 504 103 487 c 0
 120 469 120 469 120 444 c 0
 120 419 120 419 103 401 c 0
 85 384 85 384 60 384 c 0
 35 384 35 384 17 401 c 0
 0 419 0 419 0 444 c 0
512 444 m 0
 512 469 512 469 529 487 c 0
 547 504 547 504 572 504 c 0
 597 504 597 504 615 487 c 0
 632 469 632 469 632 444 c 0
 632 419 632 419 615 401 c 0
 597 384 597 384 572 384 c 0
 547 384 547 384 529 401 c 0
 512 419 512 419 512 444 c 0
0 316 m 0
 0 341 0 341 17 359 c 0
 35 376 35 376 60 376 c 0
 85 376 85 376 103 359 c 0
 120 341 120 341 120 316 c 0
 120 291 120 291 103 273 c 0
 85 256 85 256 60 256 c 0
 35 256 35 256 17 273 c 0
 0 291 0 291 0 316 c 0
256 316 m 0
 256 341 256 341 273 359 c 0
 291 376 291 376 316 376 c 0
 341 376 341 376 359 359 c 0
 376 341 376 341 376 316 c 0
 376 291 376 291 359 273 c 0
 341 256 341 256 316 256 c 0
 291 256 291 256 273 273 c 0
 256 291 256 291 256 316 c 0
512 316 m 0
 512 341 512 341 529 359 c 0
 547 376 547 376 572 376 c 0
 597 376 597 376 615 359 c 0
 632 341 632 341 632 316 c 0
 632 291 632 291 615 273 c 0
 597 256 597 256 572 256 c 0
 547 256 547 256 529 273 c 0
 512 291 512 291 512 316 c 0
0 188 m 0
 0 213 0 213 17 231 c 0
 35 248 35 248 60 248 c 0
 85 248 85 248 103 231 c 0
 120 213 120 213 120 188 c 0
 120 163 120 163 103 145 c 0
 85 128 85 128 60 128 c 0
 35 128 35 128 17 145 c 0
 0 163 0 163 0 188 c 0
384 188 m 0
 384 213 384 213 401 231 c 0
 419 248 419 248 444 248 c 0
 469 248 469 248 487 231 c 0
 504 213 504 213 504 188 c 0
 504 163 504 163 487 145 c 0
 469 128 469 128 444 128 c 0
 419 128 419 128 401 145 c 0
 384 163 384 163 384 188 c 0
128 60 m 0
 128 85 128 85 145 103 c 0
 163 120 163 120 188 120 c 0
 213 120 213 120 231 103 c 0
 248 85 248 85 248 60 c 0
 248 35 248 35 231 17 c 0
 213 0 213 0 188 0 c 0
 163 0 163 0 145 17 c 0
 128 35 128 35 128 60 c 0
256 60 m 0
 256 85 256 85 273 103 c 0
 291 120 291 120 316 120 c 0
 341 120 341 120 359 103 c 0
 376 85 376 85 376 60 c 0
 376 35 376 35 359 17 c 0
 341 0 341 0 316 0 c 0
 291 0 291 0 273 17 c 0
 256 35 256 35 256 60 c 0
512 60 m 0
 512 85 512 85 529 103 c 0
 547 120 547 120 572 120 c 0
 597 120 597 120 615 103 c 0
 632 85 632 85 632 60 c 0
 632 35 632 35 615 17 c 0
 597 0 597 0 572 0 c 0
 547 0 547 0 529 17 c 0
 512 35 512 35 512 60 c 0
EndSplineSet
EndChar
StartChar: uni0052
Encoding: 82 82 49
Width: 768
VWidth: 0
Flags: HW
LayerCount: 2
Fore
SplineSet
0 828 m 0
 0 853 0 853 17 871 c 0
 35 888 35 888 60 888 c 0
 85 888 85 888 103 871 c 0
 120 853 120 853 120 828 c 0
 120 803 120 803 103 785 c 0
 85 768 85 768 60 768 c 0
 35 768 35 768 17 785 c 0
 0 803 0 803 0 828 c 0
128 828 m 0
 128 853 128 853 145 871 c 0
 163 888 163 888 188 888 c 0
 213 888 213 888 231 871 c 0
 248 853 248 853 248 828 c 0
 248 803 248 803 231 785 c 0
 213 768 213 768 188 768 c 0
 163 768 163 768 145 785 c 0
 128 803 128 803 128 828 c 0
256 828 m 0
 256 853 256 853 273 871 c 0
 291 888 291 888 316 888 c 0
 341 888 341 888 359 871 c 0
 376 853 376 853 376 828 c 0
 376 803 376 803 359 785 c 0
 341 768 341 768 316 768 c 0
 291 768 291 768 273 785 c 0
 256 803 256 803 256 828 c 0
384 828 m 0
 384 853 384 853 401 871 c 0
 419 888 419 888 444 888 c 0
 469 888 469 888 487 871 c 0
 504 853 504 853 504 828 c 0
 504 803 504 803 487 785 c 0
 469 768 469 768 444 768 c 0
 419 768 419 768 401 785 c 0
 384 803 384 803 384 828 c 0
0 700 m 0
 0 725 0 725 17 743 c 0
 35 760 35 760 60 760 c 0
 85 760 85 760 103 743 c 0
 120 725 120 725 120 700 c 0
 120 675 120 675 103 657 c 0
 85 640 85 640 60 640 c 0
 35 640 35 640 17 657 c 0
 0 675 0 675 0 700 c 0
512 700 m 0
 512 725 512 725 529 743 c 0
 547 760 547 760 572 760 c 0
 597 760 597 760 615 743 c 0
 632 725 632 725 632 700 c 0
 632 675 632 675 615 657 c 0
 597 640 597 640 572 640 c 0
 547 640 547 640 529 657 c 0
 512 675 512 675 512 700 c 0
0 572 m 0
 0 597 0 597 17 615 c 0
 35 632 35 632 60 632 c 0
 85 632 85 632 103 615 c 0
 120 597 120 597 120 572 c 0
 120 547 120 547 103 529 c 0
 85 512 85 512 60 512 c 0
 35 512 35 512 17 529 c 0
 0 547 0 547 0 572 c 0
512 572 m 0
 512 597 512 597 529 615 c 0
 547 632 547 632 572 632 c 0
 597 632 597 632 615 615 c 0
 632 597 632 597 632 572 c 0
 632 547 632 547 615 529 c 0
 597 512 597 512 572 512 c 0
 547 512 547 512 529 529 c 0
 512 547 512 547 512 572 c 0
0 444 m 0
 0 469 0 469 17 487 c 0
 35 504 35 504 60 504 c 0
 85 504 85 504 103 487 c 0
 120 469 120 469 120 444 c 0
 120 419 120 419 103 401 c 0
 85 384 85 384 60 384 c 0
 35 384 35 384 17 401 c 0
 0 419 0 419 0 444 c 0
128 444 m 0
 128 469 128 469 145 487 c 0
 163 504 163 504 188 504 c 0
 213 504 213 504 231 487 c 0
 248 469 248 469 248 444 c 0
 248 419 248 419 231 401 c 0
 213 384 213 384 188 384 c 0
 163 384 163 384 145 401 c 0
 128 419 128 419 128 444 c 0
256 444 m 0
 256 469 256 469 273 487 c 0
 291 504 291 504 316 504 c 0
 341 504 341 504 359 487 c 0
 376 469 376 469 376 444 c 0
 376 419 376 419 359 401 c 0
 341 384 341 384 316 384 c 0
 291 384 291 384 273 401 c 0
 256 419 256 419 256 444 c 0
384 444 m 0
 384 469 384 469 401 487 c 0
 419 504 419 504 444 504 c 0
 469 504 469 504 487 487 c 0
 504 469 504 469 504 444 c 0
 504 419 504 419 487 401 c 0
 469 384 469 384 444 384 c 0
 419 384 419 384 401 401 c 0
 384 419 384 419 384 444 c 0
0 316 m 0
 0 341 0 341 17 359 c 0
 35 376 35 376 60 376 c 0
 85 376 85 376 103 359 c 0
 120 341 120 341 120 316 c 0
 120 291 120 291 103 273 c 0
 85 256 85 256 60 256 c 0
 35 256 35 256 17 273 c 0
 0 291 0 291 0 316 c 0
256 316 m 0
 256 341 256 341 273 359 c 0
 291 376 291 376 316 376 c 0
 341 376 341 376 359 359 c 0
 376 341 376 341 376 316 c 0
 376 291 376 291 359 273 c 0
 341 256 341 256 316 256 c 0
 291 256 291 256 273 273 c 0
 256 291 256 291 256 316 c 0
0 188 m 0
 0 213 0 213 17 231 c 0
 35 248 35 248 60 248 c 0
 85 248 85 248 103 231 c 0
 120 213 120 213 120 188 c 0
 120 163 120 163 103 145 c 0
 85 128 85 128 60 128 c 0
 35 128 35 128 17 145 c 0
 0 163 0 163 0 188 c 0
384 188 m 0
 384 213 384 213 401 231 c 0
 419 248 419 248 444 248 c 0
 469 248 469 248 487 231 c 0
 504 213 504 213 504 188 c 0
 504 163 504 163 487 145 c 0
 469 128 469 128 444 128 c 0
 419 128 419 128 401 145 c 0
 384 163 384 163 384 188 c 0
0 60 m 0
 0 85 0 85 17 103 c 0
 35 120 35 120 60 120 c 0
 85 120 85 120 103 103 c 0
 120 85 120 85 120 60 c 0
 120 35 120 35 103 17 c 0
 85 0 85 0 60 0 c 0
 35 0 35 0 17 17 c 0
 0 35 0 35 0 60 c 0
512 60 m 0
 512 85 512 85 529 103 c 0
 547 120 547 120 572 120 c 0
 597 120 597 120 615 103 c 0
 632 85 632 85 632 60 c 0
 632 35 632 35 615 17 c 0
 597 0 597 0 572 0 c 0
 547 0 547 0 529 17 c 0
 512 35 512 35 512 60 c 0
EndSplineSet
EndChar
StartChar: uni0053
Encoding: 83 83 50
Width: 768
VWidth: 0
Flags: HW
LayerCount: 2
Fore
SplineSet
128 828 m 0
 128 853 128 853 145 871 c 0
 163 888 163 888 188 888 c 0
 213 888 213 888 231 871 c 0
 248 853 248 853 248 828 c 0
 248 803 248 803 231 785 c 0
 213 768 213 768 188 768 c 0
 163 768 163 768 145 785 c 0
 128 803 128 803 128 828 c 0
256 828 m 0
 256 853 256 853 273 871 c 0
 291 888 291 888 316 888 c 0
 341 888 341 888 359 871 c 0
 376 853 376 853 376 828 c 0
 376 803 376 803 359 785 c 0
 341 768 341 768 316 768 c 0
 291 768 291 768 273 785 c 0
 256 803 256 803 256 828 c 0
384 828 m 0
 384 853 384 853 401 871 c 0
 419 888 419 888 444 888 c 0
 469 888 469 888 487 871 c 0
 504 853 504 853 504 828 c 0
 504 803 504 803 487 785 c 0
 469 768 469 768 444 768 c 0
 419 768 419 768 401 785 c 0
 384 803 384 803 384 828 c 0
0 700 m 0
 0 725 0 725 17 743 c 0
 35 760 35 760 60 760 c 0
 85 760 85 760 103 743 c 0
 120 725 120 725 120 700 c 0
 120 675 120 675 103 657 c 0
 85 640 85 640 60 640 c 0
 35 640 35 640 17 657 c 0
 0 675 0 675 0 700 c 0
512 700 m 0
 512 725 512 725 529 743 c 0
 547 760 547 760 572 760 c 0
 597 760 597 760 615 743 c 0
 632 725 632 725 632 700 c 0
 632 675 632 675 615 657 c 0
 597 640 597 640 572 640 c 0
 547 640 547 640 529 657 c 0
 512 675 512 675 512 700 c 0
128 572 m 0
 128 597 128 597 145 615 c 0
 163 632 163 632 188 632 c 0
 213 632 213 632 231 615 c 0
 248 597 248 597 248 572 c 0
 248 547 248 547 231 529 c 0
 213 512 213 512 188 512 c 0
 163 512 163 512 145 529 c 0
 128 547 128 547 128 572 c 0
256 444 m 0
 256 469 256 469 273 487 c 0
 291 504 291 504 316 504 c 0
 341 504 341 504 359 487 c 0
 376 469 376 469 376 444 c 0
 376 419 376 419 359 401 c 0
 341 384 341 384 316 384 c 0
 291 384 291 384 273 401 c 0
 256 419 256 419 256 444 c 0
384 316 m 0
 384 341 384 341 401 359 c 0
 419 376 419 376 444 376 c 0
 469 376 469 376 487 359 c 0
 504 341 504 341 504 316 c 0
 504 291 504 291 487 273 c 0
 469 256 469 256 444 256 c 0
 419 256 419 256 401 273 c 0
 384 291 384 291 384 316 c 0
0 188 m 0
 0 213 0 213 17 231 c 0
 35 248 35 248 60 248 c 0
 85 248 85 248 103 231 c 0
 120 213 120 213 120 188 c 0
 120 163 120 163 103 145 c 0
 85 128 85 128 60 128 c 0
 35 128 35 128 17 145 c 0
 0 163 0 163 0 188 c 0
512 188 m 0
 512 213 512 213 529 231 c 0
 547 248 547 248 572 248 c 0
 597 248 597 248 615 231 c 0
 632 213 632 213 632 188 c 0
 632 163 632 163 615 145 c 0
 597 128 597 128 572 128 c 0
 547 128 547 128 529 145 c 0
 512 163 512 163 512 188 c 0
128 60 m 0
 128 85 128 85 145 103 c 0
 163 120 163 120 188 120 c 0
 213 120 213 120 231 103 c 0
 248 85 248 85 248 60 c 0
 248 35 248 35 231 17 c 0
 213 0 213 0 188 0 c 0
 163 0 163 0 145 17 c 0
 128 35 128 35 128 60 c 0
256 60 m 0
 256 85 256 85 273 103 c 0
 291 120 291 120 316 120 c 0
 341 120 341 120 359 103 c 0
 376 85 376 85 376 60 c 0
 376 35 376 35 359 17 c 0
 341 0 341 0 316 0 c 0
 291 0 291 0 273 17 c 0
 256 35 256 35 256 60 c 0
384 60 m 0
 384 85 384 85 401 103 c 0
 419 120 419 120 444 120 c 0
 469 120 469 120 487 103 c 0
 504 85 504 85 504 60 c 0
 504 35 504 35 487 17 c 0
 469 0 469 0 444 0 c 0
 419 0 419 0 401 17 c 0
 384 35 384 35 384 60 c 0
EndSplineSet
EndChar
StartChar: uni0054
Encoding: 84 84 51
Width: 768
VWidth: 0
Flags: HW
LayerCount: 2
Fore
SplineSet
0 828 m 0
 0 853 0 853 17 871 c 0
 35 888 35 888 60 888 c 0
 85 888 85 888 103 871 c 0
 120 853 120 853 120 828 c 0
 120 803 120 803 103 785 c 0
 85 768 85 768 60 768 c 0
 35 768 35 768 17 785 c 0
 0 803 0 803 0 828 c 0
128 828 m 0
 128 853 128 853 145 871 c 0
 163 888 163 888 188 888 c 0
 213 888 213 888 231 871 c 0
 248 853 248 853 248 828 c 0
 248 803 248 803 231 785 c 0
 213 768 213 768 188 768 c 0
 163 768 163 768 145 785 c 0
 128 803 128 803 128 828 c 0
256 828 m 0
 256 853 256 853 273 871 c 0
 291 888 291 888 316 888 c 0
 341 888 341 888 359 871 c 0
 376 853 376 853 376 828 c 0
 376 803 376 803 359 785 c 0
 341 768 341 768 316 768 c 0
 291 768 291 768 273 785 c 0
 256 803 256 803 256 828 c 0
384 828 m 0
 384 853 384 853 401 871 c 0
 419 888 419 888 444 888 c 0
 469 888 469 888 487 871 c 0
 504 853 504 853 504 828 c 0
 504 803 504 803 487 785 c 0
 469 768 469 768 444 768 c 0
 419 768 419 768 401 785 c 0
 384 803 384 803 384 828 c 0
512 828 m 0
 512 853 512 853 529 871 c 0
 547 888 547 888 572 888 c 0
 597 888 597 888 615 871 c 0
 632 853 632 853 632 828 c 0
 632 803 632 803 615 785 c 0
 597 768 597 768 572 768 c 0
 547 768 547 768 529 785 c 0
 512 803 512 803 512 828 c 0
256 700 m 0
 256 725 256 725 273 743 c 0
 291 760 291 760 316 760 c 0
 341 760 341 760 359 743 c 0
 376 725 376 725 376 700 c 0
 376 675 376 675 359 657 c 0
 341 640 341 640 316 640 c 0
 291 640 291 640 273 657 c 0
 256 675 256 675 256 700 c 0
256 572 m 0
 256 597 256 597 273 615 c 0
 291 632 291 632 316 632 c 0
 341 632 341 632 359 615 c 0
 376 597 376 597 376 572 c 0
 376 547 376 547 359 529 c 0
 341 512 341 512 316 512 c 0
 291 512 291 512 273 529 c 0
 256 547 256 547 256 572 c 0
256 444 m 0
 256 469 256 469 273 487 c 0
 291 504 291 504 316 504 c 0
 341 504 341 504 359 487 c 0
 376 469 376 469 376 444 c 0
 376 419 376 419 359 401 c 0
 341 384 341 384 316 384 c 0
 291 384 291 384 273 401 c 0
 256 419 256 419 256 444 c 0
256 316 m 0
 256 341 256 341 273 359 c 0
 291 376 291 376 316 376 c 0
 341 376 341 376 359 359 c 0
 376 341 376 341 376 316 c 0
 376 291 376 291 359 273 c 0
 341 256 341 256 316 256 c 0
 291 256 291 256 273 273 c 0
 256 291 256 291 256 316 c 0
256 188 m 0
 256 213 256 213 273 231 c 0
 291 248 291 248 316 248 c 0
 341 248 341 248 359 231 c 0
 376 213 376 213 376 188 c 0
 376 163 376 163 359 145 c 0
 341 128 341 128 316 128 c 0
 291 128 291 128 273 145 c 0
 256 163 256 163 256 188 c 0
256 60 m 0
 256 85 256 85 273 103 c 0
 291 120 291 120 316 120 c 0
 341 120 341 120 359 103 c 0
 376 85 376 85 376 60 c 0
 376 35 376 35 359 17 c 0
 341 0 341 0 316 0 c 0
 291 0 291 0 273 17 c 0
 256 35 256 35 256 60 c 0
EndSplineSet
EndChar
StartChar: uni0055
Encoding: 85 85 52
Width: 768
VWidth: 0
Flags: HW
LayerCount: 2
Fore
SplineSet
0 828 m 0
 0 853 0 853 17 871 c 0
 35 888 35 888 60 888 c 0
 85 888 85 888 103 871 c 0
 120 853 120 853 120 828 c 0
 120 803 120 803 103 785 c 0
 85 768 85 768 60 768 c 0
 35 768 35 768 17 785 c 0
 0 803 0 803 0 828 c 0
512 828 m 0
 512 853 512 853 529 871 c 0
 547 888 547 888 572 888 c 0
 597 888 597 888 615 871 c 0
 632 853 632 853 632 828 c 0
 632 803 632 803 615 785 c 0
 597 768 597 768 572 768 c 0
 547 768 547 768 529 785 c 0
 512 803 512 803 512 828 c 0
0 700 m 0
 0 725 0 725 17 743 c 0
 35 760 35 760 60 760 c 0
 85 760 85 760 103 743 c 0
 120 725 120 725 120 700 c 0
 120 675 120 675 103 657 c 0
 85 640 85 640 60 640 c 0
 35 640 35 640 17 657 c 0
 0 675 0 675 0 700 c 0
512 700 m 0
 512 725 512 725 529 743 c 0
 547 760 547 760 572 760 c 0
 597 760 597 760 615 743 c 0
 632 725 632 725 632 700 c 0
 632 675 632 675 615 657 c 0
 597 640 597 640 572 640 c 0
 547 640 547 640 529 657 c 0
 512 675 512 675 512 700 c 0
0 572 m 0
 0 597 0 597 17 615 c 0
 35 632 35 632 60 632 c 0
 85 632 85 632 103 615 c 0
 120 597 120 597 120 572 c 0
 120 547 120 547 103 529 c 0
 85 512 85 512 60 512 c 0
 35 512 35 512 17 529 c 0
 0 547 0 547 0 572 c 0
512 572 m 0
 512 597 512 597 529 615 c 0
 547 632 547 632 572 632 c 0
 597 632 597 632 615 615 c 0
 632 597 632 597 632 572 c 0
 632 547 632 547 615 529 c 0
 597 512 597 512 572 512 c 0
 547 512 547 512 529 529 c 0
 512 547 512 547 512 572 c 0
0 444 m 0
 0 469 0 469 17 487 c 0
 35 504 35 504 60 504 c 0
 85 504 85 504 103 487 c 0
 120 469 120 469 120 444 c 0
 120 419 120 419 103 401 c 0
 85 384 85 384 60 384 c 0
 35 384 35 384 17 401 c 0
 0 419 0 419 0 444 c 0
512 444 m 0
 512 469 512 469 529 487 c 0
 547 504 547 504 572 504 c 0
 597 504 597 504 615 487 c 0
 632 469 632 469 632 444 c 0
 632 419 632 419 615 401 c 0
 597 384 597 384 572 384 c 0
 547 384 547 384 529 401 c 0
 512 419 512 419 512 444 c 0
0 316 m 0
 0 341 0 341 17 359 c 0
 35 376 35 376 60 376 c 0
 85 376 85 376 103 359 c 0
 120 341 120 341 120 316 c 0
 120 291 120 291 103 273 c 0
 85 256 85 256 60 256 c 0
 35 256 35 256 17 273 c 0
 0 291 0 291 0 316 c 0
512 316 m 0
 512 341 512 341 529 359 c 0
 547 376 547 376 572 376 c 0
 597 376 597 376 615 359 c 0
 632 341 632 341 632 316 c 0
 632 291 632 291 615 273 c 0
 597 256 597 256 572 256 c 0
 547 256 547 256 529 273 c 0
 512 291 512 291 512 316 c 0
0 188 m 0
 0 213 0 213 17 231 c 0
 35 248 35 248 60 248 c 0
 85 248 85 248 103 231 c 0
 120 213 120 213 120 188 c 0
 120 163 120 163 103 145 c 0
 85 128 85 128 60 128 c 0
 35 128 35 128 17 145 c 0
 0 163 0 163 0 188 c 0
512 188 m 0
 512 213 512 213 529 231 c 0
 547 248 547 248 572 248 c 0
 597 248 597 248 615 231 c 0
 632 213 632 213 632 188 c 0
 632 163 632 163 615 145 c 0
 597 128 597 128 572 128 c 0
 547 128 547 128 529 145 c 0
 512 163 512 163 512 188 c 0
128 60 m 0
 128 85 128 85 145 103 c 0
 163 120 163 120 188 120 c 0
 213 120 213 120 231 103 c 0
 248 85 248 85 248 60 c 0
 248 35 248 35 231 17 c 0
 213 0 213 0 188 0 c 0
 163 0 163 0 145 17 c 0
 128 35 128 35 128 60 c 0
256 60 m 0
 256 85 256 85 273 103 c 0
 291 120 291 120 316 120 c 0
 341 120 341 120 359 103 c 0
 376 85 376 85 376 60 c 0
 376 35 376 35 359 17 c 0
 341 0 341 0 316 0 c 0
 291 0 291 0 273 17 c 0
 256 35 256 35 256 60 c 0
384 60 m 0
 384 85 384 85 401 103 c 0
 419 120 419 120 444 120 c 0
 469 120 469 120 487 103 c 0
 504 85 504 85 504 60 c 0
 504 35 504 35 487 17 c 0
 469 0 469 0 444 0 c 0
 419 0 419 0 401 17 c 0
 384 35 384 35 384 60 c 0
EndSplineSet
EndChar
StartChar: uni0056
Encoding: 86 86 53
Width: 768
VWidth: 0
Flags: HW
LayerCount: 2
Fore
SplineSet
0 828 m 0
 0 853 0 853 17 871 c 0
 35 888 35 888 60 888 c 0
 85 888 85 888 103 871 c 0
 120 853 120 853 120 828 c 0
 120 803 120 803 103 785 c 0
 85 768 85 768 60 768 c 0
 35 768 35 768 17 785 c 0
 0 803 0 803 0 828 c 0
512 828 m 0
 512 853 512 853 529 871 c 0
 547 888 547 888 572 888 c 0
 597 888 597 888 615 871 c 0
 632 853 632 853 632 828 c 0
 632 803 632 803 615 785 c 0
 597 768 597 768 572 768 c 0
 547 768 547 768 529 785 c 0
 512 803 512 803 512 828 c 0
0 700 m 0
 0 725 0 725 17 743 c 0
 35 760 35 760 60 760 c 0
 85 760 85 760 103 743 c 0
 120 725 120 725 120 700 c 0
 120 675 120 675 103 657 c 0
 85 640 85 640 60 640 c 0
 35 640 35 640 17 657 c 0
 0 675 0 675 0 700 c 0
512 700 m 0
 512 725 512 725 529 743 c 0
 547 760 547 760 572 760 c 0
 597 760 597 760 615 743 c 0
 632 725 632 725 632 700 c 0
 632 675 632 675 615 657 c 0
 597 640 597 640 572 640 c 0
 547 640 547 640 529 657 c 0
 512 675 512 675 512 700 c 0
0 572 m 0
 0 597 0 597 17 615 c 0
 35 632 35 632 60 632 c 0
 85 632 85 632 103 615 c 0
 120 597 120 597 120 572 c 0
 120 547 120 547 103 529 c 0
 85 512 85 512 60 512 c 0
 35 512 35 512 17 529 c 0
 0 547 0 547 0 572 c 0
512 572 m 0
 512 597 512 597 529 615 c 0
 547 632 547 632 572 632 c 0
 597 632 597 632 615 615 c 0
 632 597 632 597 632 572 c 0
 632 547 632 547 615 529 c 0
 597 512 597 512 572 512 c 0
 547 512 547 512 529 529 c 0
 512 547 512 547 512 572 c 0
128 444 m 0
 128 469 128 469 145 487 c 0
 163 504 163 504 188 504 c 0
 213 504 213 504 231 487 c 0
 248 469 248 469 248 444 c 0
 248 419 248 419 231 401 c 0
 213 384 213 384 188 384 c 0
 163 384 163 384 145 401 c 0
 128 419 128 419 128 444 c 0
384 444 m 0
 384 469 384 469 401 487 c 0
 419 504 419 504 444 504 c 0
 469 504 469 504 487 487 c 0
 504 469 504 469 504 444 c 0
 504 419 504 419 487 401 c 0
 469 384 469 384 444 384 c 0
 419 384 419 384 401 401 c 0
 384 419 384 419 384 444 c 0
128 316 m 0
 128 341 128 341 145 359 c 0
 163 376 163 376 188 376 c 0
 213 376 213 376 231 359 c 0
 248 341 248 341 248 316 c 0
 248 291 248 291 231 273 c 0
 213 256 213 256 188 256 c 0
 163 256 163 256 145 273 c 0
 128 291 128 291 128 316 c 0
384 316 m 0
 384 341 384 341 401 359 c 0
 419 376 419 376 444 376 c 0
 469 376 469 376 487 359 c 0
 504 341 504 341 504 316 c 0
 504 291 504 291 487 273 c 0
 469 256 469 256 444 256 c 0
 419 256 419 256 401 273 c 0
 384 291 384 291 384 316 c 0
256 188 m 0
 256 213 256 213 273 231 c 0
 291 248 291 248 316 248 c 0
 341 248 341 248 359 231 c 0
 376 213 376 213 376 188 c 0
 376 163 376 163 359 145 c 0
 341 128 341 128 316 128 c 0
 291 128 291 128 273 145 c 0
 256 163 256 163 256 188 c 0
256 60 m 0
 256 85 256 85 273 103 c 0
 291 120 291 120 316 120 c 0
 341 120 341 120 359 103 c 0
 376 85 376 85 376 60 c 0
 376 35 376 35 359 17 c 0
 341 0 341 0 316 0 c 0
 291 0 291 0 273 17 c 0
 256 35 256 35 256 60 c 0
EndSplineSet
EndChar
StartChar: uni0057
Encoding: 87 87 54
Width: 768
VWidth: 0
Flags: HW
LayerCount: 2
Fore
SplineSet
0 828 m 0
 0 853 0 853 17 871 c 0
 35 888 35 888 60 888 c 0
 85 888 85 888 103 871 c 0
 120 853 120 853 120 828 c 0
 120 803 120 803 103 785 c 0
 85 768 85 768 60 768 c 0
 35 768 35 768 17 785 c 0
 0 803 0 803 0 828 c 0
512 828 m 0
 512 853 512 853 529 871 c 0
 547 888 547 888 572 888 c 0
 597 888 597 888 615 871 c 0
 632 853 632 853 632 828 c 0
 632 803 632 803 615 785 c 0
 597 768 597 768 572 768 c 0
 547 768 547 768 529 785 c 0
 512 803 512 803 512 828 c 0
0 700 m 0
 0 725 0 725 17 743 c 0
 35 760 35 760 60 760 c 0
 85 760 85 760 103 743 c 0
 120 725 120 725 120 700 c 0
 120 675 120 675 103 657 c 0
 85 640 85 640 60 640 c 0
 35 640 35 640 17 657 c 0
 0 675 0 675 0 700 c 0
512 700 m 0
 512 725 512 725 529 743 c 0
 547 760 547 760 572 760 c 0
 597 760 597 760 615 743 c 0
 632 725 632 725 632 700 c 0
 632 675 632 675 615 657 c 0
 597 640 597 640 572 640 c 0
 547 640 547 640 529 657 c 0
 512 675 512 675 512 700 c 0
0 572 m 0
 0 597 0 597 17 615 c 0
 35 632 35 632 60 632 c 0
 85 632 85 632 103 615 c 0
 120 597 120 597 120 572 c 0
 120 547 120 547 103 529 c 0
 85 512 85 512 60 512 c 0
 35 512 35 512 17 529 c 0
 0 547 0 547 0 572 c 0
512 572 m 0
 512 597 512 597 529 615 c 0
 547 632 547 632 572 632 c 0
 597 632 597 632 615 615 c 0
 632 597 632 597 632 572 c 0
 632 547 632 547 615 529 c 0
 597 512 597 512 572 512 c 0
 547 512 547 512 529 529 c 0
 512 547 512 547 512 572 c 0
0 444 m 0
 0 469 0 469 17 487 c 0
 35 504 35 504 60 504 c 0
 85 504 85 504 103 487 c 0
 120 469 120 469 120 444 c 0
 120 419 120 419 103 401 c 0
 85 384 85 384 60 384 c 0
 35 384 35 384 17 401 c 0
 0 419 0 419 0 444 c 0
512 444 m 0
 512 469 512 469 529 487 c 0
 547 504 547 504 572 504 c 0
 597 504 597 504 615 487 c 0
 632 469 632 469 632 444 c 0
 632 419 632 419 615 401 c 0
 597 384 597 384 572 384 c 0
 547 384 547 384 529 401 c 0
 512 419 512 419 512 444 c 0
0 316 m 0
 0 341 0 341 17 359 c 0
 35 376 35 376 60 376 c 0
 85 376 85 376 103 359 c 0
 120 341 120 341 120 316 c 0
 120 291 120 291 103 273 c 0
 85 256 85 256 60 256 c 0
 35 256 35 256 17 273 c 0
 0 291 0 291 0 316 c 0
256 316 m 0
 256 341 256 341 273 359 c 0
 291 376 291 376 316 376 c 0
 341 376 341 376 359 359 c 0
 376 341 376 341 376 316 c 0
 376 291 376 291 359 273 c 0
 341 256 341 256 316 256 c 0
 291 256 291 256 273 273 c 0
 256 291 256 291 256 316 c 0
512 316 m 0
 512 341 512 341 529 359 c 0
 547 376 547 376 572 376 c 0
 597 376 597 376 615 359 c 0
 632 341 632 341 632 316 c 0
 632 291 632 291 615 273 c 0
 597 256 597 256 572 256 c 0
 547 256 547 256 529 273 c 0
 512 291 512 291 512 316 c 0
0 188 m 0
 0 213 0 213 17 231 c 0
 35 248 35 248 60 248 c 0
 85 248 85 248 103 231 c 0
 120 213 120 213 120 188 c 0
 120 163 120 163 103 145 c 0
 85 128 85 128 60 128 c 0
 35 128 35 128 17 145 c 0
 0 163 0 163 0 188 c 0
128 188 m 0
 128 213 128 213 145 231 c 0
 163 248 163 248 188 248 c 0
 213 248 213 248 231 231 c 0
 248 213 248 213 248 188 c 0
 248 163 248 163 231 145 c 0
 213 128 213 128 188 128 c 0
 163 128 163 128 145 145 c 0
 128 163 128 163 128 188 c 0
384 188 m 0
 384 213 384 213 401 231 c 0
 419 248 419 248 444 248 c 0
 469 248 469 248 487 231 c 0
 504 213 504 213 504 188 c 0
 504 163 504 163 487 145 c 0
 469 128 469 128 444 128 c 0
 419 128 419 128 401 145 c 0
 384 163 384 163 384 188 c 0
512 188 m 0
 512 213 512 213 529 231 c 0
 547 248 547 248 572 248 c 0
 597 248 597 248 615 231 c 0
 632 213 632 213 632 188 c 0
 632 163 632 163 615 145 c 0
 597 128 597 128 572 128 c 0
 547 128 547 128 529 145 c 0
 512 163 512 163 512 188 c 0
0 60 m 0
 0 85 0 85 17 103 c 0
 35 120 35 120 60 120 c 0
 85 120 85 120 103 103 c 0
 120 85 120 85 120 60 c 0
 120 35 120 35 103 17 c 0
 85 0 85 0 60 0 c 0
 35 0 35 0 17 17 c 0
 0 35 0 35 0 60 c 0
512 60 m 0
 512 85 512 85 529 103 c 0
 547 120 547 120 572 120 c 0
 597 120 597 120 615 103 c 0
 632 85 632 85 632 60 c 0
 632 35 632 35 615 17 c 0
 597 0 597 0 572 0 c 0
 547 0 547 0 529 17 c 0
 512 35 512 35 512 60 c 0
EndSplineSet
EndChar
StartChar: uni0058
Encoding: 88 88 55
Width: 768
VWidth: 0
Flags: HW
LayerCount: 2
Fore
SplineSet
0 828 m 0
 0 853 0 853 17 871 c 0
 35 888 35 888 60 888 c 0
 85 888 85 888 103 871 c 0
 120 853 120 853 120 828 c 0
 120 803 120 803 103 785 c 0
 85 768 85 768 60 768 c 0
 35 768 35 768 17 785 c 0
 0 803 0 803 0 828 c 0
512 828 m 0
 512 853 512 853 529 871 c 0
 547 888 547 888 572 888 c 0
 597 888 597 888 615 871 c 0
 632 853 632 853 632 828 c 0
 632 803 632 803 615 785 c 0
 597 768 597 768 572 768 c 0
 547 768 547 768 529 785 c 0
 512 803 512 803 512 828 c 0
0 700 m 0
 0 725 0 725 17 743 c 0
 35 760 35 760 60 760 c 0
 85 760 85 760 103 743 c 0
 120 725 120 725 120 700 c 0
 120 675 120 675 103 657 c 0
 85 640 85 640 60 640 c 0
 35 640 35 640 17 657 c 0
 0 675 0 675 0 700 c 0
512 700 m 0
 512 725 512 725 529 743 c 0
 547 760 547 760 572 760 c 0
 597 760 597 760 615 743 c 0
 632 725 632 725 632 700 c 0
 632 675 632 675 615 657 c 0
 597 640 597 640 572 640 c 0
 547 640 547 640 529 657 c 0
 512 675 512 675 512 700 c 0
128 572 m 0
 128 597 128 597 145 615 c 0
 163 632 163 632 188 632 c 0
 213 632 213 632 231 615 c 0
 248 597 248 597 248 572 c 0
 248 547 248 547 231 529 c 0
 213 512 213 512 188 512 c 0
 163 512 163 512 145 529 c 0
 128 547 128 547 128 572 c 0
384 572 m 0
 384 597 384 597 401 615 c 0
 419 632 419 632 444 632 c 0
 469 632 469 632 487 615 c 0
 504 597 504 597 504 572 c 0
 504 547 504 547 487 529 c 0
 469 512 469 512 444 512 c 0
 419 512 419 512 401 529 c 0
 384 547 384 547 384 572 c 0
256 444 m 0
 256 469 256 469 273 487 c 0
 291 504 291 504 316 504 c 0
 341 504 341 504 359 487 c 0
 376 469 376 469 376 444 c 0
 376 419 376 419 359 401 c 0
 341 384 341 384 316 384 c 0
 291 384 291 384 273 401 c 0
 256 419 256 419 256 444 c 0
128 316 m 0
 128 341 128 341 145 359 c 0
 163 376 163 376 188 376 c 0
 213 376 213 376 231 359 c 0
 248 341 248 341 248 316 c 0
 248 291 248 291 231 273 c 0
 213 256 213 256 188 256 c 0
 163 256 163 256 145 273 c 0
 128 291 128 291 128 316 c 0
384 316 m 0
 384 341 384 341 401 359 c 0
 419 376 419 376 444 376 c 0
 469 376 469 376 487 359 c 0
 504 341 504 341 504 316 c 0
 504 291 504 291 487 273 c 0
 469 256 469 256 444 256 c 0
 419 256 419 256 401 273 c 0
 384 291 384 291 384 316 c 0
0 188 m 0
 0 213 0 213 17 231 c 0
 35 248 35 248 60 248 c 0
 85 248 85 248 103 231 c 0
 120 213 120 213 120 188 c 0
 120 163 120 163 103 145 c 0
 85 128 85 128 60 128 c 0
 35 128 35 128 17 145 c 0
 0 163 0 163 0 188 c 0
512 188 m 0
 512 213 512 213 529 231 c 0
 547 248 547 248 572 248 c 0
 597 248 597 248 615 231 c 0
 632 213 632 213 632 188 c 0
 632 163 632 163 615 145 c 0
 597 128 597 128 572 128 c 0
 547 128 547 128 529 145 c 0
 512 163 512 163 512 188 c 0
0 60 m 0
 0 85 0 85 17 103 c 0
 35 120 35 120 60 120 c 0
 85 120 85 120 103 103 c 0
 120 85 120 85 120 60 c 0
 120 35 120 35 103 17 c 0
 85 0 85 0 60 0 c 0
 35 0 35 0 17 17 c 0
 0 35 0 35 0 60 c 0
512 60 m 0
 512 85 512 85 529 103 c 0
 547 120 547 120 572 120 c 0
 597 120 597 120 615 103 c 0
 632 85 632 85 632 60 c 0
 632 35 632 35 615 17 c 0
 597 0 597 0 572 0 c 0
 547 0 547 0 529 17 c 0
 512 35 512 35 512 60 c 0
EndSplineSet
EndChar
StartChar: uni0059
Encoding: 89 89 56
Width: 768
VWidth: 0
Flags: HW
LayerCount: 2
Fore
SplineSet
0 828 m 0
 0 853 0 853 17 871 c 0
 35 888 35 888 60 888 c 0
 85 888 85 888 103 871 c 0
 120 853 120 853 120 828 c 0
 120 803 120 803 103 785 c 0
 85 768 85 768 60 768 c 0
 35 768 35 768 17 785 c 0
 0 803 0 803 0 828 c 0
512 828 m 0
 512 853 512 853 529 871 c 0
 547 888 547 888 572 888 c 0
 597 888 597 888 615 871 c 0
 632 853 632 853 632 828 c 0
 632 803 632 803 615 785 c 0
 597 768 597 768 572 768 c 0
 547 768 547 768 529 785 c 0
 512 803 512 803 512 828 c 0
0 700 m 0
 0 725 0 725 17 743 c 0
 35 760 35 760 60 760 c 0
 85 760 85 760 103 743 c 0
 120 725 120 725 120 700 c 0
 120 675 120 675 103 657 c 0
 85 640 85 640 60 640 c 0
 35 640 35 640 17 657 c 0
 0 675 0 675 0 700 c 0
512 700 m 0
 512 725 512 725 529 743 c 0
 547 760 547 760 572 760 c 0
 597 760 597 760 615 743 c 0
 632 725 632 725 632 700 c 0
 632 675 632 675 615 657 c 0
 597 640 597 640 572 640 c 0
 547 640 547 640 529 657 c 0
 512 675 512 675 512 700 c 0
128 572 m 0
 128 597 128 597 145 615 c 0
 163 632 163 632 188 632 c 0
 213 632 213 632 231 615 c 0
 248 597 248 597 248 572 c 0
 248 547 248 547 231 529 c 0
 213 512 213 512 188 512 c 0
 163 512 163 512 145 529 c 0
 128 547 128 547 128 572 c 0
384 572 m 0
 384 597 384 597 401 615 c 0
 419 632 419 632 444 632 c 0
 469 632 469 632 487 615 c 0
 504 597 504 597 504 572 c 0
 504 547 504 547 487 529 c 0
 469 512 469 512 444 512 c 0
 419 512 419 512 401 529 c 0
 384 547 384 547 384 572 c 0
256 444 m 0
 256 469 256 469 273 487 c 0
 291 504 291 504 316 504 c 0
 341 504 341 504 359 487 c 0
 376 469 376 469 376 444 c 0
 376 419 376 419 359 401 c 0
 341 384 341 384 316 384 c 0
 291 384 291 384 273 401 c 0
 256 419 256 419 256 444 c 0
256 316 m 0
 256 341 256 341 273 359 c 0
 291 376 291 376 316 376 c 0
 341 376 341 376 359 359 c 0
 376 341 376 341 376 316 c 0
 376 291 376 291 359 273 c 0
 341 256 341 256 316 256 c 0
 291 256 291 256 273 273 c 0
 256 291 256 291 256 316 c 0
256 188 m 0
 256 213 256 213 273 231 c 0
 291 248 291 248 316 248 c 0
 341 248 341 248 359 231 c 0
 376 213 376 213 376 188 c 0
 376 163 376 163 359 145 c 0
 341 128 341 128 316 128 c 0
 291 128 291 128 273 145 c 0
 256 163 256 163 256 188 c 0
256 60 m 0
 256 85 256 85 273 103 c 0
 291 120 291 120 316 120 c 0
 341 120 341 120 359 103 c 0
 376 85 376 85 376 60 c 0
 376 35 376 35 359 17 c 0
 341 0 341 0 316 0 c 0
 291 0 291 0 273 17 c 0
 256 35 256 35 256 60 c 0
EndSplineSet
EndChar
StartChar: uni005A
Encoding: 90 90 57
Width: 768
VWidth: 0
Flags: HW
LayerCount: 2
Fore
SplineSet
0 828 m 0
 0 853 0 853 17 871 c 0
 35 888 35 888 60 888 c 0
 85 888 85 888 103 871 c 0
 120 853 120 853 120 828 c 0
 120 803 120 803 103 785 c 0
 85 768 85 768 60 768 c 0
 35 768 35 768 17 785 c 0
 0 803 0 803 0 828 c 0
128 828 m 0
 128 853 128 853 145 871 c 0
 163 888 163 888 188 888 c 0
 213 888 213 888 231 871 c 0
 248 853 248 853 248 828 c 0
 248 803 248 803 231 785 c 0
 213 768 213 768 188 768 c 0
 163 768 163 768 145 785 c 0
 128 803 128 803 128 828 c 0
256 828 m 0
 256 853 256 853 273 871 c 0
 291 888 291 888 316 888 c 0
 341 888 341 888 359 871 c 0
 376 853 376 853 376 828 c 0
 376 803 376 803 359 785 c 0
 341 768 341 768 316 768 c 0
 291 768 291 768 273 785 c 0
 256 803 256 803 256 828 c 0
384 828 m 0
 384 853 384 853 401 871 c 0
 419 888 419 888 444 888 c 0
 469 888 469 888 487 871 c 0
 504 853 504 853 504 828 c 0
 504 803 504 803 487 785 c 0
 469 768 469 768 444 768 c 0
 419 768 419 768 401 785 c 0
 384 803 384 803 384 828 c 0
512 828 m 0
 512 853 512 853 529 871 c 0
 547 888 547 888 572 888 c 0
 597 888 597 888 615 871 c 0
 632 853 632 853 632 828 c 0
 632 803 632 803 615 785 c 0
 597 768 597 768 572 768 c 0
 547 768 547 768 529 785 c 0
 512 803 512 803 512 828 c 0
512 700 m 0
 512 725 512 725 529 743 c 0
 547 760 547 760 572 760 c 0
 597 760 597 760 615 743 c 0
 632 725 632 725 632 700 c 0
 632 675 632 675 615 657 c 0
 597 640 597 640 572 640 c 0
 547 640 547 640 529 657 c 0
 512 675 512 675 512 700 c 0
384 572 m 0
 384 597 384 597 401 615 c 0
 419 632 419 632 444 632 c 0
 469 632 469 632 487 615 c 0
 504 597 504 597 504 572 c 0
 504 547 504 547 487 529 c 0
 469 512 469 512 444 512 c 0
 419 512 419 512 401 529 c 0
 384 547 384 547 384 572 c 0
256 444 m 0
 256 469 256 469 273 487 c 0
 291 504 291 504 316 504 c 0
 341 504 341 504 359 487 c 0
 376 469 376 469 376 444 c 0
 376 419 376 419 359 401 c 0
 341 384 341 384 316 384 c 0
 291 384 291 384 273 401 c 0
 256 419 256 419 256 444 c 0
128 316 m 0
 128 341 128 341 145 359 c 0
 163 376 163 376 188 376 c 0
 213 376 213 376 231 359 c 0
 248 341 248 341 248 316 c 0
 248 291 248 291 231 273 c 0
 213 256 213 256 188 256 c 0
 163 256 163 256 145 273 c 0
 128 291 128 291 128 316 c 0
0 188 m 0
 0 213 0 213 17 231 c 0
 35 248 35 248 60 248 c 0
 85 248 85 248 103 231 c 0
 120 213 120 213 120 188 c 0
 120 163 120 163 103 145 c 0
 85 128 85 128 60 128 c 0
 35 128 35 128 17 145 c 0
 0 163 0 163 0 188 c 0
0 60 m 0
 0 85 0 85 17 103 c 0
 35 120 35 120 60 120 c 0
 85 120 85 120 103 103 c 0
 120 85 120 85 120 60 c 0
 120 35 120 35 103 17 c 0
 85 0 85 0 60 0 c 0
 35 0 35 0 17 17 c 0
 0 35 0 35 0 60 c 0
128 60 m 0
 128 85 128 85 145 103 c 0
 163 120 163 120 188 120 c 0
 213 120 213 120 231 103 c 0
 248 85 248 85 248 60 c 0
 248 35 248 35 231 17 c 0
 213 0 213 0 188 0 c 0
 163 0 163 0 145 17 c 0
 128 35 128 35 128 60 c 0
256 60 m 0
 256 85 256 85 273 103 c 0
 291 120 291 120 316 120 c 0
 341 120 341 120 359 103 c 0
 376 85 376 85 376 60 c 0
 376 35 376 35 359 17 c 0
 341 0 341 0 316 0 c 0
 291 0 291 0 273 17 c 0
 256 35 256 35 256 60 c 0
384 60 m 0
 384 85 384 85 401 103 c 0
 419 120 419 120 444 120 c 0
 469 120 469 120 487 103 c 0
 504 85 504 85 504 60 c 0
 504 35 504 35 487 17 c 0
 469 0 469 0 444 0 c 0
 419 0 419 0 401 17 c 0
 384 35 384 35 384 60 c 0
512 60 m 0
 512 85 512 85 529 103 c 0
 547 120 547 120 572 120 c 0
 597 120 597 120 615 103 c 0
 632 85 632 85 632 60 c 0
 632 35 632 35 615 17 c 0
 597 0 597 0 572 0 c 0
 547 0 547 0 529 17 c 0
 512 35 512 35 512 60 c 0
EndSplineSet
EndChar
StartChar: uni005F
Encoding: 95 95 58
Width: 768
VWidth: 0
Flags: HW
LayerCount: 2
Fore
SplineSet
0 60 m 0
 0 85 0 85 17 103 c 0
 35 120 35 120 60 120 c 0
 85 120 85 120 103 103 c 0
 120 85 120 85 120 60 c 0
 120 35 120 35 103 17 c 0
 85 0 85 0 60 0 c 0
 35 0 35 0 17 17 c 0
 0 35 0 35 0 60 c 0
128 60 m 0
 128 85 128 85 145 103 c 0
 163 120 163 120 188 120 c 0
 213 120 213 120 231 103 c 0
 248 85 248 85 248 60 c 0
 248 35 248 35 231 17 c 0
 213 0 213 0 188 0 c 0
 163 0 163 0 145 17 c 0
 128 35 128 35 128 60 c 0
256 60 m 0
 256 85 256 85 273 103 c 0
 291 120 291 120 316 120 c 0
 341 120 341 120 359 103 c 0
 376 85 376 85 376 60 c 0
 376 35 376 35 359 17 c 0
 341 0 341 0 316 0 c 0
 291 0 291 0 273 17 c 0
 256 35 256 35 256 60 c 0
384 60 m 0
 384 85 384 85 401 103 c 0
 419 120 419 120 444 120 c 0
 469 120 469 120 487 103 c 0
 504 85 504 85 504 60 c 0
 504 35 504 35 487 17 c 0
 469 0 469 0 444 0 c 0
 419 0 419 0 401 17 c 0
 384 35 384 35 384 60 c 0
512 60 m 0
 512 85 512 85 529 103 c 0
 547 120 547 120 572 120 c 0
 597 120 597 120 615 103 c 0
 632 85 632 85 632 60 c 0
 632 35 632 35 615 17 c 0
 597 0 597 0 572 0 c 0
 547 0 547 0 529 17 c 0
 512 35 512 35 512 60 c 0
EndSplineSet
EndChar
StartChar: uni007C
Encoding: 124 124 59
Width: 768
VWidth: 0
Flags: HW
LayerCount: 2
Fore
SplineSet
256 700 m 0
 256 725 256 725 273 743 c 0
 291 760 291 760 316 760 c 0
 341 760 341 760 359 743 c 0
 376 725 376 725 376 700 c 0
 376 675 376 675 359 657 c 0
 341 640 341 640 316 640 c 0
 291 640 291 640 273 657 c 0
 256 675 256 675 256 700 c 0
256 572 m 0
 256 597 256 597 273 615 c 0
 291 632 291 632 316 632 c 0
 341 632 341 632 359 615 c 0
 376 597 376 597 376 572 c 0
 376 547 376 547 359 529 c 0
 341 512 341 512 316 512 c 0
 291 512 291 512 273 529 c 0
 256 547 256 547 256 572 c 0
256 444 m 0
 256 469 256 469 273 487 c 0
 291 504 291 504 316 504 c 0
 341 504 341 504 359 487 c 0
 376 469 376 469 376 444 c 0
 376 419 376 419 359 401 c 0
 341 384 341 384 316 384 c 0
 291 384 291 384 273 401 c 0
 256 419 256 419 256 444 c 0
256 316 m 0
 256 341 256 341 273 359 c 0
 291 376 291 376 316 376 c 0
 341 376 341 376 359 359 c 0
 376 341 376 341 376 316 c 0
 376 291 376 291 359 273 c 0
 341 256 341 256 316 256 c 0
 291 256 291 256 273 273 c 0
 256 291 256 291 256 316 c 0
256 188 m 0
 256 213 256 213 273 231 c 0
 291 248 291 248 316 248 c 0
 341 248 341 248 359 231 c 0
 376 213 376 213 376 188 c 0
 376 163 376 163 359 145 c 0
 341 128 341 128 316 128 c 0
 291 128 291 128 273 145 c 0
 256 163 256 163 256 188 c 0
EndSplineSet
EndChar
StartChar: uni00A2
Encoding: 162 162 60
Width: 768
VWidth: 0
Flags: HW
LayerCount: 2
Fore
SplineSet
256 828 m 0
 256 853 256 853 273 871 c 0
 291 888 291 888 316 888 c 0
 341 888 341 888 359 871 c 0
 376 853 376 853 376 828 c 0
 376 803 376 803 359 785 c 0
 341 768 341 768 316 768 c 0
 291 768 291 768 273 785 c 0
 256 803 256 803 256 828 c 0
128 700 m 0
 128 725 128 725 145 743 c 0
 163 760 163 760 188 760 c 0
 213 760 213 760 231 743 c 0
 248 725 248 725 248 700 c 0
 248 675 248 675 231 657 c 0
 213 640 213 640 188 640 c 0
 163 640 163 640 145 657 c 0
 128 675 128 675 128 700 c 0
256 700 m 0
 256 725 256 725 273 743 c 0
 291 760 291 760 316 760 c 0
 341 760 341 760 359 743 c 0
 376 725 376 725 376 700 c 0
 376 675 376 675 359 657 c 0
 341 640 341 640 316 640 c 0
 291 640 291 640 273 657 c 0
 256 675 256 675 256 700 c 0
384 700 m 0
 384 725 384 725 401 743 c 0
 419 760 419 760 444 760 c 0
 469 760 469 760 487 743 c 0
 504 725 504 725 504 700 c 0
 504 675 504 675 487 657 c 0
 469 640 469 640 444 640 c 0
 419 640 419 640 401 657 c 0
 384 675 384 675 384 700 c 0
0 572 m 0
 0 597 0 597 17 615 c 0
 35 632 35 632 60 632 c 0
 85 632 85 632 103 615 c 0
 120 597 120 597 120 572 c 0
 120 547 120 547 103 529 c 0
 85 512 85 512 60 512 c 0
 35 512 35 512 17 529 c 0
 0 547 0 547 0 572 c 0
0 444 m 0
 0 469 0 469 17 487 c 0
 35 504 35 504 60 504 c 0
 85 504 85 504 103 487 c 0
 120 469 120 469 120 444 c 0
 120 419 120 419 103 401 c 0
 85 384 85 384 60 384 c 0
 35 384 35 384 17 401 c 0
 0 419 0 419 0 444 c 0
0 316 m 0
 0 341 0 341 17 359 c 0
 35 376 35 376 60 376 c 0
 85 376 85 376 103 359 c 0
 120 341 120 341 120 316 c 0
 120 291 120 291 103 273 c 0
 85 256 85 256 60 256 c 0
 35 256 35 256 17 273 c 0
 0 291 0 291 0 316 c 0
128 188 m 0
 128 213 128 213 145 231 c 0
 163 248 163 248 188 248 c 0
 213 248 213 248 231 231 c 0
 248 213 248 213 248 188 c 0
 248 163 248 163 231 145 c 0
 213 128 213 128 188 128 c 0
 163 128 163 128 145 145 c 0
 128 163 128 163 128 188 c 0
256 188 m 0
 256 213 256 213 273 231 c 0
 291 248 291 248 316 248 c 0
 341 248 341 248 359 231 c 0
 376 213 376 213 376 188 c 0
 376 163 376 163 359 145 c 0
 341 128 341 128 316 128 c 0
 291 128 291 128 273 145 c 0
 256 163 256 163 256 188 c 0
384 188 m 0
 384 213 384 213 401 231 c 0
 419 248 419 248 444 248 c 0
 469 248 469 248 487 231 c 0
 504 213 504 213 504 188 c 0
 504 163 504 163 487 145 c 0
 469 128 469 128 444 128 c 0
 419 128 419 128 401 145 c 0
 384 163 384 163 384 188 c 0
256 60 m 0
 256 85 256 85 273 103 c 0
 291 120 291 120 316 120 c 0
 341 120 341 120 359 103 c 0
 376 85 376 85 376 60 c 0
 376 35 376 35 359 17 c 0
 341 0 341 0 316 0 c 0
 291 0 291 0 273 17 c 0
 256 35 256 35 256 60 c 0
EndSplineSet
EndChar
StartChar: uni00A3
Encoding: 163 163 61
Width: 768
VWidth: 0
Flags: HW
LayerCount: 2
Fore
SplineSet
256 828 m 0
 256 853 256 853 273 871 c 0
 291 888 291 888 316 888 c 0
 341 888 341 888 359 871 c 0
 376 853 376 853 376 828 c 0
 376 803 376 803 359 785 c 0
 341 768 341 768 316 768 c 0
 291 768 291 768 273 785 c 0
 256 803 256 803 256 828 c 0
128 700 m 0
 128 725 128 725 145 743 c 0
 163 760 163 760 188 760 c 0
 213 760 213 760 231 743 c 0
 248 725 248 725 248 700 c 0
 248 675 248 675 231 657 c 0
 213 640 213 640 188 640 c 0
 163 640 163 640 145 657 c 0
 128 675 128 675 128 700 c 0
384 700 m 0
 384 725 384 725 401 743 c 0
 419 760 419 760 444 760 c 0
 469 760 469 760 487 743 c 0
 504 725 504 725 504 700 c 0
 504 675 504 675 487 657 c 0
 469 640 469 640 444 640 c 0
 419 640 419 640 401 657 c 0
 384 675 384 675 384 700 c 0
128 572 m 0
 128 597 128 597 145 615 c 0
 163 632 163 632 188 632 c 0
 213 632 213 632 231 615 c 0
 248 597 248 597 248 572 c 0
 248 547 248 547 231 529 c 0
 213 512 213 512 188 512 c 0
 163 512 163 512 145 529 c 0
 128 547 128 547 128 572 c 0
0 444 m 0
 0 469 0 469 17 487 c 0
 35 504 35 504 60 504 c 0
 85 504 85 504 103 487 c 0
 120 469 120 469 120 444 c 0
 120 419 120 419 103 401 c 0
 85 384 85 384 60 384 c 0
 35 384 35 384 17 401 c 0
 0 419 0 419 0 444 c 0
128 444 m 0
 128 469 128 469 145 487 c 0
 163 504 163 504 188 504 c 0
 213 504 213 504 231 487 c 0
 248 469 248 469 248 444 c 0
 248 419 248 419 231 401 c 0
 213 384 213 384 188 384 c 0
 163 384 163 384 145 401 c 0
 128 419 128 419 128 444 c 0
256 444 m 0
 256 469 256 469 273 487 c 0
 291 504 291 504 316 504 c 0
 341 504 341 504 359 487 c 0
 376 469 376 469 376 444 c 0
 376 419 376 419 359 401 c 0
 341 384 341 384 316 384 c 0
 291 384 291 384 273 401 c 0
 256 419 256 419 256 444 c 0
384 444 m 0
 384 469 384 469 401 487 c 0
 419 504 419 504 444 504 c 0
 469 504 469 504 487 487 c 0
 504 469 504 469 504 444 c 0
 504 419 504 419 487 401 c 0
 469 384 469 384 444 384 c 0
 419 384 419 384 401 401 c 0
 384 419 384 419 384 444 c 0
128 316 m 0
 128 341 128 341 145 359 c 0
 163 376 163 376 188 376 c 0
 213 376 213 376 231 359 c 0
 248 341 248 341 248 316 c 0
 248 291 248 291 231 273 c 0
 213 256 213 256 188 256 c 0
 163 256 163 256 145 273 c 0
 128 291 128 291 128 316 c 0
128 188 m 0
 128 213 128 213 145 231 c 0
 163 248 163 248 188 248 c 0
 213 248 213 248 231 231 c 0
 248 213 248 213 248 188 c 0
 248 163 248 163 231 145 c 0
 213 128 213 128 188 128 c 0
 163 128 163 128 145 145 c 0
 128 163 128 163 128 188 c 0
128 60 m 0
 128 85 128 85 145 103 c 0
 163 120 163 120 188 120 c 0
 213 120 213 120 231 103 c 0
 248 85 248 85 248 60 c 0
 248 35 248 35 231 17 c 0
 213 0 213 0 188 0 c 0
 163 0 163 0 145 17 c 0
 128 35 128 35 128 60 c 0
256 60 m 0
 256 85 256 85 273 103 c 0
 291 120 291 120 316 120 c 0
 341 120 341 120 359 103 c 0
 376 85 376 85 376 60 c 0
 376 35 376 35 359 17 c 0
 341 0 341 0 316 0 c 0
 291 0 291 0 273 17 c 0
 256 35 256 35 256 60 c 0
384 60 m 0
 384 85 384 85 401 103 c 0
 419 120 419 120 444 120 c 0
 469 120 469 120 487 103 c 0
 504 85 504 85 504 60 c 0
 504 35 504 35 487 17 c 0
 469 0 469 0 444 0 c 0
 419 0 419 0 401 17 c 0
 384 35 384 35 384 60 c 0
512 60 m 0
 512 85 512 85 529 103 c 0
 547 120 547 120 572 120 c 0
 597 120 597 120 615 103 c 0
 632 85 632 85 632 60 c 0
 632 35 632 35 615 17 c 0
 597 0 597 0 572 0 c 0
 547 0 547 0 529 17 c 0
 512 35 512 35 512 60 c 0
EndSplineSet
EndChar
StartChar: uni00A5
Encoding: 165 165 62
Width: 768
VWidth: 0
Flags: HW
LayerCount: 2
Fore
SplineSet
0 828 m 0
 0 853 0 853 17 871 c 0
 35 888 35 888 60 888 c 0
 85 888 85 888 103 871 c 0
 120 853 120 853 120 828 c 0
 120 803 120 803 103 785 c 0
 85 768 85 768 60 768 c 0
 35 768 35 768 17 785 c 0
 0 803 0 803 0 828 c 0
512 828 m 0
 512 853 512 853 529 871 c 0
 547 888 547 888 572 888 c 0
 597 888 597 888 615 871 c 0
 632 853 632 853 632 828 c 0
 632 803 632 803 615 785 c 0
 597 768 597 768 572 768 c 0
 547 768 547 768 529 785 c 0
 512 803 512 803 512 828 c 0
128 700 m 0
 128 725 128 725 145 743 c 0
 163 760 163 760 188 760 c 0
 213 760 213 760 231 743 c 0
 248 725 248 725 248 700 c 0
 248 675 248 675 231 657 c 0
 213 640 213 640 188 640 c 0
 163 640 163 640 145 657 c 0
 128 675 128 675 128 700 c 0
384 700 m 0
 384 725 384 725 401 743 c 0
 419 760 419 760 444 760 c 0
 469 760 469 760 487 743 c 0
 504 725 504 725 504 700 c 0
 504 675 504 675 487 657 c 0
 469 640 469 640 444 640 c 0
 419 640 419 640 401 657 c 0
 384 675 384 675 384 700 c 0
256 572 m 0
 256 597 256 597 273 615 c 0
 291 632 291 632 316 632 c 0
 341 632 341 632 359 615 c 0
 376 597 376 597 376 572 c 0
 376 547 376 547 359 529 c 0
 341 512 341 512 316 512 c 0
 291 512 291 512 273 529 c 0
 256 547 256 547 256 572 c 0
0 444 m 0
 0 469 0 469 17 487 c 0
 35 504 35 504 60 504 c 0
 85 504 85 504 103 487 c 0
 120 469 120 469 120 444 c 0
 120 419 120 419 103 401 c 0
 85 384 85 384 60 384 c 0
 35 384 35 384 17 401 c 0
 0 419 0 419 0 444 c 0
128 444 m 0
 128 469 128 469 145 487 c 0
 163 504 163 504 188 504 c 0
 213 504 213 504 231 487 c 0
 248 469 248 469 248 444 c 0
 248 419 248 419 231 401 c 0
 213 384 213 384 188 384 c 0
 163 384 163 384 145 401 c 0
 128 419 128 419 128 444 c 0
256 444 m 0
 256 469 256 469 273 487 c 0
 291 504 291 504 316 504 c 0
 341 504 341 504 359 487 c 0
 376 469 376 469 376 444 c 0
 376 419 376 419 359 401 c 0
 341 384 341 384 316 384 c 0
 291 384 291 384 273 401 c 0
 256 419 256 419 256 444 c 0
384 444 m 0
 384 469 384 469 401 487 c 0
 419 504 419 504 444 504 c 0
 469 504 469 504 487 487 c 0
 504 469 504 469 504 444 c 0
 504 419 504 419 487 401 c 0
 469 384 469 384 444 384 c 0
 419 384 419 384 401 401 c 0
 384 419 384 419 384 444 c 0
512 444 m 0
 512 469 512 469 529 487 c 0
 547 504 547 504 572 504 c 0
 597 504 597 504 615 487 c 0
 632 469 632 469 632 444 c 0
 632 419 632 419 615 401 c 0
 597 384 597 384 572 384 c 0
 547 384 547 384 529 401 c 0
 512 419 512 419 512 444 c 0
256 316 m 0
 256 341 256 341 273 359 c 0
 291 376 291 376 316 376 c 0
 341 376 341 376 359 359 c 0
 376 341 376 341 376 316 c 0
 376 291 376 291 359 273 c 0
 341 256 341 256 316 256 c 0
 291 256 291 256 273 273 c 0
 256 291 256 291 256 316 c 0
0 188 m 0
 0 213 0 213 17 231 c 0
 35 248 35 248 60 248 c 0
 85 248 85 248 103 231 c 0
 120 213 120 213 120 188 c 0
 120 163 120 163 103 145 c 0
 85 128 85 128 60 128 c 0
 35 128 35 128 17 145 c 0
 0 163 0 163 0 188 c 0
128 188 m 0
 128 213 128 213 145 231 c 0
 163 248 163 248 188 248 c 0
 213 248 213 248 231 231 c 0
 248 213 248 213 248 188 c 0
 248 163 248 163 231 145 c 0
 213 128 213 128 188 128 c 0
 163 128 163 128 145 145 c 0
 128 163 128 163 128 188 c 0
256 188 m 0
 256 213 256 213 273 231 c 0
 291 248 291 248 316 248 c 0
 341 248 341 248 359 231 c 0
 376 213 376 213 376 188 c 0
 376 163 376 163 359 145 c 0
 341 128 341 128 316 128 c 0
 291 128 291 128 273 145 c 0
 256 163 256 163 256 188 c 0
384 188 m 0
 384 213 384 213 401 231 c 0
 419 248 419 248 444 248 c 0
 469 248 469 248 487 231 c 0
 504 213 504 213 504 188 c 0
 504 163 504 163 487 145 c 0
 469 128 469 128 444 128 c 0
 419 128 419 128 401 145 c 0
 384 163 384 163 384 188 c 0
512 188 m 0
 512 213 512 213 529 231 c 0
 547 248 547 248 572 248 c 0
 597 248 597 248 615 231 c 0
 632 213 632 213 632 188 c 0
 632 163 632 163 615 145 c 0
 597 128 597 128 572 128 c 0
 547 128 547 128 529 145 c 0
 512 163 512 163 512 188 c 0
256 60 m 0
 256 85 256 85 273 103 c 0
 291 120 291 120 316 120 c 0
 341 120 341 120 359 103 c 0
 376 85 376 85 376 60 c 0
 376 35 376 35 359 17 c 0
 341 0 341 0 316 0 c 0
 291 0 291 0 273 17 c 0
 256 35 256 35 256 60 c 0
EndSplineSet
EndChar
StartChar: uni00A7
Encoding: 167 167 63
Width: 768
VWidth: 0
Flags: HW
LayerCount: 2
Fore
SplineSet
0 700 m 0
 0 725 0 725 17 743 c 0
 35 760 35 760 60 760 c 0
 85 760 85 760 103 743 c 0
 120 725 120 725 120 700 c 0
 120 675 120 675 103 657 c 0
 85 640 85 640 60 640 c 0
 35 640 35 640 17 657 c 0
 0 675 0 675 0 700 c 0
128 700 m 0
 128 725 128 725 145 743 c 0
 163 760 163 760 188 760 c 0
 213 760 213 760 231 743 c 0
 248 725 248 725 248 700 c 0
 248 675 248 675 231 657 c 0
 213 640 213 640 188 640 c 0
 163 640 163 640 145 657 c 0
 128 675 128 675 128 700 c 0
256 700 m 0
 256 725 256 725 273 743 c 0
 291 760 291 760 316 760 c 0
 341 760 341 760 359 743 c 0
 376 725 376 725 376 700 c 0
 376 675 376 675 359 657 c 0
 341 640 341 640 316 640 c 0
 291 640 291 640 273 657 c 0
 256 675 256 675 256 700 c 0
384 700 m 0
 384 725 384 725 401 743 c 0
 419 760 419 760 444 760 c 0
 469 760 469 760 487 743 c 0
 504 725 504 725 504 700 c 0
 504 675 504 675 487 657 c 0
 469 640 469 640 444 640 c 0
 419 640 419 640 401 657 c 0
 384 675 384 675 384 700 c 0
512 700 m 0
 512 725 512 725 529 743 c 0
 547 760 547 760 572 760 c 0
 597 760 597 760 615 743 c 0
 632 725 632 725 632 700 c 0
 632 675 632 675 615 657 c 0
 597 640 597 640 572 640 c 0
 547 640 547 640 529 657 c 0
 512 675 512 675 512 700 c 0
0 572 m 0
 0 597 0 597 17 615 c 0
 35 632 35 632 60 632 c 0
 85 632 85 632 103 615 c 0
 120 597 120 597 120 572 c 0
 120 547 120 547 103 529 c 0
 85 512 85 512 60 512 c 0
 35 512 35 512 17 529 c 0
 0 547 0 547 0 572 c 0
512 572 m 0
 512 597 512 597 529 615 c 0
 547 632 547 632 572 632 c 0
 597 632 597 632 615 615 c 0
 632 597 632 597 632 572 c 0
 632 547 632 547 615 529 c 0
 597 512 597 512 572 512 c 0
 547 512 547 512 529 529 c 0
 512 547 512 547 512 572 c 0
0 444 m 0
 0 469 0 469 17 487 c 0
 35 504 35 504 60 504 c 0
 85 504 85 504 103 487 c 0
 120 469 120 469 120 444 c 0
 120 419 120 419 103 401 c 0
 85 384 85 384 60 384 c 0
 35 384 35 384 17 401 c 0
 0 419 0 419 0 444 c 0
512 444 m 0
 512 469 512 469 529 487 c 0
 547 504 547 504 572 504 c 0
 597 504 597 504 615 487 c 0
 632 469 632 469 632 444 c 0
 632 419 632 419 615 401 c 0
 597 384 597 384 572 384 c 0
 547 384 547 384 529 401 c 0
 512 419 512 419 512 444 c 0
0 316 m 0
 0 341 0 341 17 359 c 0
 35 376 35 376 60 376 c 0
 85 376 85 376 103 359 c 0
 120 341 120 341 120 316 c 0
 120 291 120 291 103 273 c 0
 85 256 85 256 60 256 c 0
 35 256 35 256 17 273 c 0
 0 291 0 291 0 316 c 0
512 316 m 0
 512 341 512 341 529 359 c 0
 547 376 547 376 572 376 c 0
 597 376 597 376 615 359 c 0
 632 341 632 341 632 316 c 0
 632 291 632 291 615 273 c 0
 597 256 597 256 572 256 c 0
 547 256 547 256 529 273 c 0
 512 291 512 291 512 316 c 0
0 188 m 0
 0 213 0 213 17 231 c 0
 35 248 35 248 60 248 c 0
 85 248 85 248 103 231 c 0
 120 213 120 213 120 188 c 0
 120 163 120 163 103 145 c 0
 85 128 85 128 60 128 c 0
 35 128 35 128 17 145 c 0
 0 163 0 163 0 188 c 0
128 188 m 0
 128 213 128 213 145 231 c 0
 163 248 163 248 188 248 c 0
 213 248 213 248 231 231 c 0
 248 213 248 213 248 188 c 0
 248 163 248 163 231 145 c 0
 213 128 213 128 188 128 c 0
 163 128 163 128 145 145 c 0
 128 163 128 163 128 188 c 0
256 188 m 0
 256 213 256 213 273 231 c 0
 291 248 291 248 316 248 c 0
 341 248 341 248 359 231 c 0
 376 213 376 213 376 188 c 0
 376 163 376 163 359 145 c 0
 341 128 341 128 316 128 c 0
 291 128 291 128 273 145 c 0
 256 163 256 163 256 188 c 0
384 188 m 0
 384 213 384 213 401 231 c 0
 419 248 419 248 444 248 c 0
 469 248 469 248 487 231 c 0
 504 213 504 213 504 188 c 0
 504 163 504 163 487 145 c 0
 469 128 469 128 444 128 c 0
 419 128 419 128 401 145 c 0
 384 163 384 163 384 188 c 0
512 188 m 0
 512 213 512 213 529 231 c 0
 547 248 547 248 572 248 c 0
 597 248 597 248 615 231 c 0
 632 213 632 213 632 188 c 0
 632 163 632 163 615 145 c 0
 597 128 597 128 572 128 c 0
 547 128 547 128 529 145 c 0
 512 163 512 163 512 188 c 0
EndSplineSet
EndChar
